<svg width="384" height="385" viewBox="0 0 384 385" fill="none" xmlns="http://www.w3.org/2000/svg">
<path d="M216 194H233C246.25 194 257 183.25 257 170V153C257 139.74 267.74 129 281 129H360C373.25 129 384 118.25 384 105V24C384 10.75 373.25 0 360 0H344C330.75 0 320 10.75 320 24V40C320 53.25 309.26 64 296 64H281C267.74 64 257 53.25 257 40V24C257 10.75 246.25 0 233 0H152C138.75 0 128 10.75 128 24V41C128 54.25 138.75 65 152 65H232C245.26 65 256 75.75 256 89V104C256 117.25 245.26 128 232.01 128H152C138.74 128 128 117.26 128 104V88C128 74.75 117.25 64 104 64H89C75.75 64 65 53.25 65 40V24C65 10.75 54.25 0 41 0H24C11.79 0 1.71 9.12 0.2 20.92C0.07 21.93 0 22.96 0 24V41C0 54.25 10.75 65 24 65H40C53.25 65 64 75.75 64 89V170C64 183.25 74.75 194 88 194H103C116.26 194 127 204.74 127 218V232C127 245.26 116.26 256 103 256H88C74.75 256 64 266.75 64 280V296C64 309.26 53.25 320 40 320H24C10.75 320 0 330.75 0 344V361C0 374.25 10.75 385 24 385H232C245.25 385 256 374.25 256 361V344C256 330.74 266.74 320 280 320H295C308.26 320 319 330.74 319 344V361C319 374.25 329.75 385 343 385H360C373.25 385 384 374.25 384 361V344C384 330.75 373.25 320 360 320H345C331.74 320 321 309.26 321 296V282C321 268.74 331.74 258 345 258H360C373.25 258 384 247.25 384 234V217C384 203.75 373.25 193 360 193H343C329.75 193 319 203.75 319 217V232C319 245.26 308.26 256 295 256H280C266.75 256 256 266.75 256 280V296C256 309.26 245.26 320 232 320H215C202.3 320 192 309.26 192 296V218C192 204.74 202.74 194 216 194Z" fill="#9CA6FC"/>
</svg>
