<svg width="269" height="142" viewBox="0 0 269 142" fill="none" xmlns="http://www.w3.org/2000/svg">
<mask id="mask0_1293_9920" style="mask-type:alpha" maskUnits="userSpaceOnUse" x="0" y="0" width="269" height="142">
<path d="M20 142C8.97 142 0 133.03 0 122V85C0 73.97 8.97 65 20 65H189C202.81 65 214 53.81 214 40V20C214 8.97 222.97 0 234 0H249C260.03 0 269 8.97 269 20V44C269 55.03 260.03 64 249 64H240C226.19 64 215 75.19 215 89V122C215 133.03 206.03 142 195 142H20Z" fill="#EDEDED"/>
</mask>
<g mask="url(#mask0_1293_9920)">
<path d="M260 81.2501C260 21.1891 148.071 -27.5 9.99999 -27.5C-128.071 -27.5 -240 21.189 -240 81.25C-240 141.311 -66.875 -22.2616 9.99997 190C148.071 190 260 141.311 260 81.2501Z" fill="#EDEDED"/>
<path d="M17.136 79.44C18.7893 79.44 20.0853 79.8987 21.024 80.816C21.9733 81.7227 22.448 83.024 22.448 84.72C22.448 86.416 21.9733 87.7227 21.024 88.64C20.0853 89.5467 18.7893 90 17.136 90H13.728V79.44H17.136ZM17.264 88.8C18.4693 88.8 19.408 88.4427 20.08 87.728C20.7627 87.0027 21.104 86 21.104 84.72C21.104 83.44 20.7627 82.4427 20.08 81.728C19.408 81.0027 18.4693 80.64 17.264 80.64H15.008V88.8H17.264ZM27.8833 90.16C27.1259 90.16 26.4486 89.9947 25.8513 89.664C25.2646 89.3333 24.8059 88.8587 24.4753 88.24C24.1446 87.6107 23.9793 86.864 23.9793 86C23.9793 85.136 24.1446 84.3947 24.4753 83.776C24.8059 83.1467 25.2593 82.6667 25.8353 82.336C26.4113 82.0053 27.0673 81.84 27.8033 81.84C28.5499 81.84 29.1846 82 29.7073 82.32C30.2406 82.64 30.6459 83.0773 30.9233 83.632C31.2006 84.176 31.3393 84.7893 31.3393 85.472C31.3393 85.6533 31.3339 85.8187 31.3233 85.968C31.3126 86.1173 31.2966 86.2507 31.2753 86.368H24.8113V85.232H30.7153L30.0593 85.36C30.0593 84.592 29.8459 84 29.4193 83.584C29.0033 83.168 28.4539 82.96 27.7713 82.96C27.2486 82.96 26.7953 83.0827 26.4113 83.328C26.0379 83.5627 25.7446 83.9093 25.5313 84.368C25.3286 84.816 25.2273 85.36 25.2273 86C25.2273 86.6293 25.3339 87.1733 25.5473 87.632C25.7606 88.0907 26.0593 88.4427 26.4433 88.688C26.8379 88.9227 27.3073 89.04 27.8513 89.04C28.4379 89.04 28.9126 88.928 29.2753 88.704C29.6486 88.48 29.9473 88.176 30.1713 87.792L31.1793 88.384C30.9766 88.7467 30.7153 89.0613 30.3953 89.328C30.0859 89.5947 29.7179 89.8027 29.2913 89.952C28.8753 90.0907 28.4059 90.16 27.8833 90.16ZM42.9387 84.832C42.9387 84.2347 42.7787 83.776 42.4587 83.456C42.1387 83.1253 41.6854 82.96 41.0987 82.96C40.5441 82.96 40.0747 83.0827 39.6907 83.328C39.3067 83.5627 39.0241 83.9467 38.8427 84.48L37.8027 83.84C38.0161 83.2427 38.4107 82.7627 38.9867 82.4C39.5627 82.0267 40.2774 81.84 41.1307 81.84C41.7067 81.84 42.2294 81.9413 42.6987 82.144C43.1681 82.336 43.5361 82.6347 43.8027 83.04C44.0801 83.4347 44.2188 83.9467 44.2188 84.576V88.448C44.2188 88.832 44.4214 89.024 44.8267 89.024C45.0294 89.024 45.2267 88.9973 45.4187 88.944L45.3547 89.952C45.1414 90.0587 44.8641 90.112 44.5227 90.112C44.2134 90.112 43.9361 90.0533 43.6907 89.936C43.4454 89.8187 43.2534 89.6427 43.1147 89.408C42.9761 89.1627 42.9067 88.8587 42.9067 88.496V88.336L43.2267 88.384C43.0987 88.8 42.8801 89.1413 42.5707 89.408C42.2614 89.664 41.9147 89.856 41.5307 89.984C41.1467 90.1013 40.7681 90.16 40.3947 90.16C39.9254 90.16 39.4881 90.08 39.0827 89.92C38.6774 89.76 38.3521 89.52 38.1067 89.2C37.8721 88.8693 37.7547 88.464 37.7547 87.984C37.7547 87.3867 37.9521 86.896 38.3467 86.512C38.7521 86.1173 39.3121 85.8507 40.0267 85.712L43.1947 85.088V86.144L40.6187 86.672C40.0961 86.7787 39.7067 86.928 39.4507 87.12C39.1947 87.312 39.0667 87.5787 39.0667 87.92C39.0667 88.2507 39.1947 88.5227 39.4507 88.736C39.7174 88.9387 40.0907 89.04 40.5707 89.04C40.8801 89.04 41.1734 89.0027 41.4507 88.928C41.7387 88.8427 41.9947 88.72 42.2187 88.56C42.4427 88.3893 42.6187 88.1813 42.7467 87.936C42.8747 87.68 42.9387 87.3813 42.9387 87.04V84.832ZM50.1613 81.84C50.7159 81.84 51.2013 81.9253 51.6173 82.096C52.0439 82.2667 52.4119 82.512 52.7213 82.832C53.0306 83.152 53.2813 83.5307 53.4733 83.968L52.2573 84.544C52.0866 84.032 51.8253 83.6427 51.4733 83.376C51.1319 83.0987 50.6839 82.96 50.1293 82.96C49.5959 82.96 49.1373 83.0827 48.7533 83.328C48.3693 83.5627 48.0759 83.9093 47.8733 84.368C47.6706 84.816 47.5693 85.36 47.5693 86C47.5693 86.6293 47.6706 87.1733 47.8733 87.632C48.0759 88.0907 48.3693 88.4427 48.7533 88.688C49.1373 88.9227 49.5959 89.04 50.1293 89.04C50.5453 89.04 50.9026 88.976 51.2013 88.848C51.5106 88.72 51.7613 88.5333 51.9533 88.288C52.1559 88.0427 52.2946 87.744 52.3693 87.392L53.5533 87.808C53.3719 88.2987 53.1213 88.72 52.8013 89.072C52.4919 89.424 52.1133 89.696 51.6653 89.888C51.2279 90.0693 50.7266 90.16 50.1613 90.16C49.4146 90.16 48.7479 89.9947 48.1613 89.664C47.5746 89.3333 47.1159 88.8587 46.7853 88.24C46.4546 87.6107 46.2893 86.864 46.2893 86C46.2893 85.136 46.4546 84.3947 46.7853 83.776C47.1159 83.1467 47.5746 82.6667 48.1613 82.336C48.7479 82.0053 49.4146 81.84 50.1613 81.84ZM58.6344 81.84C59.3917 81.84 60.0584 82.0053 60.6344 82.336C61.221 82.6667 61.6797 83.1467 62.0104 83.776C62.341 84.3947 62.5064 85.136 62.5064 86C62.5064 86.864 62.341 87.6107 62.0104 88.24C61.6797 88.8587 61.221 89.3333 60.6344 89.664C60.0584 89.9947 59.3917 90.16 58.6344 90.16C57.8877 90.16 57.221 89.9947 56.6344 89.664C56.0477 89.3333 55.589 88.8587 55.2584 88.24C54.9277 87.6107 54.7624 86.864 54.7624 86C54.7624 85.136 54.9277 84.3947 55.2584 83.776C55.589 83.1467 56.0477 82.6667 56.6344 82.336C57.221 82.0053 57.8877 81.84 58.6344 81.84ZM58.6344 82.944C58.0904 82.944 57.6264 83.0667 57.2424 83.312C56.8584 83.5573 56.5597 83.9093 56.3464 84.368C56.1437 84.816 56.0424 85.36 56.0424 86C56.0424 86.6293 56.1437 87.1733 56.3464 87.632C56.5597 88.0907 56.8584 88.4427 57.2424 88.688C57.6264 88.9333 58.0904 89.056 58.6344 89.056C59.1784 89.056 59.6424 88.9333 60.0264 88.688C60.4104 88.4427 60.7037 88.0907 60.9064 87.632C61.1197 87.1733 61.2264 86.6293 61.2264 86C61.2264 85.36 61.1197 84.816 60.9064 84.368C60.7037 83.9093 60.4104 83.5573 60.0264 83.312C59.6424 83.0667 59.1784 82.944 58.6344 82.944ZM64.4361 90V82H65.4761L65.6521 83.312C65.8761 82.8213 66.2015 82.4533 66.6281 82.208C67.0655 81.9627 67.5935 81.84 68.2121 81.84C68.3508 81.84 68.5001 81.8507 68.6601 81.872C68.8308 81.8933 68.9748 81.936 69.0921 82L68.8681 83.168C68.7508 83.1253 68.6228 83.0933 68.4841 83.072C68.3455 83.0507 68.1481 83.04 67.8921 83.04C67.5615 83.04 67.2255 83.136 66.8841 83.328C66.5535 83.52 66.2761 83.8133 66.0521 84.208C65.8281 84.592 65.7161 85.0827 65.7161 85.68V90H64.4361ZM73.3574 90.16C72.696 90.16 72.088 89.9947 71.5334 89.664C70.9787 89.3333 70.536 88.8587 70.2054 88.24C69.8747 87.6107 69.7094 86.864 69.7094 86C69.7094 85.1147 69.8854 84.3627 70.2374 83.744C70.5894 83.1253 71.0534 82.656 71.6294 82.336C72.2054 82.0053 72.824 81.84 73.4854 81.84C74.1467 81.84 74.7174 82.0107 75.1974 82.352C75.688 82.6933 76.0134 83.1467 76.1734 83.712L76.0134 83.824V78.32H77.2934V90H76.1734L76.0614 88.064L76.2374 87.968C76.1627 88.4373 75.9814 88.8373 75.6934 89.168C75.416 89.488 75.0694 89.7333 74.6534 89.904C74.248 90.0747 73.816 90.16 73.3574 90.16ZM73.4854 89.04C73.9974 89.04 74.44 88.912 74.8134 88.656C75.1974 88.4 75.4907 88.0373 75.6934 87.568C75.9067 87.088 76.0134 86.528 76.0134 85.888C76.0134 85.28 75.9067 84.7573 75.6934 84.32C75.4907 83.8827 75.2027 83.5467 74.8294 83.312C74.4667 83.0773 74.04 82.96 73.5494 82.96C72.7387 82.96 72.1094 83.2373 71.6614 83.792C71.2134 84.3467 70.9894 85.0827 70.9894 86C70.9894 86.9173 71.208 87.6533 71.6454 88.208C72.0827 88.7627 72.696 89.04 73.4854 89.04ZM83.1006 81.84C83.858 81.84 84.5246 82.0053 85.1006 82.336C85.6873 82.6667 86.146 83.1467 86.4766 83.776C86.8073 84.3947 86.9726 85.136 86.9726 86C86.9726 86.864 86.8073 87.6107 86.4766 88.24C86.146 88.8587 85.6873 89.3333 85.1006 89.664C84.5246 89.9947 83.858 90.16 83.1006 90.16C82.354 90.16 81.6873 89.9947 81.1006 89.664C80.514 89.3333 80.0553 88.8587 79.7246 88.24C79.394 87.6107 79.2286 86.864 79.2286 86C79.2286 85.136 79.394 84.3947 79.7246 83.776C80.0553 83.1467 80.514 82.6667 81.1006 82.336C81.6873 82.0053 82.354 81.84 83.1006 81.84ZM83.1006 82.944C82.5566 82.944 82.0926 83.0667 81.7086 83.312C81.3246 83.5573 81.026 83.9093 80.8126 84.368C80.61 84.816 80.5086 85.36 80.5086 86C80.5086 86.6293 80.61 87.1733 80.8126 87.632C81.026 88.0907 81.3246 88.4427 81.7086 88.688C82.0926 88.9333 82.5566 89.056 83.1006 89.056C83.6446 89.056 84.1086 88.9333 84.4926 88.688C84.8766 88.4427 85.17 88.0907 85.3726 87.632C85.586 87.1733 85.6926 86.6293 85.6926 86C85.6926 85.36 85.586 84.816 85.3726 84.368C85.17 83.9093 84.8766 83.5573 84.4926 83.312C84.1086 83.0667 83.6446 82.944 83.1006 82.944ZM97.1875 81.84C97.7422 81.84 98.2275 81.9253 98.6435 82.096C99.0702 82.2667 99.4382 82.512 99.7475 82.832C100.057 83.152 100.307 83.5307 100.499 83.968L99.2835 84.544C99.1128 84.032 98.8515 83.6427 98.4995 83.376C98.1582 83.0987 97.7102 82.96 97.1555 82.96C96.6222 82.96 96.1635 83.0827 95.7795 83.328C95.3955 83.5627 95.1022 83.9093 94.8995 84.368C94.6968 84.816 94.5955 85.36 94.5955 86C94.5955 86.6293 94.6968 87.1733 94.8995 87.632C95.1022 88.0907 95.3955 88.4427 95.7795 88.688C96.1635 88.9227 96.6222 89.04 97.1555 89.04C97.5715 89.04 97.9288 88.976 98.2275 88.848C98.5368 88.72 98.7875 88.5333 98.9795 88.288C99.1822 88.0427 99.3208 87.744 99.3955 87.392L100.579 87.808C100.398 88.2987 100.147 88.72 99.8275 89.072C99.5182 89.424 99.1395 89.696 98.6915 89.888C98.2542 90.0693 97.7528 90.16 97.1875 90.16C96.4408 90.16 95.7742 89.9947 95.1875 89.664C94.6008 89.3333 94.1422 88.8587 93.8115 88.24C93.4808 87.6107 93.3155 86.864 93.3155 86C93.3155 85.136 93.4808 84.3947 93.8115 83.776C94.1422 83.1467 94.6008 82.6667 95.1875 82.336C95.7742 82.0053 96.4408 81.84 97.1875 81.84ZM105.661 81.84C106.418 81.84 107.085 82.0053 107.661 82.336C108.247 82.6667 108.706 83.1467 109.037 83.776C109.367 84.3947 109.533 85.136 109.533 86C109.533 86.864 109.367 87.6107 109.037 88.24C108.706 88.8587 108.247 89.3333 107.661 89.664C107.085 89.9947 106.418 90.16 105.661 90.16C104.914 90.16 104.247 89.9947 103.661 89.664C103.074 89.3333 102.615 88.8587 102.285 88.24C101.954 87.6107 101.789 86.864 101.789 86C101.789 85.136 101.954 84.3947 102.285 83.776C102.615 83.1467 103.074 82.6667 103.661 82.336C104.247 82.0053 104.914 81.84 105.661 81.84ZM105.661 82.944C105.117 82.944 104.653 83.0667 104.269 83.312C103.885 83.5573 103.586 83.9093 103.373 84.368C103.17 84.816 103.069 85.36 103.069 86C103.069 86.6293 103.17 87.1733 103.373 87.632C103.586 88.0907 103.885 88.4427 104.269 88.688C104.653 88.9333 105.117 89.056 105.661 89.056C106.205 89.056 106.669 88.9333 107.053 88.688C107.437 88.4427 107.73 88.0907 107.933 87.632C108.146 87.1733 108.253 86.6293 108.253 86C108.253 85.36 108.146 84.816 107.933 84.368C107.73 83.9093 107.437 83.5573 107.053 83.312C106.669 83.0667 106.205 82.944 105.661 82.944ZM111.462 90V82H112.582L112.662 83.248C112.95 82.7573 113.324 82.4 113.782 82.176C114.252 81.952 114.732 81.84 115.222 81.84C115.788 81.84 116.321 81.968 116.822 82.224C117.324 82.48 117.708 82.8747 117.974 83.408C118.145 83.0453 118.385 82.752 118.694 82.528C119.004 82.2933 119.34 82.1227 119.702 82.016C120.076 81.8987 120.428 81.84 120.758 81.84C121.27 81.84 121.756 81.9467 122.214 82.16C122.684 82.3733 123.068 82.704 123.366 83.152C123.665 83.6 123.814 84.176 123.814 84.88V90H122.534V85.008C122.534 84.2827 122.353 83.76 121.99 83.44C121.628 83.12 121.18 82.96 120.646 82.96C120.23 82.96 119.841 83.0613 119.478 83.264C119.116 83.4667 118.822 83.7653 118.598 84.16C118.385 84.5547 118.278 85.04 118.278 85.616V90H116.998V85.008C116.998 84.2827 116.817 83.76 116.454 83.44C116.092 83.12 115.644 82.96 115.11 82.96C114.758 82.96 114.396 83.056 114.022 83.248C113.66 83.4293 113.356 83.7227 113.11 84.128C112.865 84.5333 112.742 85.0667 112.742 85.728V90H111.462ZM134.549 90.16C133.792 90.16 133.115 89.9947 132.517 89.664C131.931 89.3333 131.472 88.8587 131.141 88.24C130.811 87.6107 130.645 86.864 130.645 86C130.645 85.136 130.811 84.3947 131.141 83.776C131.472 83.1467 131.925 82.6667 132.501 82.336C133.077 82.0053 133.733 81.84 134.469 81.84C135.216 81.84 135.851 82 136.373 82.32C136.907 82.64 137.312 83.0773 137.589 83.632C137.867 84.176 138.005 84.7893 138.005 85.472C138.005 85.6533 138 85.8187 137.989 85.968C137.979 86.1173 137.963 86.2507 137.941 86.368H131.477V85.232H137.381L136.725 85.36C136.725 84.592 136.512 84 136.085 83.584C135.669 83.168 135.12 82.96 134.437 82.96C133.915 82.96 133.461 83.0827 133.077 83.328C132.704 83.5627 132.411 83.9093 132.197 84.368C131.995 84.816 131.893 85.36 131.893 86C131.893 86.6293 132 87.1733 132.213 87.632C132.427 88.0907 132.725 88.4427 133.109 88.688C133.504 88.9227 133.973 89.04 134.517 89.04C135.104 89.04 135.579 88.928 135.941 88.704C136.315 88.48 136.613 88.176 136.837 87.792L137.845 88.384C137.643 88.7467 137.381 89.0613 137.061 89.328C136.752 89.5947 136.384 89.8027 135.957 89.952C135.541 90.0907 135.072 90.16 134.549 90.16ZM142.84 90.16C142.061 90.16 141.341 89.9947 140.68 89.664C140.029 89.3333 139.528 88.864 139.176 88.256L140.264 87.472C140.499 87.9627 140.84 88.3467 141.288 88.624C141.747 88.9013 142.296 89.04 142.936 89.04C143.501 89.04 143.944 88.9333 144.264 88.72C144.584 88.496 144.744 88.208 144.744 87.856C144.744 87.632 144.669 87.4293 144.52 87.248C144.381 87.056 144.109 86.9173 143.704 86.832L141.784 86.432C141.005 86.272 140.445 86.0053 140.104 85.632C139.773 85.2587 139.608 84.7947 139.608 84.24C139.608 83.8027 139.731 83.4027 139.976 83.04C140.232 82.6773 140.589 82.3893 141.048 82.176C141.517 81.952 142.067 81.84 142.696 81.84C143.485 81.84 144.152 81.9947 144.696 82.304C145.24 82.6133 145.645 83.0507 145.912 83.616L144.84 84.32C144.659 83.8507 144.365 83.5093 143.96 83.296C143.555 83.072 143.133 82.96 142.696 82.96C142.312 82.96 141.981 83.0133 141.704 83.12C141.437 83.2267 141.229 83.376 141.08 83.568C140.941 83.7493 140.872 83.9573 140.872 84.192C140.872 84.4267 140.952 84.6453 141.112 84.848C141.272 85.04 141.571 85.1787 142.008 85.264L144.008 85.68C144.755 85.8293 145.277 86.0747 145.576 86.416C145.875 86.7573 146.024 87.1733 146.024 87.664C146.024 88.1653 145.891 88.608 145.624 88.992C145.357 89.3653 144.984 89.6533 144.504 89.856C144.024 90.0587 143.469 90.16 142.84 90.16ZM149.805 79.728V87.792C149.805 88.1867 149.917 88.48 150.141 88.672C150.365 88.864 150.653 88.96 151.005 88.96C151.315 88.96 151.581 88.9067 151.805 88.8C152.029 88.6933 152.232 88.5493 152.413 88.368L152.861 89.44C152.616 89.664 152.323 89.84 151.981 89.968C151.651 90.096 151.267 90.16 150.829 90.16C150.424 90.16 150.045 90.0907 149.693 89.952C149.341 89.8027 149.059 89.5733 148.845 89.264C148.643 88.944 148.536 88.528 148.525 88.016V80.08L149.805 79.728ZM152.717 82V83.104H146.925V82H152.717ZM157.036 90.16C156.524 90.16 156.039 90.064 155.58 89.872C155.132 89.68 154.764 89.3707 154.476 88.944C154.199 88.5067 154.06 87.9413 154.06 87.248V82H155.34V86.912C155.34 87.7227 155.516 88.2827 155.868 88.592C156.22 88.8907 156.716 89.04 157.356 89.04C157.655 89.04 157.948 88.992 158.236 88.896C158.524 88.7893 158.78 88.6293 159.004 88.416C159.239 88.192 159.42 87.9093 159.548 87.568C159.687 87.2267 159.756 86.8213 159.756 86.352V82H161.036V90H159.916L159.836 88.784C159.559 89.264 159.18 89.616 158.7 89.84C158.231 90.0533 157.676 90.16 157.036 90.16ZM166.656 90.16C165.994 90.16 165.386 89.9947 164.832 89.664C164.277 89.3333 163.834 88.8587 163.504 88.24C163.173 87.6107 163.008 86.864 163.008 86C163.008 85.1147 163.184 84.3627 163.536 83.744C163.888 83.1253 164.352 82.656 164.928 82.336C165.504 82.0053 166.122 81.84 166.784 81.84C167.445 81.84 168.016 82.0107 168.496 82.352C168.986 82.6933 169.312 83.1467 169.472 83.712L169.312 83.824V78.32H170.592V90H169.472L169.36 88.064L169.536 87.968C169.461 88.4373 169.28 88.8373 168.992 89.168C168.714 89.488 168.368 89.7333 167.952 89.904C167.546 90.0747 167.114 90.16 166.656 90.16ZM166.784 89.04C167.296 89.04 167.738 88.912 168.112 88.656C168.496 88.4 168.789 88.0373 168.992 87.568C169.205 87.088 169.312 86.528 169.312 85.888C169.312 85.28 169.205 84.7573 168.992 84.32C168.789 83.8827 168.501 83.5467 168.128 83.312C167.765 83.0773 167.338 82.96 166.848 82.96C166.037 82.96 165.408 83.2373 164.96 83.792C164.512 84.3467 164.288 85.0827 164.288 86C164.288 86.9173 164.506 87.6533 164.944 88.208C165.381 88.7627 165.994 89.04 166.784 89.04ZM176.399 81.84C177.156 81.84 177.823 82.0053 178.399 82.336C178.985 82.6667 179.444 83.1467 179.775 83.776C180.105 84.3947 180.271 85.136 180.271 86C180.271 86.864 180.105 87.6107 179.775 88.24C179.444 88.8587 178.985 89.3333 178.399 89.664C177.823 89.9947 177.156 90.16 176.399 90.16C175.652 90.16 174.985 89.9947 174.399 89.664C173.812 89.3333 173.353 88.8587 173.023 88.24C172.692 87.6107 172.527 86.864 172.527 86C172.527 85.136 172.692 84.3947 173.023 83.776C173.353 83.1467 173.812 82.6667 174.399 82.336C174.985 82.0053 175.652 81.84 176.399 81.84ZM176.399 82.944C175.855 82.944 175.391 83.0667 175.007 83.312C174.623 83.5573 174.324 83.9093 174.111 84.368C173.908 84.816 173.807 85.36 173.807 86C173.807 86.6293 173.908 87.1733 174.111 87.632C174.324 88.0907 174.623 88.4427 175.007 88.688C175.391 88.9333 175.855 89.056 176.399 89.056C176.943 89.056 177.407 88.9333 177.791 88.688C178.175 88.4427 178.468 88.0907 178.671 87.632C178.884 87.1733 178.991 86.6293 178.991 86C178.991 85.36 178.884 84.816 178.671 84.368C178.468 83.9093 178.175 83.5573 177.791 83.312C177.407 83.0667 176.943 82.944 176.399 82.944ZM13.488 109V101H14.528L14.704 102.312C14.928 101.821 15.2533 101.453 15.68 101.208C16.1173 100.963 16.6453 100.84 17.264 100.84C17.4027 100.84 17.552 100.851 17.712 100.872C17.8827 100.893 18.0267 100.936 18.144 101L17.92 102.168C17.8027 102.125 17.6747 102.093 17.536 102.072C17.3973 102.051 17.2 102.04 16.944 102.04C16.6133 102.04 16.2773 102.136 15.936 102.328C15.6053 102.52 15.328 102.813 15.104 103.208C14.88 103.592 14.768 104.083 14.768 104.68V109H13.488ZM22.6333 109.16C21.8759 109.16 21.1986 108.995 20.6013 108.664C20.0146 108.333 19.5559 107.859 19.2253 107.24C18.8946 106.611 18.7293 105.864 18.7293 105C18.7293 104.136 18.8946 103.395 19.2253 102.776C19.5559 102.147 20.0093 101.667 20.5853 101.336C21.1613 101.005 21.8173 100.84 22.5533 100.84C23.2999 100.84 23.9346 101 24.4573 101.32C24.9906 101.64 25.3959 102.077 25.6733 102.632C25.9506 103.176 26.0893 103.789 26.0893 104.472C26.0893 104.653 26.0839 104.819 26.0733 104.968C26.0626 105.117 26.0466 105.251 26.0252 105.368H19.5613V104.232H25.4653L24.8093 104.36C24.8093 103.592 24.5959 103 24.1693 102.584C23.7533 102.168 23.2039 101.96 22.5213 101.96C21.9986 101.96 21.5453 102.083 21.1613 102.328C20.7879 102.563 20.4946 102.909 20.2812 103.368C20.0786 103.816 19.9773 104.36 19.9773 105C19.9773 105.629 20.0839 106.173 20.2973 106.632C20.5106 107.091 20.8093 107.443 21.1933 107.688C21.5879 107.923 22.0573 108.04 22.6013 108.04C23.1879 108.04 23.6626 107.928 24.0253 107.704C24.3986 107.48 24.6973 107.176 24.9213 106.792L25.9293 107.384C25.7266 107.747 25.4653 108.061 25.1453 108.328C24.8359 108.595 24.4679 108.803 24.0413 108.952C23.6253 109.091 23.1559 109.16 22.6333 109.16ZM32.7156 103.832C32.7156 103.235 32.5556 102.776 32.2356 102.456C31.9156 102.125 31.4623 101.96 30.8756 101.96C30.321 101.96 29.8516 102.083 29.4676 102.328C29.0836 102.563 28.801 102.947 28.6196 103.48L27.5796 102.84C27.793 102.243 28.1876 101.763 28.7636 101.4C29.3396 101.027 30.0543 100.84 30.9076 100.84C31.4836 100.84 32.0063 100.941 32.4756 101.144C32.945 101.336 33.313 101.635 33.5796 102.04C33.857 102.435 33.9956 102.947 33.9956 103.576V107.448C33.9956 107.832 34.1983 108.024 34.6036 108.024C34.8063 108.024 35.0036 107.997 35.1956 107.944L35.1316 108.952C34.9183 109.059 34.641 109.112 34.2996 109.112C33.9903 109.112 33.713 109.053 33.4676 108.936C33.2223 108.819 33.0303 108.643 32.8916 108.408C32.753 108.163 32.6836 107.859 32.6836 107.496V107.336L33.0036 107.384C32.8756 107.8 32.657 108.141 32.3476 108.408C32.0383 108.664 31.6916 108.856 31.3076 108.984C30.9236 109.101 30.545 109.16 30.1716 109.16C29.7023 109.16 29.265 109.08 28.8596 108.92C28.4543 108.76 28.129 108.52 27.8836 108.2C27.649 107.869 27.5316 107.464 27.5316 106.984C27.5316 106.387 27.729 105.896 28.1236 105.512C28.529 105.117 29.089 104.851 29.8036 104.712L32.9716 104.088V105.144L30.3956 105.672C29.873 105.779 29.4836 105.928 29.2276 106.12C28.9716 106.312 28.8436 106.579 28.8436 106.92C28.8436 107.251 28.9716 107.523 29.2276 107.736C29.4943 107.939 29.8676 108.04 30.3476 108.04C30.657 108.04 30.9503 108.003 31.2276 107.928C31.5156 107.843 31.7716 107.72 31.9956 107.56C32.2196 107.389 32.3956 107.181 32.5236 106.936C32.6516 106.68 32.7156 106.381 32.7156 106.04V103.832ZM37.8421 97.32V106.968C37.8421 107.373 37.9168 107.656 38.0661 107.816C38.2155 107.965 38.4555 108.04 38.7861 108.04C38.9995 108.04 39.1755 108.024 39.3141 107.992C39.4528 107.96 39.6395 107.901 39.8741 107.816L39.6661 108.936C39.4955 109.011 39.3088 109.064 39.1061 109.096C38.9035 109.139 38.6955 109.16 38.4821 109.16C37.8315 109.16 37.3461 108.984 37.0261 108.632C36.7168 108.28 36.5621 107.741 36.5621 107.016V97.32H37.8421ZM41.6767 99.464C41.3887 99.464 41.1541 99.3787 40.9727 99.208C40.8021 99.0267 40.7168 98.792 40.7168 98.504C40.7168 98.216 40.8021 97.9867 40.9727 97.816C41.1541 97.6347 41.3887 97.544 41.6767 97.544C41.9648 97.544 42.1941 97.6347 42.3648 97.816C42.5461 97.9867 42.6367 98.216 42.6367 98.504C42.6367 98.792 42.5461 99.0267 42.3648 99.208C42.1941 99.3787 41.9648 99.464 41.6767 99.464ZM42.3168 101V109H41.0367V101H42.3168ZM44.2308 109V108.024L48.4228 103.112L49.4308 102.072L48.0068 102.104H44.2788V101H50.8548V101.976L46.6628 106.888L45.6708 107.928L47.2228 107.896H50.9828V109H44.2308ZM57.5456 103.832C57.5456 103.235 57.3856 102.776 57.0656 102.456C56.7456 102.125 56.2923 101.96 55.7056 101.96C55.151 101.96 54.6816 102.083 54.2976 102.328C53.9136 102.563 53.631 102.947 53.4496 103.48L52.4096 102.84C52.623 102.243 53.0176 101.763 53.5936 101.4C54.1696 101.027 54.8843 100.84 55.7376 100.84C56.3136 100.84 56.8363 100.941 57.3056 101.144C57.775 101.336 58.143 101.635 58.4096 102.04C58.687 102.435 58.8256 102.947 58.8256 103.576V107.448C58.8256 107.832 59.0283 108.024 59.4336 108.024C59.6363 108.024 59.8336 107.997 60.0256 107.944L59.9616 108.952C59.7483 109.059 59.471 109.112 59.1296 109.112C58.8203 109.112 58.543 109.053 58.2976 108.936C58.0523 108.819 57.8603 108.643 57.7216 108.408C57.583 108.163 57.5136 107.859 57.5136 107.496V107.336L57.8336 107.384C57.7056 107.8 57.487 108.141 57.1776 108.408C56.8683 108.664 56.5216 108.856 56.1376 108.984C55.7536 109.101 55.375 109.16 55.0016 109.16C54.5323 109.16 54.095 109.08 53.6896 108.92C53.2843 108.76 52.959 108.52 52.7136 108.2C52.479 107.869 52.3616 107.464 52.3616 106.984C52.3616 106.387 52.559 105.896 52.9536 105.512C53.359 105.117 53.919 104.851 54.6336 104.712L57.8016 104.088V105.144L55.2256 105.672C54.703 105.779 54.3136 105.928 54.0576 106.12C53.8016 106.312 53.6736 106.579 53.6736 106.92C53.6736 107.251 53.8016 107.523 54.0576 107.736C54.3243 107.939 54.6976 108.04 55.1776 108.04C55.487 108.04 55.7803 108.003 56.0576 107.928C56.3456 107.843 56.6016 107.72 56.8256 107.56C57.0496 107.389 57.2256 107.181 57.3536 106.936C57.4816 106.68 57.5456 106.381 57.5456 106.04V103.832ZM64.5761 109.16C63.9148 109.16 63.3068 108.995 62.7521 108.664C62.1975 108.333 61.7548 107.859 61.4241 107.24C61.0935 106.611 60.9281 105.864 60.9281 105C60.9281 104.115 61.1041 103.363 61.4561 102.744C61.8081 102.125 62.2721 101.656 62.8481 101.336C63.4241 101.005 64.0428 100.84 64.7041 100.84C65.3655 100.84 65.9361 101.011 66.4161 101.352C66.9068 101.693 67.2321 102.147 67.3921 102.712L67.2321 102.824V97.32H68.5121V109H67.3921L67.2801 107.064L67.4561 106.968C67.3815 107.437 67.2001 107.837 66.9121 108.168C66.6348 108.488 66.2881 108.733 65.8721 108.904C65.4668 109.075 65.0348 109.16 64.5761 109.16ZM64.7041 108.04C65.2161 108.04 65.6588 107.912 66.0321 107.656C66.4161 107.4 66.7095 107.037 66.9121 106.568C67.1255 106.088 67.2321 105.528 67.2321 104.888C67.2321 104.28 67.1255 103.757 66.9121 103.32C66.7095 102.883 66.4215 102.547 66.0481 102.312C65.6855 102.077 65.2588 101.96 64.7681 101.96C63.9575 101.96 63.3281 102.237 62.8801 102.792C62.4321 103.347 62.2081 104.083 62.2081 105C62.2081 105.917 62.4268 106.653 62.8641 107.208C63.3015 107.763 63.9148 108.04 64.7041 108.04ZM74.3194 100.84C75.0767 100.84 75.7434 101.005 76.3194 101.336C76.906 101.667 77.3647 102.147 77.6954 102.776C78.026 103.395 78.1914 104.136 78.1914 105C78.1914 105.864 78.026 106.611 77.6954 107.24C77.3647 107.859 76.906 108.333 76.3194 108.664C75.7434 108.995 75.0767 109.16 74.3194 109.16C73.5727 109.16 72.906 108.995 72.3194 108.664C71.7327 108.333 71.274 107.859 70.9434 107.24C70.6127 106.611 70.4474 105.864 70.4474 105C70.4474 104.136 70.6127 103.395 70.9434 102.776C71.274 102.147 71.7327 101.667 72.3194 101.336C72.906 101.005 73.5727 100.84 74.3194 100.84ZM74.3194 101.944C73.7754 101.944 73.3114 102.067 72.9274 102.312C72.5434 102.557 72.2447 102.909 72.0314 103.368C71.8287 103.816 71.7274 104.36 71.7274 105C71.7274 105.629 71.8287 106.173 72.0314 106.632C72.2447 107.091 72.5434 107.443 72.9274 107.688C73.3114 107.933 73.7754 108.056 74.3194 108.056C74.8634 108.056 75.3274 107.933 75.7114 107.688C76.0954 107.443 76.3887 107.091 76.5914 106.632C76.8047 106.173 76.9114 105.629 76.9114 105C76.9114 104.36 76.8047 103.816 76.5914 103.368C76.3887 102.909 76.0954 102.557 75.7114 102.312C75.3274 102.067 74.8634 101.944 74.3194 101.944ZM88.4382 109.16C87.6809 109.16 87.0036 108.995 86.4062 108.664C85.8196 108.333 85.3609 107.859 85.0302 107.24C84.6996 106.611 84.5342 105.864 84.5342 105C84.5342 104.136 84.6996 103.395 85.0302 102.776C85.3609 102.147 85.8142 101.667 86.3902 101.336C86.9662 101.005 87.6222 100.84 88.3582 100.84C89.1049 100.84 89.7396 101 90.2622 101.32C90.7956 101.64 91.2009 102.077 91.4782 102.632C91.7556 103.176 91.8942 103.789 91.8942 104.472C91.8942 104.653 91.8889 104.819 91.8782 104.968C91.8676 105.117 91.8516 105.251 91.8302 105.368H85.3662V104.232H91.2702L90.6142 104.36C90.6142 103.592 90.4009 103 89.9742 102.584C89.5582 102.168 89.0089 101.96 88.3262 101.96C87.8036 101.96 87.3502 102.083 86.9662 102.328C86.5929 102.563 86.2996 102.909 86.0862 103.368C85.8836 103.816 85.7822 104.36 85.7822 105C85.7822 105.629 85.8889 106.173 86.1022 106.632C86.3156 107.091 86.6142 107.443 86.9982 107.688C87.3929 107.923 87.8622 108.04 88.4062 108.04C88.9929 108.04 89.4676 107.928 89.8302 107.704C90.2036 107.48 90.5022 107.176 90.7262 106.792L91.7342 107.384C91.5316 107.747 91.2702 108.061 90.9502 108.328C90.6409 108.595 90.2729 108.803 89.8462 108.952C89.4302 109.091 88.9609 109.16 88.4382 109.16ZM93.8486 109V101H94.9686L95.0486 102.248C95.3366 101.757 95.71 101.4 96.1686 101.176C96.638 100.952 97.118 100.84 97.6086 100.84C98.174 100.84 98.7073 100.968 99.2086 101.224C99.71 101.48 100.094 101.875 100.361 102.408C100.531 102.045 100.771 101.752 101.081 101.528C101.39 101.293 101.726 101.123 102.089 101.016C102.462 100.899 102.814 100.84 103.145 100.84C103.657 100.84 104.142 100.947 104.601 101.16C105.07 101.373 105.454 101.704 105.753 102.152C106.051 102.6 106.201 103.176 106.201 103.88V109H104.921V104.008C104.921 103.283 104.739 102.76 104.377 102.44C104.014 102.12 103.566 101.96 103.033 101.96C102.617 101.96 102.227 102.061 101.865 102.264C101.502 102.467 101.209 102.765 100.985 103.16C100.771 103.555 100.665 104.04 100.665 104.616V109H99.3846V104.008C99.3846 103.283 99.2033 102.76 98.8406 102.44C98.478 102.12 98.03 101.96 97.4966 101.96C97.1446 101.96 96.782 102.056 96.4086 102.248C96.046 102.429 95.742 102.723 95.4966 103.128C95.2513 103.533 95.1286 104.067 95.1286 104.728V109H93.8486ZM113.288 109V107.96C114.344 107.181 115.224 106.499 115.928 105.912C116.642 105.325 117.213 104.792 117.64 104.312C118.066 103.832 118.37 103.379 118.552 102.952C118.733 102.515 118.824 102.061 118.824 101.592C118.824 100.963 118.621 100.456 118.216 100.072C117.821 99.6773 117.277 99.48 116.584 99.48C115.858 99.48 115.277 99.72 114.84 100.2C114.402 100.669 114.146 101.299 114.072 102.088L112.952 101.416C113.048 100.797 113.245 100.253 113.544 99.784C113.853 99.3147 114.264 98.9467 114.776 98.68C115.298 98.4133 115.917 98.28 116.632 98.28C117.176 98.28 117.661 98.36 118.088 98.52C118.525 98.68 118.898 98.9093 119.208 99.208C119.517 99.496 119.752 99.8427 119.912 100.248C120.082 100.653 120.168 101.101 120.168 101.592C120.168 102.253 120.008 102.904 119.688 103.544C119.368 104.173 118.84 104.835 118.104 105.528C117.368 106.221 116.37 106.989 115.112 107.832V107.848C115.229 107.837 115.389 107.832 115.592 107.832C115.805 107.821 116.013 107.816 116.216 107.816C116.429 107.805 116.589 107.8 116.696 107.8H120.392V109H113.288ZM125.928 109.16C124.733 109.16 123.779 108.696 123.064 107.768C122.349 106.84 121.992 105.491 121.992 103.72C121.992 101.949 122.349 100.6 123.064 99.672C123.779 98.744 124.733 98.28 125.928 98.28C127.133 98.28 128.088 98.744 128.792 99.672C129.507 100.6 129.864 101.949 129.864 103.72C129.864 105.491 129.507 106.84 128.792 107.768C128.088 108.696 127.133 109.16 125.928 109.16ZM125.928 108.008C126.493 108.008 126.968 107.848 127.352 107.528C127.747 107.197 128.04 106.712 128.232 106.072C128.435 105.432 128.536 104.648 128.536 103.72C128.536 102.792 128.435 102.008 128.232 101.368C128.04 100.728 127.747 100.248 127.352 99.928C126.968 99.5973 126.493 99.432 125.928 99.432C125.363 99.432 124.883 99.5973 124.488 99.928C124.104 100.248 123.811 100.728 123.608 101.368C123.416 102.008 123.32 102.792 123.32 103.72C123.32 104.648 123.416 105.432 123.608 106.072C123.811 106.712 124.104 107.197 124.488 107.528C124.883 107.848 125.363 108.008 125.928 108.008ZM133.753 109V101.256C133.753 101.075 133.753 100.883 133.753 100.68C133.764 100.467 133.774 100.248 133.785 100.024C133.422 100.376 133.001 100.685 132.521 100.952C132.041 101.208 131.55 101.395 131.049 101.512L130.713 100.344C130.905 100.323 131.145 100.253 131.433 100.136C131.732 100.008 132.041 99.8533 132.361 99.672C132.692 99.48 132.996 99.2773 133.273 99.064C133.55 98.8507 133.764 98.6427 133.913 98.44H135.033V109H133.753ZM140.931 98.28C141.817 98.28 142.563 98.5147 143.171 98.984C143.779 99.4427 144.238 100.083 144.547 100.904C144.857 101.715 145.011 102.653 145.011 103.72C145.011 104.904 144.857 105.901 144.547 106.712C144.238 107.512 143.779 108.12 143.171 108.536C142.574 108.952 141.833 109.16 140.947 109.16C140.073 109.16 139.321 108.957 138.691 108.552C138.062 108.147 137.593 107.555 137.283 106.776L138.547 106.104C138.718 106.659 138.995 107.107 139.379 107.448C139.774 107.789 140.313 107.96 140.995 107.96C141.55 107.96 142.009 107.853 142.371 107.64C142.745 107.416 143.038 107.101 143.251 106.696C143.465 106.28 143.614 105.784 143.699 105.208C143.795 104.632 143.843 103.992 143.843 103.288C143.843 103.267 143.843 103.245 143.843 103.224C143.843 103.192 143.843 103.165 143.843 103.144H143.779C143.651 103.624 143.427 104.013 143.107 104.312C142.787 104.6 142.425 104.808 142.019 104.936C141.625 105.064 141.23 105.128 140.835 105.128C140.142 105.128 139.529 104.995 138.995 104.728C138.462 104.451 138.046 104.067 137.747 103.576C137.449 103.085 137.299 102.504 137.299 101.832C137.299 101.107 137.443 100.483 137.731 99.96C138.019 99.4267 138.435 99.016 138.979 98.728C139.523 98.4293 140.174 98.28 140.931 98.28ZM140.947 99.512C140.201 99.512 139.63 99.72 139.235 100.136C138.841 100.541 138.643 101.112 138.643 101.848C138.643 102.477 138.851 102.979 139.267 103.352C139.683 103.715 140.243 103.896 140.947 103.896C141.406 103.896 141.806 103.805 142.147 103.624C142.499 103.432 142.771 103.176 142.963 102.856C143.155 102.525 143.251 102.147 143.251 101.72C143.251 101.272 143.155 100.883 142.963 100.552C142.771 100.221 142.499 99.9653 142.147 99.784C141.806 99.6027 141.406 99.512 140.947 99.512ZM156.708 103.832C156.708 103.235 156.548 102.776 156.228 102.456C155.908 102.125 155.454 101.96 154.868 101.96C154.313 101.96 153.844 102.083 153.46 102.328C153.076 102.563 152.793 102.947 152.612 103.48L151.572 102.84C151.785 102.243 152.18 101.763 152.756 101.4C153.332 101.027 154.046 100.84 154.9 100.84C155.476 100.84 155.998 100.941 156.468 101.144C156.937 101.336 157.305 101.635 157.572 102.04C157.849 102.435 157.988 102.947 157.988 103.576V107.448C157.988 107.832 158.19 108.024 158.596 108.024C158.798 108.024 158.996 107.997 159.188 107.944L159.124 108.952C158.91 109.059 158.633 109.112 158.292 109.112C157.982 109.112 157.705 109.053 157.46 108.936C157.214 108.819 157.022 108.643 156.884 108.408C156.745 108.163 156.676 107.859 156.676 107.496V107.336L156.996 107.384C156.868 107.8 156.649 108.141 156.34 108.408C156.03 108.664 155.684 108.856 155.3 108.984C154.916 109.101 154.537 109.16 154.164 109.16C153.694 109.16 153.257 109.08 152.852 108.92C152.446 108.76 152.121 108.52 151.876 108.2C151.641 107.869 151.524 107.464 151.524 106.984C151.524 106.387 151.721 105.896 152.116 105.512C152.521 105.117 153.081 104.851 153.796 104.712L156.964 104.088V105.144L154.388 105.672C153.865 105.779 153.476 105.928 153.22 106.12C152.964 106.312 152.836 106.579 152.836 106.92C152.836 107.251 152.964 107.523 153.22 107.736C153.486 107.939 153.86 108.04 154.34 108.04C154.649 108.04 154.942 108.003 155.22 107.928C155.508 107.843 155.764 107.72 155.988 107.56C156.212 107.389 156.388 107.181 156.516 106.936C156.644 106.68 156.708 106.381 156.708 106.04V103.832ZM166.792 98.728V106.792C166.792 107.187 166.904 107.48 167.128 107.672C167.352 107.864 167.64 107.96 167.992 107.96C168.301 107.96 168.568 107.907 168.792 107.8C169.016 107.693 169.218 107.549 169.4 107.368L169.848 108.44C169.602 108.664 169.309 108.84 168.968 108.968C168.637 109.096 168.253 109.16 167.816 109.16C167.41 109.16 167.032 109.091 166.68 108.952C166.328 108.803 166.045 108.573 165.832 108.264C165.629 107.944 165.522 107.528 165.512 107.016V99.08L166.792 98.728ZM169.704 101V102.104H163.912V101H169.704ZM175.799 103.832C175.799 103.235 175.639 102.776 175.319 102.456C174.999 102.125 174.545 101.96 173.959 101.96C173.404 101.96 172.935 102.083 172.551 102.328C172.167 102.563 171.884 102.947 171.703 103.48L170.663 102.84C170.876 102.243 171.271 101.763 171.847 101.4C172.423 101.027 173.137 100.84 173.991 100.84C174.567 100.84 175.089 100.941 175.559 101.144C176.028 101.336 176.396 101.635 176.663 102.04C176.94 102.435 177.079 102.947 177.079 103.576V107.448C177.079 107.832 177.281 108.024 177.687 108.024C177.889 108.024 178.087 107.997 178.279 107.944L178.215 108.952C178.001 109.059 177.724 109.112 177.383 109.112C177.073 109.112 176.796 109.053 176.551 108.936C176.305 108.819 176.113 108.643 175.975 108.408C175.836 108.163 175.767 107.859 175.767 107.496V107.336L176.087 107.384C175.959 107.8 175.74 108.141 175.431 108.408C175.121 108.664 174.775 108.856 174.391 108.984C174.007 109.101 173.628 109.16 173.255 109.16C172.785 109.16 172.348 109.08 171.943 108.92C171.537 108.76 171.212 108.52 170.967 108.2C170.732 107.869 170.615 107.464 170.615 106.984C170.615 106.387 170.812 105.896 171.207 105.512C171.612 105.117 172.172 104.851 172.887 104.712L176.055 104.088V105.144L173.479 105.672C172.956 105.779 172.567 105.928 172.311 106.12C172.055 106.312 171.927 106.579 171.927 106.92C171.927 107.251 172.055 107.523 172.311 107.736C172.577 107.939 172.951 108.04 173.431 108.04C173.74 108.04 174.033 108.003 174.311 107.928C174.599 107.843 174.855 107.72 175.079 107.56C175.303 107.389 175.479 107.181 175.607 106.936C175.735 106.68 175.799 106.381 175.799 106.04V103.832ZM180.477 101L182.861 104.344L182.941 104.456L186.221 109H184.653L182.173 105.528L182.029 105.352L178.877 101H180.477ZM186.173 101L183.005 105.272H182.925L180.173 109H178.685L182.173 104.408H182.269L184.669 101H186.173ZM192.261 103.832C192.261 103.235 192.101 102.776 191.781 102.456C191.461 102.125 191.007 101.96 190.421 101.96C189.866 101.96 189.397 102.083 189.013 102.328C188.629 102.563 188.346 102.947 188.165 103.48L187.125 102.84C187.338 102.243 187.733 101.763 188.309 101.4C188.885 101.027 189.599 100.84 190.453 100.84C191.029 100.84 191.551 100.941 192.021 101.144C192.49 101.336 192.858 101.635 193.125 102.04C193.402 102.435 193.541 102.947 193.541 103.576V107.448C193.541 107.832 193.743 108.024 194.149 108.024C194.351 108.024 194.549 107.997 194.741 107.944L194.677 108.952C194.463 109.059 194.186 109.112 193.845 109.112C193.535 109.112 193.258 109.053 193.013 108.936C192.767 108.819 192.575 108.643 192.437 108.408C192.298 108.163 192.229 107.859 192.229 107.496V107.336L192.549 107.384C192.421 107.8 192.202 108.141 191.893 108.408C191.583 108.664 191.237 108.856 190.853 108.984C190.469 109.101 190.09 109.16 189.717 109.16C189.247 109.16 188.81 109.08 188.405 108.92C187.999 108.76 187.674 108.52 187.429 108.2C187.194 107.869 187.077 107.464 187.077 106.984C187.077 106.387 187.274 105.896 187.669 105.512C188.074 105.117 188.634 104.851 189.349 104.712L192.517 104.088V105.144L189.941 105.672C189.418 105.779 189.029 105.928 188.773 106.12C188.517 106.312 188.389 106.579 188.389 106.92C188.389 107.251 188.517 107.523 188.773 107.736C189.039 107.939 189.413 108.04 189.893 108.04C190.202 108.04 190.495 108.003 190.773 107.928C191.061 107.843 191.317 107.72 191.541 107.56C191.765 107.389 191.941 107.181 192.069 106.936C192.197 106.68 192.261 106.381 192.261 106.04V103.832ZM16.608 128.16C15.9467 128.16 15.3387 127.995 14.784 127.664C14.2293 127.333 13.7867 126.859 13.456 126.24C13.1253 125.611 12.96 124.864 12.96 124C12.96 123.115 13.136 122.363 13.488 121.744C13.84 121.125 14.304 120.656 14.88 120.336C15.456 120.005 16.0747 119.84 16.736 119.84C17.3973 119.84 17.968 120.011 18.448 120.352C18.9387 120.693 19.264 121.147 19.424 121.712L19.264 121.824V116.32H20.544V128H19.424L19.312 126.064L19.488 125.968C19.4133 126.437 19.232 126.837 18.944 127.168C18.6667 127.488 18.32 127.733 17.904 127.904C17.4987 128.075 17.0667 128.16 16.608 128.16ZM16.736 127.04C17.248 127.04 17.6907 126.912 18.064 126.656C18.448 126.4 18.7413 126.037 18.944 125.568C19.1573 125.088 19.264 124.528 19.264 123.888C19.264 123.28 19.1573 122.757 18.944 122.32C18.7413 121.883 18.4533 121.547 18.08 121.312C17.7173 121.077 17.2907 120.96 16.8 120.96C15.9893 120.96 15.36 121.237 14.912 121.792C14.464 122.347 14.24 123.083 14.24 124C14.24 124.917 14.4587 125.653 14.896 126.208C15.3333 126.763 15.9467 127.04 16.736 127.04ZM26.3833 128.16C25.6259 128.16 24.9486 127.995 24.3513 127.664C23.7646 127.333 23.3059 126.859 22.9753 126.24C22.6446 125.611 22.4793 124.864 22.4793 124C22.4793 123.136 22.6446 122.395 22.9753 121.776C23.3059 121.147 23.7593 120.667 24.3353 120.336C24.9113 120.005 25.5673 119.84 26.3033 119.84C27.0499 119.84 27.6846 120 28.2073 120.32C28.7406 120.64 29.1459 121.077 29.4233 121.632C29.7006 122.176 29.8393 122.789 29.8393 123.472C29.8393 123.653 29.8339 123.819 29.8233 123.968C29.8126 124.117 29.7966 124.251 29.7753 124.368H23.3113V123.232H29.2153L28.5593 123.36C28.5593 122.592 28.3459 122 27.9193 121.584C27.5033 121.168 26.9539 120.96 26.2713 120.96C25.7486 120.96 25.2953 121.083 24.9113 121.328C24.5379 121.563 24.2446 121.909 24.0313 122.368C23.8286 122.816 23.7273 123.36 23.7273 124C23.7273 124.629 23.8339 125.173 24.0473 125.632C24.2606 126.091 24.5593 126.443 24.9433 126.688C25.3379 126.923 25.8073 127.04 26.3513 127.04C26.9379 127.04 27.4126 126.928 27.7753 126.704C28.1486 126.48 28.4473 126.176 28.6713 125.792L29.6793 126.384C29.4766 126.747 29.2153 127.061 28.8953 127.328C28.5859 127.595 28.2179 127.803 27.7913 127.952C27.3753 128.091 26.9059 128.16 26.3833 128.16ZM39.8867 128.16C39.2254 128.16 38.6174 127.995 38.0627 127.664C37.5081 127.333 37.0654 126.859 36.7347 126.24C36.4041 125.611 36.2387 124.864 36.2387 124C36.2387 123.115 36.4147 122.363 36.7667 121.744C37.1187 121.125 37.5827 120.656 38.1587 120.336C38.7347 120.005 39.3534 119.84 40.0147 119.84C40.6761 119.84 41.2467 120.011 41.7267 120.352C42.2174 120.693 42.5427 121.147 42.7027 121.712L42.5427 121.824V116.32H43.8228V128H42.7027L42.5907 126.064L42.7667 125.968C42.6921 126.437 42.5107 126.837 42.2227 127.168C41.9454 127.488 41.5987 127.733 41.1827 127.904C40.7774 128.075 40.3454 128.16 39.8867 128.16ZM40.0147 127.04C40.5267 127.04 40.9694 126.912 41.3427 126.656C41.7267 126.4 42.0201 126.037 42.2227 125.568C42.4361 125.088 42.5427 124.528 42.5427 123.888C42.5427 123.28 42.4361 122.757 42.2227 122.32C42.0201 121.883 41.7321 121.547 41.3587 121.312C40.9961 121.077 40.5694 120.96 40.0787 120.96C39.2681 120.96 38.6387 121.237 38.1907 121.792C37.7427 122.347 37.5187 123.083 37.5187 124C37.5187 124.917 37.7374 125.653 38.1747 126.208C38.6121 126.763 39.2254 127.04 40.0147 127.04ZM49.662 128.16C48.9047 128.16 48.2273 127.995 47.63 127.664C47.0433 127.333 46.5847 126.859 46.254 126.24C45.9233 125.611 45.758 124.864 45.758 124C45.758 123.136 45.9233 122.395 46.254 121.776C46.5847 121.147 47.038 120.667 47.614 120.336C48.19 120.005 48.846 119.84 49.582 119.84C50.3287 119.84 50.9633 120 51.486 120.32C52.0193 120.64 52.4247 121.077 52.702 121.632C52.9793 122.176 53.118 122.789 53.118 123.472C53.118 123.653 53.1127 123.819 53.102 123.968C53.0913 124.117 53.0753 124.251 53.054 124.368H46.59V123.232H52.494L51.838 123.36C51.838 122.592 51.6247 122 51.198 121.584C50.782 121.168 50.2327 120.96 49.55 120.96C49.0273 120.96 48.574 121.083 48.19 121.328C47.8167 121.563 47.5233 121.909 47.31 122.368C47.1073 122.816 47.006 123.36 47.006 124C47.006 124.629 47.1127 125.173 47.326 125.632C47.5393 126.091 47.838 126.443 48.222 126.688C48.6167 126.923 49.086 127.04 49.63 127.04C50.2167 127.04 50.6913 126.928 51.054 126.704C51.4273 126.48 51.726 126.176 51.95 125.792L52.958 126.384C52.7553 126.747 52.494 127.061 52.174 127.328C51.8647 127.595 51.4967 127.803 51.07 127.952C50.654 128.091 50.1847 128.16 49.662 128.16ZM57.9524 128.16C57.1737 128.16 56.4537 127.995 55.7924 127.664C55.1417 127.333 54.6404 126.864 54.2884 126.256L55.3764 125.472C55.611 125.963 55.9524 126.347 56.4004 126.624C56.859 126.901 57.4084 127.04 58.0484 127.04C58.6137 127.04 59.0564 126.933 59.3764 126.72C59.6964 126.496 59.8564 126.208 59.8564 125.856C59.8564 125.632 59.7817 125.429 59.6324 125.248C59.4937 125.056 59.2217 124.917 58.8164 124.832L56.8964 124.432C56.1177 124.272 55.5577 124.005 55.2164 123.632C54.8857 123.259 54.7204 122.795 54.7204 122.24C54.7204 121.803 54.843 121.403 55.0884 121.04C55.3444 120.677 55.7017 120.389 56.1604 120.176C56.6297 119.952 57.179 119.84 57.8084 119.84C58.5977 119.84 59.2644 119.995 59.8084 120.304C60.3524 120.613 60.7577 121.051 61.0244 121.616L59.9524 122.32C59.771 121.851 59.4777 121.509 59.0724 121.296C58.667 121.072 58.2457 120.96 57.8084 120.96C57.4244 120.96 57.0937 121.013 56.8164 121.12C56.5497 121.227 56.3417 121.376 56.1924 121.568C56.0537 121.749 55.9844 121.957 55.9844 122.192C55.9844 122.427 56.0644 122.645 56.2244 122.848C56.3844 123.04 56.683 123.179 57.1204 123.264L59.1204 123.68C59.867 123.829 60.3897 124.075 60.6884 124.416C60.987 124.757 61.1364 125.173 61.1364 125.664C61.1364 126.165 61.003 126.608 60.7364 126.992C60.4697 127.365 60.0964 127.653 59.6164 127.856C59.1364 128.059 58.5817 128.16 57.9524 128.16ZM66.3739 128.16C65.6165 128.16 64.9392 127.995 64.3419 127.664C63.7552 127.333 63.2965 126.859 62.9659 126.24C62.6352 125.611 62.4699 124.864 62.4699 124C62.4699 123.136 62.6352 122.395 62.9659 121.776C63.2965 121.147 63.7499 120.667 64.3259 120.336C64.9019 120.005 65.5579 119.84 66.2939 119.84C67.0405 119.84 67.6752 120 68.1979 120.32C68.7312 120.64 69.1365 121.077 69.4139 121.632C69.6912 122.176 69.8299 122.789 69.8299 123.472C69.8299 123.653 69.8245 123.819 69.8139 123.968C69.8032 124.117 69.7872 124.251 69.7659 124.368H63.3019V123.232H69.2059L68.5499 123.36C68.5499 122.592 68.3365 122 67.9099 121.584C67.4939 121.168 66.9445 120.96 66.2619 120.96C65.7392 120.96 65.2859 121.083 64.9019 121.328C64.5285 121.563 64.2352 121.909 64.0219 122.368C63.8192 122.816 63.7179 123.36 63.7179 124C63.7179 124.629 63.8245 125.173 64.0379 125.632C64.2512 126.091 64.5499 126.443 64.9339 126.688C65.3285 126.923 65.7979 127.04 66.3419 127.04C66.9285 127.04 67.4032 126.928 67.7659 126.704C68.1392 126.48 68.4379 126.176 68.6619 125.792L69.6699 126.384C69.4672 126.747 69.2059 127.061 68.8859 127.328C68.5765 127.595 68.2085 127.803 67.7819 127.952C67.3659 128.091 66.8965 128.16 66.3739 128.16ZM71.7842 128V120H72.9042L72.9842 121.248C73.2722 120.757 73.6456 120.4 74.1042 120.176C74.5736 119.952 75.0536 119.84 75.5442 119.84C76.1096 119.84 76.6429 119.968 77.1442 120.224C77.6456 120.48 78.0296 120.875 78.2962 121.408C78.4669 121.045 78.7069 120.752 79.0162 120.528C79.3256 120.293 79.6616 120.123 80.0243 120.016C80.3976 119.899 80.7496 119.84 81.0802 119.84C81.5923 119.84 82.0776 119.947 82.5363 120.16C83.0056 120.373 83.3896 120.704 83.6882 121.152C83.9869 121.6 84.1363 122.176 84.1363 122.88V128H82.8562V123.008C82.8562 122.283 82.6749 121.76 82.3123 121.44C81.9496 121.12 81.5016 120.96 80.9683 120.96C80.5522 120.96 80.1629 121.061 79.8003 121.264C79.4376 121.467 79.1442 121.765 78.9202 122.16C78.7069 122.555 78.6003 123.04 78.6003 123.616V128H77.3202V123.008C77.3202 122.283 77.1389 121.76 76.7762 121.44C76.4136 121.12 75.9656 120.96 75.4322 120.96C75.0802 120.96 74.7176 121.056 74.3442 121.248C73.9816 121.429 73.6776 121.723 73.4322 122.128C73.1869 122.533 73.0642 123.067 73.0642 123.728V128H71.7842ZM86.5543 131.36V120H87.6743L87.7863 121.952L87.6103 121.728C87.7489 121.355 87.9569 121.029 88.2343 120.752C88.5116 120.464 88.8476 120.24 89.2423 120.08C89.6369 119.92 90.0636 119.84 90.5223 119.84C91.1729 119.84 91.7703 120.005 92.3143 120.336C92.8689 120.667 93.3116 121.141 93.6423 121.76C93.9729 122.379 94.1383 123.125 94.1383 124C94.1383 124.864 93.9676 125.611 93.6263 126.24C93.2956 126.859 92.8529 127.333 92.2983 127.664C91.7436 127.995 91.1356 128.16 90.4743 128.16C89.8129 128.16 89.2316 128 88.7303 127.68C88.2396 127.349 87.8876 126.933 87.6743 126.432L87.8343 126.192V131.36H86.5543ZM90.3463 127.04C91.1356 127.04 91.7489 126.763 92.1863 126.208C92.6343 125.653 92.8583 124.917 92.8583 124C92.8583 123.083 92.6396 122.347 92.2023 121.792C91.7756 121.237 91.1729 120.96 90.3943 120.96C89.8823 120.96 89.4343 121.088 89.0503 121.344C88.6663 121.589 88.3676 121.941 88.1543 122.4C87.9409 122.848 87.8343 123.381 87.8343 124C87.8343 124.608 87.9356 125.141 88.1383 125.6C88.3516 126.059 88.6449 126.416 89.0183 126.672C89.4023 126.917 89.8449 127.04 90.3463 127.04ZM96.1055 128V120H97.1455L97.3215 121.312C97.5455 120.821 97.8708 120.453 98.2975 120.208C98.7348 119.963 99.2628 119.84 99.8815 119.84C100.02 119.84 100.17 119.851 100.33 119.872C100.5 119.893 100.644 119.936 100.762 120L100.538 121.168C100.42 121.125 100.292 121.093 100.154 121.072C100.015 121.051 99.8175 121.04 99.5615 121.04C99.2308 121.04 98.8948 121.136 98.5535 121.328C98.2228 121.52 97.9455 121.813 97.7215 122.208C97.4975 122.592 97.3855 123.083 97.3855 123.68V128H96.1055ZM105.251 128.16C104.493 128.16 103.816 127.995 103.219 127.664C102.632 127.333 102.173 126.859 101.843 126.24C101.512 125.611 101.347 124.864 101.347 124C101.347 123.136 101.512 122.395 101.843 121.776C102.173 121.147 102.627 120.667 103.203 120.336C103.779 120.005 104.435 119.84 105.171 119.84C105.917 119.84 106.552 120 107.075 120.32C107.608 120.64 108.013 121.077 108.291 121.632C108.568 122.176 108.707 122.789 108.707 123.472C108.707 123.653 108.701 123.819 108.691 123.968C108.68 124.117 108.664 124.251 108.643 124.368H102.179V123.232H108.083L107.427 123.36C107.427 122.592 107.213 122 106.787 121.584C106.371 121.168 105.821 120.96 105.139 120.96C104.616 120.96 104.163 121.083 103.779 121.328C103.405 121.563 103.112 121.909 102.899 122.368C102.696 122.816 102.595 123.36 102.595 124C102.595 124.629 102.701 125.173 102.915 125.632C103.128 126.091 103.427 126.443 103.811 126.688C104.205 126.923 104.675 127.04 105.219 127.04C105.805 127.04 106.28 126.928 106.643 126.704C107.016 126.48 107.315 126.176 107.539 125.792L108.547 126.384C108.344 126.747 108.083 127.061 107.763 127.328C107.453 127.595 107.085 127.803 106.659 127.952C106.243 128.091 105.773 128.16 105.251 128.16ZM117.397 118.528L117.685 119.664C117.674 119.664 117.658 119.664 117.637 119.664C117.616 119.664 117.594 119.664 117.573 119.664C117.05 119.664 116.645 119.771 116.357 119.984C116.08 120.187 115.941 120.517 115.941 120.976L115.157 120.576C115.157 120.16 115.253 119.797 115.445 119.488C115.637 119.179 115.898 118.944 116.229 118.784C116.56 118.613 116.922 118.528 117.317 118.528C117.328 118.528 117.338 118.528 117.349 118.528C117.37 118.528 117.386 118.528 117.397 118.528ZM114.965 126.976C115.722 126.976 116.314 127.152 116.741 127.504C117.168 127.845 117.381 128.304 117.381 128.88C117.381 129.403 117.205 129.856 116.853 130.24C116.512 130.624 116.048 130.917 115.461 131.12C114.885 131.333 114.234 131.44 113.509 131.44C112.25 131.44 111.306 131.227 110.677 130.8C110.058 130.373 109.749 129.861 109.749 129.264C109.749 128.837 109.888 128.453 110.165 128.112C110.453 127.781 110.933 127.595 111.605 127.552L111.493 127.792C111.13 127.696 110.821 127.536 110.565 127.312C110.32 127.077 110.197 126.741 110.197 126.304C110.197 125.867 110.357 125.493 110.677 125.184C111.008 124.864 111.493 124.667 112.133 124.592L112.981 125.024H112.821C112.298 125.077 111.925 125.211 111.701 125.424C111.488 125.627 111.381 125.851 111.381 126.096C111.381 126.395 111.488 126.619 111.701 126.768C111.925 126.907 112.234 126.976 112.629 126.976H114.965ZM113.493 130.368C114.112 130.368 114.618 130.304 115.013 130.176C115.418 130.048 115.717 129.883 115.909 129.68C116.101 129.477 116.197 129.259 116.197 129.024C116.197 128.736 116.08 128.507 115.845 128.336C115.621 128.165 115.21 128.08 114.613 128.08H112.149C111.808 128.08 111.52 128.165 111.285 128.336C111.05 128.517 110.933 128.763 110.933 129.072C110.933 129.467 111.157 129.781 111.605 130.016C112.064 130.251 112.693 130.368 113.493 130.368ZM113.381 119.84C114.021 119.84 114.586 119.957 115.077 120.192C115.578 120.416 115.968 120.731 116.245 121.136C116.522 121.541 116.661 122.011 116.661 122.544C116.661 123.067 116.522 123.536 116.245 123.952C115.968 124.357 115.578 124.677 115.077 124.912C114.586 125.136 114.021 125.248 113.381 125.248C112.325 125.248 111.514 124.997 110.949 124.496C110.384 123.984 110.101 123.333 110.101 122.544C110.101 122.011 110.24 121.541 110.517 121.136C110.805 120.731 111.194 120.416 111.685 120.192C112.176 119.957 112.741 119.84 113.381 119.84ZM113.381 120.88C112.826 120.88 112.362 121.035 111.989 121.344C111.616 121.643 111.429 122.043 111.429 122.544C111.429 123.035 111.616 123.435 111.989 123.744C112.362 124.053 112.826 124.208 113.381 124.208C113.936 124.208 114.4 124.053 114.773 123.744C115.146 123.435 115.333 123.035 115.333 122.544C115.333 122.043 115.146 121.643 114.773 121.344C114.4 121.035 113.936 120.88 113.381 120.88ZM122.009 119.84C122.766 119.84 123.433 120.005 124.009 120.336C124.595 120.667 125.054 121.147 125.385 121.776C125.715 122.395 125.881 123.136 125.881 124C125.881 124.864 125.715 125.611 125.385 126.24C125.054 126.859 124.595 127.333 124.009 127.664C123.433 127.995 122.766 128.16 122.009 128.16C121.262 128.16 120.595 127.995 120.009 127.664C119.422 127.333 118.963 126.859 118.633 126.24C118.302 125.611 118.137 124.864 118.137 124C118.137 123.136 118.302 122.395 118.633 121.776C118.963 121.147 119.422 120.667 120.009 120.336C120.595 120.005 121.262 119.84 122.009 119.84ZM122.009 120.944C121.465 120.944 121.001 121.067 120.617 121.312C120.233 121.557 119.934 121.909 119.721 122.368C119.518 122.816 119.417 123.36 119.417 124C119.417 124.629 119.518 125.173 119.721 125.632C119.934 126.091 120.233 126.443 120.617 126.688C121.001 126.933 121.465 127.056 122.009 127.056C122.553 127.056 123.017 126.933 123.401 126.688C123.785 126.443 124.078 126.091 124.281 125.632C124.494 125.173 124.601 124.629 124.601 124C124.601 123.36 124.494 122.816 124.281 122.368C124.078 121.909 123.785 121.557 123.401 121.312C123.017 121.067 122.553 120.944 122.009 120.944ZM135.735 116.24C136.012 116.24 136.273 116.272 136.519 116.336C136.764 116.4 136.956 116.491 137.095 116.608L136.759 117.648C136.631 117.563 136.492 117.504 136.343 117.472C136.193 117.429 136.028 117.408 135.847 117.408C135.388 117.408 135.031 117.52 134.775 117.744C134.519 117.957 134.391 118.304 134.391 118.784V120V120.416V128H133.111V118.656C133.111 118.304 133.164 117.979 133.271 117.68C133.377 117.381 133.537 117.125 133.751 116.912C133.975 116.699 134.252 116.533 134.583 116.416C134.913 116.299 135.297 116.24 135.735 116.24ZM137.063 120V121.104H131.511V120H137.063ZM141.381 119.84C142.139 119.84 142.805 120.005 143.381 120.336C143.968 120.667 144.427 121.147 144.757 121.776C145.088 122.395 145.253 123.136 145.253 124C145.253 124.864 145.088 125.611 144.757 126.24C144.427 126.859 143.968 127.333 143.381 127.664C142.805 127.995 142.139 128.16 141.381 128.16C140.635 128.16 139.968 127.995 139.381 127.664C138.795 127.333 138.336 126.859 138.005 126.24C137.675 125.611 137.509 124.864 137.509 124C137.509 123.136 137.675 122.395 138.005 121.776C138.336 121.147 138.795 120.667 139.381 120.336C139.968 120.005 140.635 119.84 141.381 119.84ZM141.381 120.944C140.837 120.944 140.373 121.067 139.989 121.312C139.605 121.557 139.307 121.909 139.093 122.368C138.891 122.816 138.789 123.36 138.789 124C138.789 124.629 138.891 125.173 139.093 125.632C139.307 126.091 139.605 126.443 139.989 126.688C140.373 126.933 140.837 127.056 141.381 127.056C141.925 127.056 142.389 126.933 142.773 126.688C143.157 126.443 143.451 126.091 143.653 125.632C143.867 125.173 143.973 124.629 143.973 124C143.973 123.36 143.867 122.816 143.653 122.368C143.451 121.909 143.157 121.557 142.773 121.312C142.389 121.067 141.925 120.944 141.381 120.944ZM147.823 118.464C147.535 118.464 147.3 118.379 147.119 118.208C146.948 118.027 146.863 117.792 146.863 117.504C146.863 117.216 146.948 116.987 147.119 116.816C147.3 116.635 147.535 116.544 147.823 116.544C148.111 116.544 148.34 116.635 148.511 116.816C148.692 116.987 148.783 117.216 148.783 117.504C148.783 117.792 148.692 118.027 148.511 118.208C148.34 118.379 148.111 118.464 147.823 118.464ZM148.463 120V128H147.183V120H148.463ZM159.046 128.16C158.385 128.16 157.777 127.995 157.222 127.664C156.667 127.333 156.225 126.859 155.894 126.24C155.563 125.611 155.398 124.864 155.398 124C155.398 123.115 155.574 122.363 155.926 121.744C156.278 121.125 156.742 120.656 157.318 120.336C157.894 120.005 158.513 119.84 159.174 119.84C159.835 119.84 160.406 120.011 160.886 120.352C161.377 120.693 161.702 121.147 161.862 121.712L161.702 121.824V116.32H162.982V128H161.862L161.75 126.064L161.926 125.968C161.851 126.437 161.67 126.837 161.382 127.168C161.105 127.488 160.758 127.733 160.342 127.904C159.937 128.075 159.505 128.16 159.046 128.16ZM159.174 127.04C159.686 127.04 160.129 126.912 160.502 126.656C160.886 126.4 161.179 126.037 161.382 125.568C161.595 125.088 161.702 124.528 161.702 123.888C161.702 123.28 161.595 122.757 161.382 122.32C161.179 121.883 160.891 121.547 160.518 121.312C160.155 121.077 159.729 120.96 159.238 120.96C158.427 120.96 157.798 121.237 157.35 121.792C156.902 122.347 156.678 123.083 156.678 124C156.678 124.917 156.897 125.653 157.334 126.208C157.771 126.763 158.385 127.04 159.174 127.04ZM168.821 128.16C168.064 128.16 167.387 127.995 166.789 127.664C166.203 127.333 165.744 126.859 165.413 126.24C165.083 125.611 164.917 124.864 164.917 124C164.917 123.136 165.083 122.395 165.413 121.776C165.744 121.147 166.197 120.667 166.773 120.336C167.349 120.005 168.005 119.84 168.741 119.84C169.488 119.84 170.123 120 170.645 120.32C171.179 120.64 171.584 121.077 171.861 121.632C172.139 122.176 172.277 122.789 172.277 123.472C172.277 123.653 172.272 123.819 172.261 123.968C172.251 124.117 172.235 124.251 172.213 124.368H165.749V123.232H171.653L170.997 123.36C170.997 122.592 170.784 122 170.357 121.584C169.941 121.168 169.392 120.96 168.709 120.96C168.187 120.96 167.733 121.083 167.349 121.328C166.976 121.563 166.683 121.909 166.469 122.368C166.267 122.816 166.165 123.36 166.165 124C166.165 124.629 166.272 125.173 166.485 125.632C166.699 126.091 166.997 126.443 167.381 126.688C167.776 126.923 168.245 127.04 168.789 127.04C169.376 127.04 169.851 126.928 170.213 126.704C170.587 126.48 170.885 126.176 171.109 125.792L172.117 126.384C171.915 126.747 171.653 127.061 171.333 127.328C171.024 127.595 170.656 127.803 170.229 127.952C169.813 128.091 169.344 128.16 168.821 128.16ZM182.693 128.16C181.498 128.16 180.544 127.696 179.829 126.768C179.114 125.84 178.757 124.491 178.757 122.72C178.757 120.949 179.114 119.6 179.829 118.672C180.544 117.744 181.498 117.28 182.693 117.28C183.898 117.28 184.853 117.744 185.557 118.672C186.272 119.6 186.629 120.949 186.629 122.72C186.629 124.491 186.272 125.84 185.557 126.768C184.853 127.696 183.898 128.16 182.693 128.16ZM182.693 127.008C183.258 127.008 183.733 126.848 184.117 126.528C184.512 126.197 184.805 125.712 184.997 125.072C185.2 124.432 185.301 123.648 185.301 122.72C185.301 121.792 185.2 121.008 184.997 120.368C184.805 119.728 184.512 119.248 184.117 118.928C183.733 118.597 183.258 118.432 182.693 118.432C182.128 118.432 181.648 118.597 181.253 118.928C180.869 119.248 180.576 119.728 180.373 120.368C180.181 121.008 180.085 121.792 180.085 122.72C180.085 123.648 180.181 124.432 180.373 125.072C180.576 125.712 180.869 126.197 181.253 126.528C181.648 126.848 182.128 127.008 182.693 127.008ZM190.07 128L196.79 117.44H198.006L191.286 128H190.07ZM190.374 117.28C190.897 117.28 191.345 117.403 191.718 117.648C192.102 117.883 192.395 118.219 192.598 118.656C192.811 119.093 192.918 119.605 192.918 120.192C192.918 120.779 192.811 121.291 192.598 121.728C192.395 122.165 192.102 122.507 191.718 122.752C191.345 122.987 190.897 123.104 190.374 123.104C189.862 123.104 189.414 122.987 189.03 122.752C188.646 122.507 188.347 122.165 188.134 121.728C187.931 121.291 187.83 120.779 187.83 120.192C187.83 119.605 187.931 119.093 188.134 118.656C188.347 118.219 188.646 117.883 189.03 117.648C189.414 117.403 189.862 117.28 190.374 117.28ZM190.374 118.288C190.075 118.288 189.819 118.363 189.606 118.512C189.393 118.661 189.233 118.88 189.126 119.168C189.019 119.445 188.966 119.787 188.966 120.192C188.966 120.587 189.019 120.928 189.126 121.216C189.233 121.504 189.393 121.723 189.606 121.872C189.819 122.021 190.075 122.096 190.374 122.096C190.683 122.096 190.939 122.021 191.142 121.872C191.355 121.723 191.515 121.504 191.622 121.216C191.729 120.928 191.782 120.587 191.782 120.192C191.782 119.787 191.729 119.445 191.622 119.168C191.515 118.88 191.355 118.661 191.142 118.512C190.939 118.363 190.683 118.288 190.374 118.288ZM197.702 122.336C198.225 122.336 198.673 122.459 199.046 122.704C199.43 122.939 199.723 123.275 199.926 123.712C200.139 124.149 200.246 124.661 200.246 125.248C200.246 125.835 200.139 126.347 199.926 126.784C199.723 127.221 199.43 127.563 199.046 127.808C198.673 128.043 198.225 128.16 197.702 128.16C197.19 128.16 196.742 128.043 196.358 127.808C195.974 127.563 195.675 127.221 195.462 126.784C195.259 126.347 195.158 125.835 195.158 125.248C195.158 124.661 195.259 124.149 195.462 123.712C195.675 123.275 195.974 122.939 196.358 122.704C196.742 122.459 197.19 122.336 197.702 122.336ZM197.702 123.344C197.403 123.344 197.147 123.419 196.934 123.568C196.721 123.717 196.561 123.936 196.454 124.224C196.347 124.501 196.294 124.843 196.294 125.248C196.294 125.643 196.347 125.984 196.454 126.272C196.561 126.56 196.721 126.779 196.934 126.928C197.147 127.077 197.403 127.152 197.702 127.152C198.011 127.152 198.267 127.077 198.47 126.928C198.683 126.779 198.843 126.56 198.95 126.272C199.057 125.984 199.11 125.643 199.11 125.248C199.11 124.843 199.057 124.501 198.95 124.224C198.843 123.936 198.683 123.717 198.47 123.568C198.267 123.419 198.011 123.344 197.702 123.344Z" fill="#171717"/>
</g>
</svg>
