<svg width="225" height="119" viewBox="0 0 225 119" fill="none" xmlns="http://www.w3.org/2000/svg">
<mask id="mask0_843_9508" style="mask-type:alpha" maskUnits="userSpaceOnUse" x="0" y="0" width="225" height="119">
<path fill-rule="evenodd" clip-rule="evenodd" d="M190 119C178.97 119 170 110.03 170 99V80C170 66.19 158.81 55 145 55H24C10.77 55 0 44.23 0 31V24C0 10.77 10.77 0 24 0H148C161.23 0 172 10.77 172 24V30C172 43.81 183.19 55 197 55H205C216.03 55 225 63.97 225 75V99C225 110.03 216.03 119 205 119H190Z" fill="#EDEDED"/>
</mask>
<g mask="url(#mask0_843_9508)">
<path d="M239.189 53.8976C233.852 101.649 140.536 130.412 30.7624 118.141C-79.0108 105.87 -163.673 57.2129 -158.335 9.4615C-152.997 -38.2899 -29.8914 107.144 50.0921 -54.782C159.865 -42.5113 244.527 6.14621 239.189 53.8976Z" fill="#EDEDED"/>
<path d="M13.328 23.5V15.756C13.328 15.5747 13.328 15.3827 13.328 15.18C13.3387 14.9667 13.3493 14.748 13.36 14.524C12.9973 14.876 12.576 15.1853 12.096 15.452C11.616 15.708 11.1253 15.8947 10.624 16.012L10.288 14.844C10.48 14.8227 10.72 14.7533 11.008 14.636C11.3067 14.508 11.616 14.3533 11.936 14.172C12.2667 13.98 12.5707 13.7773 12.848 13.564C13.1253 13.3507 13.3387 13.1427 13.488 12.94H14.608V23.5H13.328ZM20.3944 23.66C19.4557 23.66 18.6237 23.4413 17.8984 23.004C17.1837 22.556 16.6984 21.9427 16.4424 21.164L17.7224 20.508C17.8504 20.9027 18.0264 21.2493 18.2504 21.548C18.4744 21.836 18.7677 22.06 19.1304 22.22C19.5037 22.38 19.9677 22.46 20.5224 22.46C20.9917 22.46 21.3864 22.3747 21.7064 22.204C22.0264 22.0333 22.2717 21.804 22.4424 21.516C22.613 21.2173 22.6984 20.876 22.6984 20.492C22.6984 20.108 22.6237 19.788 22.4744 19.532C22.3357 19.276 22.1117 19.0893 21.8024 18.972C21.493 18.844 21.0877 18.78 20.5864 18.78C20.469 18.78 20.341 18.7853 20.2024 18.796C20.0637 18.796 19.9197 18.8067 19.7704 18.828V17.548C19.8664 17.5587 19.957 17.564 20.0424 17.564C20.1384 17.564 20.2237 17.564 20.2984 17.564C21.077 17.564 21.6317 17.4147 21.9624 17.116C22.293 16.8067 22.4584 16.3267 22.4584 15.676C22.4584 15.1213 22.2877 14.7 21.9464 14.412C21.605 14.124 21.1197 13.98 20.4904 13.98C19.8184 13.98 19.3064 14.1293 18.9544 14.428C18.6024 14.716 18.325 15.1107 18.1224 15.612L16.9064 15.036C17.077 14.588 17.333 14.1933 17.6744 13.852C18.0157 13.5107 18.4264 13.244 18.9064 13.052C19.397 12.86 19.9357 12.764 20.5224 12.764C21.2584 12.764 21.8664 12.892 22.3464 13.148C22.8264 13.3933 23.1837 13.724 23.4184 14.14C23.6637 14.556 23.7864 15.0147 23.7864 15.516C23.7864 15.9 23.733 16.2467 23.6264 16.556C23.5197 16.8547 23.3704 17.116 23.1784 17.34C22.997 17.564 22.789 17.7453 22.5544 17.884C22.3197 18.012 22.069 18.0973 21.8024 18.14V18.172C22.1544 18.1827 22.4637 18.252 22.7304 18.38C23.0077 18.508 23.2424 18.6787 23.4344 18.892C23.6264 19.1053 23.7704 19.3507 23.8664 19.628C23.973 19.8947 24.0264 20.1773 24.0264 20.476C24.0264 21.0947 23.8717 21.644 23.5624 22.124C23.2637 22.604 22.8424 22.9827 22.2984 23.26C21.7544 23.5267 21.1197 23.66 20.3944 23.66ZM27.4825 23.5L34.2025 12.94H35.4185L28.6985 23.5H27.4825ZM27.7865 12.78C28.3092 12.78 28.7572 12.9027 29.1305 13.148C29.5145 13.3827 29.8078 13.7187 30.0105 14.156C30.2238 14.5933 30.3305 15.1053 30.3305 15.692C30.3305 16.2787 30.2238 16.7907 30.0105 17.228C29.8078 17.6653 29.5145 18.0067 29.1305 18.252C28.7572 18.4867 28.3092 18.604 27.7865 18.604C27.2745 18.604 26.8265 18.4867 26.4425 18.252C26.0585 18.0067 25.7598 17.6653 25.5465 17.228C25.3438 16.7907 25.2425 16.2787 25.2425 15.692C25.2425 15.1053 25.3438 14.5933 25.5465 14.156C25.7598 13.7187 26.0585 13.3827 26.4425 13.148C26.8265 12.9027 27.2745 12.78 27.7865 12.78ZM27.7865 13.788C27.4878 13.788 27.2318 13.8627 27.0185 14.012C26.8052 14.1613 26.6452 14.38 26.5385 14.668C26.4318 14.9453 26.3785 15.2867 26.3785 15.692C26.3785 16.0867 26.4318 16.428 26.5385 16.716C26.6452 17.004 26.8052 17.2227 27.0185 17.372C27.2318 17.5213 27.4878 17.596 27.7865 17.596C28.0958 17.596 28.3518 17.5213 28.5545 17.372C28.7678 17.2227 28.9278 17.004 29.0345 16.716C29.1412 16.428 29.1945 16.0867 29.1945 15.692C29.1945 15.2867 29.1412 14.9453 29.0345 14.668C28.9278 14.38 28.7678 14.1613 28.5545 14.012C28.3518 13.8627 28.0958 13.788 27.7865 13.788ZM35.1145 17.836C35.6372 17.836 36.0852 17.9587 36.4585 18.204C36.8425 18.4387 37.1358 18.7747 37.3385 19.212C37.5518 19.6493 37.6585 20.1613 37.6585 20.748C37.6585 21.3347 37.5518 21.8467 37.3385 22.284C37.1358 22.7213 36.8425 23.0627 36.4585 23.308C36.0852 23.5427 35.6372 23.66 35.1145 23.66C34.6025 23.66 34.1545 23.5427 33.7705 23.308C33.3865 23.0627 33.0878 22.7213 32.8745 22.284C32.6718 21.8467 32.5705 21.3347 32.5705 20.748C32.5705 20.1613 32.6718 19.6493 32.8745 19.212C33.0878 18.7747 33.3865 18.4387 33.7705 18.204C34.1545 17.9587 34.6025 17.836 35.1145 17.836ZM35.1145 18.844C34.8158 18.844 34.5598 18.9187 34.3465 19.068C34.1332 19.2173 33.9732 19.436 33.8665 19.724C33.7598 20.0013 33.7065 20.3427 33.7065 20.748C33.7065 21.1427 33.7598 21.484 33.8665 21.772C33.9732 22.06 34.1332 22.2787 34.3465 22.428C34.5598 22.5773 34.8158 22.652 35.1145 22.652C35.4238 22.652 35.6798 22.5773 35.8825 22.428C36.0958 22.2787 36.2558 22.06 36.3625 21.772C36.4692 21.484 36.5225 21.1427 36.5225 20.748C36.5225 20.3427 36.4692 20.0013 36.3625 19.724C36.2558 19.436 36.0958 19.2173 35.8825 19.068C35.6798 18.9187 35.4238 18.844 35.1145 18.844ZM47.4068 23.66C46.7454 23.66 46.1374 23.4947 45.5828 23.164C45.0281 22.8333 44.5854 22.3587 44.2548 21.74C43.9241 21.1107 43.7588 20.364 43.7588 19.5C43.7588 18.6147 43.9348 17.8627 44.2868 17.244C44.6388 16.6253 45.1028 16.156 45.6788 15.836C46.2548 15.5053 46.8734 15.34 47.5348 15.34C48.1961 15.34 48.7668 15.5107 49.2468 15.852C49.7374 16.1933 50.0628 16.6467 50.2228 17.212L50.0628 17.324V11.82H51.3428V23.5H50.2228L50.1108 21.564L50.2868 21.468C50.2121 21.9373 50.0308 22.3373 49.7428 22.668C49.4654 22.988 49.1188 23.2333 48.7028 23.404C48.2974 23.5747 47.8654 23.66 47.4068 23.66ZM47.5348 22.54C48.0468 22.54 48.4894 22.412 48.8628 22.156C49.2468 21.9 49.5401 21.5373 49.7428 21.068C49.9561 20.588 50.0628 20.028 50.0628 19.388C50.0628 18.78 49.9561 18.2573 49.7428 17.82C49.5401 17.3827 49.2521 17.0467 48.8788 16.812C48.5161 16.5773 48.0894 16.46 47.5988 16.46C46.7881 16.46 46.1588 16.7373 45.7108 17.292C45.2628 17.8467 45.0388 18.5827 45.0388 19.5C45.0388 20.4173 45.2574 21.1533 45.6948 21.708C46.1321 22.2627 46.7454 22.54 47.5348 22.54ZM57.15 15.34C57.9073 15.34 58.574 15.5053 59.15 15.836C59.7367 16.1667 60.1953 16.6467 60.526 17.276C60.8567 17.8947 61.022 18.636 61.022 19.5C61.022 20.364 60.8567 21.1107 60.526 21.74C60.1953 22.3587 59.7367 22.8333 59.15 23.164C58.574 23.4947 57.9073 23.66 57.15 23.66C56.4033 23.66 55.7367 23.4947 55.15 23.164C54.5633 22.8333 54.1047 22.3587 53.774 21.74C53.4433 21.1107 53.278 20.364 53.278 19.5C53.278 18.636 53.4433 17.8947 53.774 17.276C54.1047 16.6467 54.5633 16.1667 55.15 15.836C55.7367 15.5053 56.4033 15.34 57.15 15.34ZM57.15 16.444C56.606 16.444 56.142 16.5667 55.758 16.812C55.374 17.0573 55.0753 17.4093 54.862 17.868C54.6593 18.316 54.558 18.86 54.558 19.5C54.558 20.1293 54.6593 20.6733 54.862 21.132C55.0753 21.5907 55.374 21.9427 55.758 22.188C56.142 22.4333 56.606 22.556 57.15 22.556C57.694 22.556 58.158 22.4333 58.542 22.188C58.926 21.9427 59.2193 21.5907 59.422 21.132C59.6353 20.6733 59.742 20.1293 59.742 19.5C59.742 18.86 59.6353 18.316 59.422 17.868C59.2193 17.4093 58.926 17.0573 58.542 16.812C58.158 16.5667 57.694 16.444 57.15 16.444ZM65.8317 23.66C65.0531 23.66 64.3331 23.4947 63.6717 23.164C63.0211 22.8333 62.5197 22.364 62.1677 21.756L63.2557 20.972C63.4904 21.4627 63.8317 21.8467 64.2797 22.124C64.7384 22.4013 65.2877 22.54 65.9277 22.54C66.4931 22.54 66.9357 22.4333 67.2557 22.22C67.5757 21.996 67.7357 21.708 67.7357 21.356C67.7357 21.132 67.6611 20.9293 67.5117 20.748C67.3731 20.556 67.1011 20.4173 66.6957 20.332L64.7757 19.932C63.9971 19.772 63.4371 19.5053 63.0957 19.132C62.7651 18.7587 62.5997 18.2947 62.5997 17.74C62.5997 17.3027 62.7224 16.9027 62.9677 16.54C63.2237 16.1773 63.5811 15.8893 64.0397 15.676C64.5091 15.452 65.0584 15.34 65.6877 15.34C66.4771 15.34 67.1437 15.4947 67.6877 15.804C68.2317 16.1133 68.6371 16.5507 68.9037 17.116L67.8317 17.82C67.6504 17.3507 67.3571 17.0093 66.9517 16.796C66.5464 16.572 66.1251 16.46 65.6877 16.46C65.3037 16.46 64.9731 16.5133 64.6957 16.62C64.4291 16.7267 64.2211 16.876 64.0717 17.068C63.9331 17.2493 63.8637 17.4573 63.8637 17.692C63.8637 17.9267 63.9437 18.1453 64.1037 18.348C64.2637 18.54 64.5624 18.6787 64.9997 18.764L66.9997 19.18C67.7464 19.3293 68.2691 19.5747 68.5677 19.916C68.8664 20.2573 69.0157 20.6733 69.0157 21.164C69.0157 21.6653 68.8824 22.108 68.6157 22.492C68.3491 22.8653 67.9757 23.1533 67.4957 23.356C67.0157 23.5587 66.4611 23.66 65.8317 23.66ZM79.0024 23.66C78.341 23.66 77.733 23.4947 77.1784 23.164C76.6237 22.8333 76.181 22.3587 75.8504 21.74C75.5197 21.1107 75.3544 20.364 75.3544 19.5C75.3544 18.6147 75.5304 17.8627 75.8824 17.244C76.2344 16.6253 76.6984 16.156 77.2744 15.836C77.8504 15.5053 78.469 15.34 79.1304 15.34C79.7917 15.34 80.3624 15.5107 80.8424 15.852C81.333 16.1933 81.6584 16.6467 81.8184 17.212L81.6584 17.324V11.82H82.9384V23.5H81.8184L81.7064 21.564L81.8824 21.468C81.8077 21.9373 81.6264 22.3373 81.3384 22.668C81.061 22.988 80.7144 23.2333 80.2984 23.404C79.893 23.5747 79.461 23.66 79.0024 23.66ZM79.1304 22.54C79.6424 22.54 80.085 22.412 80.4584 22.156C80.8424 21.9 81.1357 21.5373 81.3384 21.068C81.5517 20.588 81.6584 20.028 81.6584 19.388C81.6584 18.78 81.5517 18.2573 81.3384 17.82C81.1357 17.3827 80.8477 17.0467 80.4744 16.812C80.1117 16.5773 79.685 16.46 79.1944 16.46C78.3837 16.46 77.7544 16.7373 77.3064 17.292C76.8584 17.8467 76.6344 18.5827 76.6344 19.5C76.6344 20.4173 76.853 21.1533 77.2904 21.708C77.7277 22.2627 78.341 22.54 79.1304 22.54ZM86.0736 13.964C85.7856 13.964 85.551 13.8787 85.3696 13.708C85.199 13.5267 85.1136 13.292 85.1136 13.004C85.1136 12.716 85.199 12.4867 85.3696 12.316C85.551 12.1347 85.7856 12.044 86.0736 12.044C86.3616 12.044 86.591 12.1347 86.7616 12.316C86.943 12.4867 87.0336 12.716 87.0336 13.004C87.0336 13.292 86.943 13.5267 86.7616 13.708C86.591 13.8787 86.3616 13.964 86.0736 13.964ZM86.7136 15.5V23.5H85.4336V15.5H86.7136ZM89.2036 26.86V15.5H90.3236L90.4356 17.452L90.2596 17.228C90.3983 16.8547 90.6063 16.5293 90.8836 16.252C91.161 15.964 91.497 15.74 91.8916 15.58C92.2863 15.42 92.713 15.34 93.1716 15.34C93.8223 15.34 94.4196 15.5053 94.9636 15.836C95.5183 16.1667 95.961 16.6413 96.2916 17.26C96.6223 17.8787 96.7876 18.6253 96.7876 19.5C96.7876 20.364 96.617 21.1107 96.2756 21.74C95.945 22.3587 95.5023 22.8333 94.9476 23.164C94.393 23.4947 93.785 23.66 93.1236 23.66C92.4623 23.66 91.881 23.5 91.3796 23.18C90.889 22.8493 90.537 22.4333 90.3236 21.932L90.4836 21.692V26.86H89.2036ZM92.9956 22.54C93.785 22.54 94.3983 22.2627 94.8356 21.708C95.2836 21.1533 95.5076 20.4173 95.5076 19.5C95.5076 18.5827 95.289 17.8467 94.8516 17.292C94.425 16.7373 93.8223 16.46 93.0436 16.46C92.5316 16.46 92.0836 16.588 91.6996 16.844C91.3156 17.0893 91.017 17.4413 90.8036 17.9C90.5903 18.348 90.4836 18.8813 90.4836 19.5C90.4836 20.108 90.585 20.6413 90.7876 21.1C91.001 21.5587 91.2943 21.916 91.6676 22.172C92.0516 22.4173 92.4943 22.54 92.9956 22.54ZM99.9709 11.82V21.468C99.9709 21.8733 100.046 22.156 100.195 22.316C100.344 22.4653 100.584 22.54 100.915 22.54C101.128 22.54 101.304 22.524 101.443 22.492C101.582 22.46 101.768 22.4013 102.003 22.316L101.795 23.436C101.624 23.5107 101.438 23.564 101.235 23.596C101.032 23.6387 100.824 23.66 100.611 23.66C99.9602 23.66 99.4749 23.484 99.1549 23.132C98.8455 22.78 98.6909 22.2413 98.6909 21.516V11.82H99.9709ZM106.477 15.34C107.235 15.34 107.901 15.5053 108.477 15.836C109.064 16.1667 109.523 16.6467 109.853 17.276C110.184 17.8947 110.349 18.636 110.349 19.5C110.349 20.364 110.184 21.1107 109.853 21.74C109.523 22.3587 109.064 22.8333 108.477 23.164C107.901 23.4947 107.235 23.66 106.477 23.66C105.731 23.66 105.064 23.4947 104.477 23.164C103.891 22.8333 103.432 22.3587 103.101 21.74C102.771 21.1107 102.605 20.364 102.605 19.5C102.605 18.636 102.771 17.8947 103.101 17.276C103.432 16.6467 103.891 16.1667 104.477 15.836C105.064 15.5053 105.731 15.34 106.477 15.34ZM106.477 16.444C105.933 16.444 105.469 16.5667 105.085 16.812C104.701 17.0573 104.403 17.4093 104.189 17.868C103.987 18.316 103.885 18.86 103.885 19.5C103.885 20.1293 103.987 20.6733 104.189 21.132C104.403 21.5907 104.701 21.9427 105.085 22.188C105.469 22.4333 105.933 22.556 106.477 22.556C107.021 22.556 107.485 22.4333 107.869 22.188C108.253 21.9427 108.547 21.5907 108.749 21.132C108.963 20.6733 109.069 20.1293 109.069 19.5C109.069 18.86 108.963 18.316 108.749 17.868C108.547 17.4093 108.253 17.0573 107.869 16.812C107.485 16.5667 107.021 16.444 106.477 16.444ZM112.279 23.5V15.5H113.399L113.479 16.748C113.767 16.2573 114.141 15.9 114.599 15.676C115.069 15.452 115.549 15.34 116.039 15.34C116.605 15.34 117.138 15.468 117.639 15.724C118.141 15.98 118.525 16.3747 118.791 16.908C118.962 16.5453 119.202 16.252 119.511 16.028C119.821 15.7933 120.157 15.6227 120.519 15.516C120.893 15.3987 121.245 15.34 121.575 15.34C122.087 15.34 122.573 15.4467 123.031 15.66C123.501 15.8733 123.885 16.204 124.183 16.652C124.482 17.1 124.631 17.676 124.631 18.38V23.5H123.351V18.508C123.351 17.7827 123.17 17.26 122.807 16.94C122.445 16.62 121.997 16.46 121.463 16.46C121.047 16.46 120.658 16.5613 120.295 16.764C119.933 16.9667 119.639 17.2653 119.415 17.66C119.202 18.0547 119.095 18.54 119.095 19.116V23.5H117.815V18.508C117.815 17.7827 117.634 17.26 117.271 16.94C116.909 16.62 116.461 16.46 115.927 16.46C115.575 16.46 115.213 16.556 114.839 16.748C114.477 16.9293 114.173 17.2227 113.927 17.628C113.682 18.0333 113.559 18.5667 113.559 19.228V23.5H112.279ZM131.721 18.332C131.721 17.7347 131.561 17.276 131.241 16.956C130.921 16.6253 130.468 16.46 129.881 16.46C129.327 16.46 128.857 16.5827 128.473 16.828C128.089 17.0627 127.807 17.4467 127.625 17.98L126.585 17.34C126.799 16.7427 127.193 16.2627 127.769 15.9C128.345 15.5267 129.06 15.34 129.913 15.34C130.489 15.34 131.012 15.4413 131.481 15.644C131.951 15.836 132.319 16.1347 132.585 16.54C132.863 16.9347 133.001 17.4467 133.001 18.076V21.948C133.001 22.332 133.204 22.524 133.609 22.524C133.812 22.524 134.009 22.4973 134.201 22.444L134.137 23.452C133.924 23.5587 133.647 23.612 133.305 23.612C132.996 23.612 132.719 23.5533 132.473 23.436C132.228 23.3187 132.036 23.1427 131.897 22.908C131.759 22.6627 131.689 22.3587 131.689 21.996V21.836L132.009 21.884C131.881 22.3 131.663 22.6413 131.353 22.908C131.044 23.164 130.697 23.356 130.313 23.484C129.929 23.6013 129.551 23.66 129.177 23.66C128.708 23.66 128.271 23.58 127.865 23.42C127.46 23.26 127.135 23.02 126.889 22.7C126.655 22.3693 126.537 21.964 126.537 21.484C126.537 20.8867 126.735 20.396 127.129 20.012C127.535 19.6173 128.095 19.3507 128.809 19.212L131.977 18.588V19.644L129.401 20.172C128.879 20.2787 128.489 20.428 128.233 20.62C127.977 20.812 127.849 21.0787 127.849 21.42C127.849 21.7507 127.977 22.0227 128.233 22.236C128.5 22.4387 128.873 22.54 129.353 22.54C129.663 22.54 129.956 22.5027 130.233 22.428C130.521 22.3427 130.777 22.22 131.001 22.06C131.225 21.8893 131.401 21.6813 131.529 21.436C131.657 21.18 131.721 20.8813 131.721 20.54V18.332ZM138.752 23.66C138.09 23.66 137.482 23.4947 136.928 23.164C136.373 22.8333 135.93 22.3587 135.6 21.74C135.269 21.1107 135.104 20.364 135.104 19.5C135.104 18.6147 135.28 17.8627 135.632 17.244C135.984 16.6253 136.448 16.156 137.024 15.836C137.6 15.5053 138.218 15.34 138.88 15.34C139.541 15.34 140.112 15.5107 140.592 15.852C141.082 16.1933 141.408 16.6467 141.568 17.212L141.408 17.324V11.82H142.688V23.5H141.568L141.456 21.564L141.632 21.468C141.557 21.9373 141.376 22.3373 141.088 22.668C140.81 22.988 140.464 23.2333 140.048 23.404C139.642 23.5747 139.21 23.66 138.752 23.66ZM138.88 22.54C139.392 22.54 139.834 22.412 140.208 22.156C140.592 21.9 140.885 21.5373 141.088 21.068C141.301 20.588 141.408 20.028 141.408 19.388C141.408 18.78 141.301 18.2573 141.088 17.82C140.885 17.3827 140.597 17.0467 140.224 16.812C139.861 16.5773 139.434 16.46 138.944 16.46C138.133 16.46 137.504 16.7373 137.056 17.292C136.608 17.8467 136.384 18.5827 136.384 19.5C136.384 20.4173 136.602 21.1533 137.04 21.708C137.477 22.2627 138.09 22.54 138.88 22.54ZM148.495 15.34C149.252 15.34 149.919 15.5053 150.495 15.836C151.082 16.1667 151.54 16.6467 151.871 17.276C152.202 17.8947 152.367 18.636 152.367 19.5C152.367 20.364 152.202 21.1107 151.871 21.74C151.54 22.3587 151.082 22.8333 150.495 23.164C149.919 23.4947 149.252 23.66 148.495 23.66C147.748 23.66 147.082 23.4947 146.495 23.164C145.908 22.8333 145.45 22.3587 145.119 21.74C144.788 21.1107 144.623 20.364 144.623 19.5C144.623 18.636 144.788 17.8947 145.119 17.276C145.45 16.6467 145.908 16.1667 146.495 15.836C147.082 15.5053 147.748 15.34 148.495 15.34ZM148.495 16.444C147.951 16.444 147.487 16.5667 147.103 16.812C146.719 17.0573 146.42 17.4093 146.207 17.868C146.004 18.316 145.903 18.86 145.903 19.5C145.903 20.1293 146.004 20.6733 146.207 21.132C146.42 21.5907 146.719 21.9427 147.103 22.188C147.487 22.4333 147.951 22.556 148.495 22.556C149.039 22.556 149.503 22.4333 149.887 22.188C150.271 21.9427 150.564 21.5907 150.767 21.132C150.98 20.6733 151.087 20.1293 151.087 19.5C151.087 18.86 150.98 18.316 150.767 17.868C150.564 17.4093 150.271 17.0573 149.887 16.812C149.503 16.5667 149.039 16.444 148.495 16.444ZM157.177 23.66C156.398 23.66 155.678 23.4947 155.017 23.164C154.366 22.8333 153.865 22.364 153.513 21.756L154.601 20.972C154.835 21.4627 155.177 21.8467 155.625 22.124C156.083 22.4013 156.633 22.54 157.273 22.54C157.838 22.54 158.281 22.4333 158.601 22.22C158.921 21.996 159.081 21.708 159.081 21.356C159.081 21.132 159.006 20.9293 158.857 20.748C158.718 20.556 158.446 20.4173 158.041 20.332L156.121 19.932C155.342 19.772 154.782 19.5053 154.441 19.132C154.11 18.7587 153.945 18.2947 153.945 17.74C153.945 17.3027 154.067 16.9027 154.313 16.54C154.569 16.1773 154.926 15.8893 155.385 15.676C155.854 15.452 156.403 15.34 157.033 15.34C157.822 15.34 158.489 15.4947 159.033 15.804C159.577 16.1133 159.982 16.5507 160.249 17.116L159.177 17.82C158.995 17.3507 158.702 17.0093 158.297 16.796C157.891 16.572 157.47 16.46 157.033 16.46C156.649 16.46 156.318 16.5133 156.041 16.62C155.774 16.7267 155.566 16.876 155.417 17.068C155.278 17.2493 155.209 17.4573 155.209 17.692C155.209 17.9267 155.289 18.1453 155.449 18.348C155.609 18.54 155.907 18.6787 156.345 18.764L158.345 19.18C159.091 19.3293 159.614 19.5747 159.913 19.916C160.211 20.2573 160.361 20.6733 160.361 21.164C160.361 21.6653 160.227 22.108 159.961 22.492C159.694 22.8653 159.321 23.1533 158.841 23.356C158.361 23.5587 157.806 23.66 157.177 23.66ZM14.832 42.66C14.0747 42.66 13.3973 42.4947 12.8 42.164C12.2133 41.8333 11.7547 41.3587 11.424 40.74C11.0933 40.1107 10.928 39.364 10.928 38.5C10.928 37.636 11.0933 36.8947 11.424 36.276C11.7547 35.6467 12.208 35.1667 12.784 34.836C13.36 34.5053 14.016 34.34 14.752 34.34C15.4987 34.34 16.1333 34.5 16.656 34.82C17.1893 35.14 17.5947 35.5773 17.872 36.132C18.1493 36.676 18.288 37.2893 18.288 37.972C18.288 38.1533 18.2827 38.3187 18.272 38.468C18.2613 38.6173 18.2453 38.7507 18.224 38.868H11.76V37.732H17.664L17.008 37.86C17.008 37.092 16.7947 36.5 16.368 36.084C15.952 35.668 15.4027 35.46 14.72 35.46C14.1973 35.46 13.744 35.5827 13.36 35.828C12.9867 36.0627 12.6933 36.4093 12.48 36.868C12.2773 37.316 12.176 37.86 12.176 38.5C12.176 39.1293 12.2827 39.6733 12.496 40.132C12.7093 40.5907 13.008 40.9427 13.392 41.188C13.7867 41.4227 14.256 41.54 14.8 41.54C15.3867 41.54 15.8613 41.428 16.224 41.204C16.5973 40.98 16.896 40.676 17.12 40.292L18.128 40.884C17.9253 41.2467 17.664 41.5613 17.344 41.828C17.0347 42.0947 16.6667 42.3027 16.24 42.452C15.824 42.5907 15.3547 42.66 14.832 42.66ZM23.1224 42.66C22.3437 42.66 21.6237 42.4947 20.9624 42.164C20.3117 41.8333 19.8104 41.364 19.4584 40.756L20.5464 39.972C20.781 40.4627 21.1224 40.8467 21.5704 41.124C22.029 41.4013 22.5784 41.54 23.2184 41.54C23.7837 41.54 24.2264 41.4333 24.5464 41.22C24.8664 40.996 25.0264 40.708 25.0264 40.356C25.0264 40.132 24.9517 39.9293 24.8024 39.748C24.6637 39.556 24.3917 39.4173 23.9864 39.332L22.0664 38.932C21.2877 38.772 20.7277 38.5053 20.3864 38.132C20.0557 37.7587 19.8904 37.2947 19.8904 36.74C19.8904 36.3027 20.013 35.9027 20.2584 35.54C20.5144 35.1773 20.8717 34.8893 21.3304 34.676C21.7997 34.452 22.349 34.34 22.9784 34.34C23.7677 34.34 24.4344 34.4947 24.9784 34.804C25.5224 35.1133 25.9277 35.5507 26.1944 36.116L25.1224 36.82C24.941 36.3507 24.6477 36.0093 24.2424 35.796C23.837 35.572 23.4157 35.46 22.9784 35.46C22.5944 35.46 22.2637 35.5133 21.9864 35.62C21.7197 35.7267 21.5117 35.876 21.3624 36.068C21.2237 36.2493 21.1544 36.4573 21.1544 36.692C21.1544 36.9267 21.2344 37.1453 21.3944 37.348C21.5544 37.54 21.853 37.6787 22.2904 37.764L24.2904 38.18C25.037 38.3293 25.5597 38.5747 25.8584 38.916C26.157 39.2573 26.3064 39.6733 26.3064 40.164C26.3064 40.6653 26.173 41.108 25.9064 41.492C25.6397 41.8653 25.2664 42.1533 24.7864 42.356C24.3064 42.5587 23.7517 42.66 23.1224 42.66ZM30.0879 32.228V40.292C30.0879 40.6867 30.1999 40.98 30.4239 41.172C30.6479 41.364 30.9359 41.46 31.2879 41.46C31.5972 41.46 31.8639 41.4067 32.0879 41.3C32.3119 41.1933 32.5145 41.0493 32.6959 40.868L33.1439 41.94C32.8985 42.164 32.6052 42.34 32.2639 42.468C31.9332 42.596 31.5492 42.66 31.1119 42.66C30.7065 42.66 30.3279 42.5907 29.9759 42.452C29.6239 42.3027 29.3412 42.0733 29.1279 41.764C28.9252 41.444 28.8185 41.028 28.8079 40.516V32.58L30.0879 32.228ZM32.9999 34.5V35.604H27.2079V34.5H32.9999ZM39.095 37.332C39.095 36.7347 38.935 36.276 38.615 35.956C38.295 35.6253 37.8417 35.46 37.255 35.46C36.7003 35.46 36.231 35.5827 35.847 35.828C35.463 36.0627 35.1803 36.4467 34.999 36.98L33.959 36.34C34.1723 35.7427 34.567 35.2627 35.143 34.9C35.719 34.5267 36.4337 34.34 37.287 34.34C37.863 34.34 38.3857 34.4413 38.855 34.644C39.3243 34.836 39.6923 35.1347 39.959 35.54C40.2363 35.9347 40.375 36.4467 40.375 37.076V40.948C40.375 41.332 40.5777 41.524 40.983 41.524C41.1857 41.524 41.383 41.4973 41.575 41.444L41.511 42.452C41.2977 42.5587 41.0203 42.612 40.679 42.612C40.3697 42.612 40.0923 42.5533 39.847 42.436C39.6017 42.3187 39.4097 42.1427 39.271 41.908C39.1323 41.6627 39.063 41.3587 39.063 40.996V40.836L39.383 40.884C39.255 41.3 39.0363 41.6413 38.727 41.908C38.4177 42.164 38.071 42.356 37.687 42.484C37.303 42.6013 36.9243 42.66 36.551 42.66C36.0817 42.66 35.6443 42.58 35.239 42.42C34.8337 42.26 34.5083 42.02 34.263 41.7C34.0283 41.3693 33.911 40.964 33.911 40.484C33.911 39.8867 34.1083 39.396 34.503 39.012C34.9083 38.6173 35.4683 38.3507 36.183 38.212L39.351 37.588V38.644L36.775 39.172C36.2523 39.2787 35.863 39.428 35.607 39.62C35.351 39.812 35.223 40.0787 35.223 40.42C35.223 40.7507 35.351 41.0227 35.607 41.236C35.8737 41.4387 36.247 41.54 36.727 41.54C37.0363 41.54 37.3297 41.5027 37.607 41.428C37.895 41.3427 38.151 41.22 38.375 41.06C38.599 40.8893 38.775 40.6813 38.903 40.436C39.031 40.18 39.095 39.8813 39.095 39.54V37.332ZM40.231 31.028C40.199 31.4973 40.1083 31.892 39.959 32.212C39.8203 32.532 39.623 32.772 39.367 32.932C39.1217 33.092 38.8123 33.172 38.439 33.172C38.1403 33.172 37.8843 33.1187 37.671 33.012C37.4683 32.8947 37.2923 32.7667 37.143 32.628C36.9937 32.4893 36.8443 32.3667 36.695 32.26C36.5563 32.1427 36.4017 32.084 36.231 32.084C35.9963 32.084 35.8203 32.1853 35.703 32.388C35.5857 32.58 35.5003 32.8467 35.447 33.188H34.439C34.4923 32.484 34.663 31.9507 34.951 31.588C35.2497 31.2253 35.6817 31.044 36.247 31.044C36.535 31.044 36.7803 31.1027 36.983 31.22C37.1963 31.3267 37.3777 31.4493 37.527 31.588C37.687 31.7267 37.8363 31.8547 37.975 31.972C38.1137 32.0787 38.263 32.132 38.423 32.132C38.6683 32.132 38.8497 32.036 38.967 31.844C39.0843 31.6413 39.1697 31.3693 39.223 31.028H40.231ZM46.3175 34.34C47.0748 34.34 47.7415 34.5053 48.3175 34.836C48.9042 35.1667 49.3628 35.6467 49.6935 36.276C50.0242 36.8947 50.1895 37.636 50.1895 38.5C50.1895 39.364 50.0242 40.1107 49.6935 40.74C49.3628 41.3587 48.9042 41.8333 48.3175 42.164C47.7415 42.4947 47.0748 42.66 46.3175 42.66C45.5708 42.66 44.9042 42.4947 44.3175 42.164C43.7308 41.8333 43.2722 41.3587 42.9415 40.74C42.6108 40.1107 42.4455 39.364 42.4455 38.5C42.4455 37.636 42.6108 36.8947 42.9415 36.276C43.2722 35.6467 43.7308 35.1667 44.3175 34.836C44.9042 34.5053 45.5708 34.34 46.3175 34.34ZM46.3175 35.444C45.7735 35.444 45.3095 35.5667 44.9255 35.812C44.5415 36.0573 44.2428 36.4093 44.0295 36.868C43.8268 37.316 43.7255 37.86 43.7255 38.5C43.7255 39.1293 43.8268 39.6733 44.0295 40.132C44.2428 40.5907 44.5415 40.9427 44.9255 41.188C45.3095 41.4333 45.7735 41.556 46.3175 41.556C46.8615 41.556 47.3255 41.4333 47.7095 41.188C48.0935 40.9427 48.3868 40.5907 48.5895 40.132C48.8028 39.6733 48.9095 39.1293 48.9095 38.5C48.9095 37.86 48.8028 37.316 48.5895 36.868C48.3868 36.4093 48.0935 36.0573 47.7095 35.812C47.3255 35.5667 46.8615 35.444 46.3175 35.444ZM61.7644 37.332C61.7644 36.7347 61.6044 36.276 61.2844 35.956C60.9644 35.6253 60.511 35.46 59.9244 35.46C59.3697 35.46 58.9004 35.5827 58.5164 35.828C58.1324 36.0627 57.8497 36.4467 57.6684 36.98L56.6284 36.34C56.8417 35.7427 57.2364 35.2627 57.8124 34.9C58.3884 34.5267 59.103 34.34 59.9564 34.34C60.5324 34.34 61.055 34.4413 61.5244 34.644C61.9937 34.836 62.3617 35.1347 62.6284 35.54C62.9057 35.9347 63.0444 36.4467 63.0444 37.076V40.948C63.0444 41.332 63.247 41.524 63.6524 41.524C63.855 41.524 64.0524 41.4973 64.2444 41.444L64.1804 42.452C63.967 42.5587 63.6897 42.612 63.3484 42.612C63.039 42.612 62.7617 42.5533 62.5164 42.436C62.271 42.3187 62.079 42.1427 61.9404 41.908C61.8017 41.6627 61.7324 41.3587 61.7324 40.996V40.836L62.0524 40.884C61.9244 41.3 61.7057 41.6413 61.3964 41.908C61.087 42.164 60.7404 42.356 60.3564 42.484C59.9724 42.6013 59.5937 42.66 59.2204 42.66C58.751 42.66 58.3137 42.58 57.9084 42.42C57.503 42.26 57.1777 42.02 56.9324 41.7C56.6977 41.3693 56.5804 40.964 56.5804 40.484C56.5804 39.8867 56.7777 39.396 57.1724 39.012C57.5777 38.6173 58.1377 38.3507 58.8524 38.212L62.0204 37.588V38.644L59.4444 39.172C58.9217 39.2787 58.5324 39.428 58.2764 39.62C58.0204 39.812 57.8924 40.0787 57.8924 40.42C57.8924 40.7507 58.0204 41.0227 58.2764 41.236C58.543 41.4387 58.9164 41.54 59.3964 41.54C59.7057 41.54 59.999 41.5027 60.2764 41.428C60.5644 41.3427 60.8204 41.22 61.0444 41.06C61.2684 40.8893 61.4444 40.6813 61.5724 40.436C61.7004 40.18 61.7644 39.8813 61.7644 39.54V37.332ZM73.617 42.66C72.8597 42.66 72.1823 42.4947 71.585 42.164C70.9983 41.8333 70.5397 41.3587 70.209 40.74C69.8783 40.1107 69.713 39.364 69.713 38.5C69.713 37.636 69.8783 36.8947 70.209 36.276C70.5397 35.6467 70.993 35.1667 71.569 34.836C72.145 34.5053 72.801 34.34 73.537 34.34C74.2837 34.34 74.9183 34.5 75.441 34.82C75.9743 35.14 76.3797 35.5773 76.657 36.132C76.9343 36.676 77.073 37.2893 77.073 37.972C77.073 38.1533 77.0677 38.3187 77.057 38.468C77.0463 38.6173 77.0303 38.7507 77.009 38.868H70.545V37.732H76.449L75.793 37.86C75.793 37.092 75.5797 36.5 75.153 36.084C74.737 35.668 74.1877 35.46 73.505 35.46C72.9823 35.46 72.529 35.5827 72.145 35.828C71.7717 36.0627 71.4783 36.4093 71.265 36.868C71.0623 37.316 70.961 37.86 70.961 38.5C70.961 39.1293 71.0677 39.6733 71.281 40.132C71.4943 40.5907 71.793 40.9427 72.177 41.188C72.5717 41.4227 73.041 41.54 73.585 41.54C74.1717 41.54 74.6463 41.428 75.009 41.204C75.3823 40.98 75.681 40.676 75.905 40.292L76.913 40.884C76.7103 41.2467 76.449 41.5613 76.129 41.828C75.8197 42.0947 75.4517 42.3027 75.025 42.452C74.609 42.5907 74.1397 42.66 73.617 42.66ZM81.9074 42.66C81.1287 42.66 80.4087 42.4947 79.7474 42.164C79.0967 41.8333 78.5954 41.364 78.2434 40.756L79.3314 39.972C79.566 40.4627 79.9074 40.8467 80.3554 41.124C80.814 41.4013 81.3634 41.54 82.0034 41.54C82.5687 41.54 83.0114 41.4333 83.3314 41.22C83.6514 40.996 83.8114 40.708 83.8114 40.356C83.8114 40.132 83.7367 39.9293 83.5874 39.748C83.4487 39.556 83.1767 39.4173 82.7714 39.332L80.8514 38.932C80.0727 38.772 79.5127 38.5053 79.1714 38.132C78.8407 37.7587 78.6754 37.2947 78.6754 36.74C78.6754 36.3027 78.798 35.9027 79.0434 35.54C79.2994 35.1773 79.6567 34.8893 80.1154 34.676C80.5847 34.452 81.134 34.34 81.7634 34.34C82.5527 34.34 83.2194 34.4947 83.7634 34.804C84.3074 35.1133 84.7127 35.5507 84.9794 36.116L83.9074 36.82C83.726 36.3507 83.4327 36.0093 83.0274 35.796C82.622 35.572 82.2007 35.46 81.7634 35.46C81.3794 35.46 81.0487 35.5133 80.7714 35.62C80.5047 35.7267 80.2967 35.876 80.1474 36.068C80.0087 36.2493 79.9394 36.4573 79.9394 36.692C79.9394 36.9267 80.0194 37.1453 80.1794 37.348C80.3394 37.54 80.638 37.6787 81.0754 37.764L83.0754 38.18C83.822 38.3293 84.3447 38.5747 84.6434 38.916C84.942 39.2573 85.0914 39.6733 85.0914 40.164C85.0914 40.6653 84.958 41.108 84.6914 41.492C84.4247 41.8653 84.0514 42.1533 83.5714 42.356C83.0914 42.5587 82.5367 42.66 81.9074 42.66ZM88.8729 32.228V40.292C88.8729 40.6867 88.9849 40.98 89.2089 41.172C89.4329 41.364 89.7209 41.46 90.0729 41.46C90.3822 41.46 90.6489 41.4067 90.8729 41.3C91.0969 41.1933 91.2995 41.0493 91.4809 40.868L91.9289 41.94C91.6835 42.164 91.3902 42.34 91.0489 42.468C90.7182 42.596 90.3342 42.66 89.8969 42.66C89.4915 42.66 89.1129 42.5907 88.7609 42.452C88.4089 42.3027 88.1262 42.0733 87.9129 41.764C87.7102 41.444 87.6035 41.028 87.5929 40.516V32.58L88.8729 32.228ZM91.7849 34.5V35.604H85.9929V34.5H91.7849ZM96.104 42.66C95.592 42.66 95.1067 42.564 94.648 42.372C94.2 42.18 93.832 41.8707 93.544 41.444C93.2667 41.0067 93.128 40.4413 93.128 39.748V34.5H94.408V39.412C94.408 40.2227 94.584 40.7827 94.936 41.092C95.288 41.3907 95.784 41.54 96.424 41.54C96.7227 41.54 97.016 41.492 97.304 41.396C97.592 41.2893 97.848 41.1293 98.072 40.916C98.3067 40.692 98.488 40.4093 98.616 40.068C98.7547 39.7267 98.824 39.3213 98.824 38.852V34.5H100.104V42.5H98.984L98.904 41.284C98.6267 41.764 98.248 42.116 97.768 42.34C97.2987 42.5533 96.744 42.66 96.104 42.66ZM105.723 42.66C105.062 42.66 104.454 42.4947 103.899 42.164C103.344 41.8333 102.902 41.3587 102.571 40.74C102.24 40.1107 102.075 39.364 102.075 38.5C102.075 37.6147 102.251 36.8627 102.603 36.244C102.955 35.6253 103.419 35.156 103.995 34.836C104.571 34.5053 105.19 34.34 105.851 34.34C106.512 34.34 107.083 34.5107 107.563 34.852C108.054 35.1933 108.379 35.6467 108.539 36.212L108.379 36.324V30.82H109.659V42.5H108.539L108.427 40.564L108.603 40.468C108.528 40.9373 108.347 41.3373 108.059 41.668C107.782 41.988 107.435 42.2333 107.019 42.404C106.614 42.5747 106.182 42.66 105.723 42.66ZM105.851 41.54C106.363 41.54 106.806 41.412 107.179 41.156C107.563 40.9 107.856 40.5373 108.059 40.068C108.272 39.588 108.379 39.028 108.379 38.388C108.379 37.78 108.272 37.2573 108.059 36.82C107.856 36.3827 107.568 36.0467 107.195 35.812C106.832 35.5773 106.406 35.46 105.915 35.46C105.104 35.46 104.475 35.7373 104.027 36.292C103.579 36.8467 103.355 37.5827 103.355 38.5C103.355 39.4173 103.574 40.1533 104.011 40.708C104.448 41.2627 105.062 41.54 105.851 41.54ZM116.826 37.332C116.826 36.7347 116.666 36.276 116.346 35.956C116.026 35.6253 115.573 35.46 114.986 35.46C114.432 35.46 113.962 35.5827 113.578 35.828C113.194 36.0627 112.912 36.4467 112.73 36.98L111.69 36.34C111.904 35.7427 112.298 35.2627 112.874 34.9C113.45 34.5267 114.165 34.34 115.018 34.34C115.594 34.34 116.117 34.4413 116.586 34.644C117.056 34.836 117.424 35.1347 117.69 35.54C117.968 35.9347 118.106 36.4467 118.106 37.076V40.948C118.106 41.332 118.309 41.524 118.714 41.524C118.917 41.524 119.114 41.4973 119.306 41.444L119.242 42.452C119.029 42.5587 118.752 42.612 118.41 42.612C118.101 42.612 117.824 42.5533 117.578 42.436C117.333 42.3187 117.141 42.1427 117.002 41.908C116.864 41.6627 116.794 41.3587 116.794 40.996V40.836L117.114 40.884C116.986 41.3 116.768 41.6413 116.458 41.908C116.149 42.164 115.802 42.356 115.418 42.484C115.034 42.6013 114.656 42.66 114.282 42.66C113.813 42.66 113.376 42.58 112.97 42.42C112.565 42.26 112.24 42.02 111.994 41.7C111.76 41.3693 111.642 40.964 111.642 40.484C111.642 39.8867 111.84 39.396 112.234 39.012C112.64 38.6173 113.2 38.3507 113.914 38.212L117.082 37.588V38.644L114.506 39.172C113.984 39.2787 113.594 39.428 113.338 39.62C113.082 39.812 112.954 40.0787 112.954 40.42C112.954 40.7507 113.082 41.0227 113.338 41.236C113.605 41.4387 113.978 41.54 114.458 41.54C114.768 41.54 115.061 41.5027 115.338 41.428C115.626 41.3427 115.882 41.22 116.106 41.06C116.33 40.8893 116.506 40.6813 116.634 40.436C116.762 40.18 116.826 39.8813 116.826 39.54V37.332ZM120.737 42.5V34.5H121.777L121.953 35.812C122.177 35.3213 122.502 34.9533 122.929 34.708C123.366 34.4627 123.894 34.34 124.513 34.34C124.651 34.34 124.801 34.3507 124.961 34.372C125.131 34.3933 125.275 34.436 125.393 34.5L125.169 35.668C125.051 35.6253 124.923 35.5933 124.785 35.572C124.646 35.5507 124.449 35.54 124.193 35.54C123.862 35.54 123.526 35.636 123.185 35.828C122.854 36.02 122.577 36.3133 122.353 36.708C122.129 37.092 122.017 37.5827 122.017 38.18V42.5H120.737Z" fill="#171717"/>
</g>
</svg>
