<svg width="235" height="117" viewBox="0 0 235 117" fill="none" xmlns="http://www.w3.org/2000/svg">
<path d="M20 117C8.97 117 0 108.03 0 97V82C0 70.97 8.97 62 20 62H147C163.02 62 176 49.02 176 33V20C176 8.97 184.97 0 196 0H215C226.03 0 235 8.97 235 20V34C235 45.03 226.03 54 215 54H201C184.98 54 172 66.98 172 83V97C172 108.03 163.03 117 152 117H20Z" fill="#EDEDED"/>
<path d="M10.64 74.94H18.416V76.14C17.5307 77.0787 16.8053 78.044 16.24 79.036C15.6853 80.0173 15.28 81.0413 15.024 82.108C14.768 83.1747 14.64 84.3053 14.64 85.5H13.328C13.328 84.316 13.472 83.1587 13.76 82.028C14.0587 80.8867 14.5067 79.7933 15.104 78.748C15.7013 77.7027 16.4427 76.7267 17.328 75.82L17.536 76.14H10.64V74.94ZM23.1043 74.796C23.7869 74.796 24.3789 74.908 24.8803 75.132C25.3816 75.356 25.7709 75.676 26.0483 76.092C26.3256 76.4973 26.4643 76.988 26.4643 77.564C26.4643 78.108 26.3309 78.588 26.0643 79.004C25.8083 79.4093 25.4456 79.7187 24.9763 79.932V79.948C25.5736 80.172 26.0483 80.5133 26.4003 80.972C26.7629 81.4307 26.9443 81.9907 26.9443 82.652C26.9443 83.2707 26.7843 83.804 26.4643 84.252C26.1443 84.7 25.6963 85.0467 25.1203 85.292C24.5549 85.5373 23.8829 85.66 23.1043 85.66C22.3363 85.66 21.6643 85.5373 21.0883 85.292C20.5123 85.0467 20.0643 84.7 19.7443 84.252C19.4243 83.804 19.2643 83.2707 19.2643 82.652C19.2643 82.0013 19.4403 81.4467 19.7923 80.988C20.1443 80.5187 20.6296 80.172 21.2483 79.948V79.932C20.7896 79.7293 20.4216 79.4253 20.1443 79.02C19.8776 78.604 19.7443 78.1187 19.7443 77.564C19.7443 76.988 19.8829 76.4973 20.1603 76.092C20.4376 75.676 20.8269 75.356 21.3283 75.132C21.8403 74.908 22.4323 74.796 23.1043 74.796ZM23.1043 75.996C22.4856 75.996 21.9896 76.1453 21.6163 76.444C21.2536 76.7427 21.0723 77.1587 21.0723 77.692C21.0723 78.2147 21.2589 78.6253 21.6323 78.924C22.0056 79.2227 22.4963 79.372 23.1043 79.372C23.7123 79.372 24.2029 79.2227 24.5763 78.924C24.9496 78.6253 25.1363 78.2147 25.1363 77.692C25.1363 77.1587 24.9549 76.7427 24.5923 76.444C24.2296 76.1453 23.7336 75.996 23.1043 75.996ZM23.1043 84.46C23.6269 84.46 24.0749 84.3853 24.4483 84.236C24.8216 84.076 25.1096 83.852 25.3123 83.564C25.5149 83.2653 25.6163 82.9187 25.6163 82.524C25.6163 82.1187 25.5096 81.772 25.2963 81.484C25.0936 81.1853 24.8056 80.9613 24.4323 80.812C24.0589 80.652 23.6163 80.572 23.1043 80.572C22.6029 80.572 22.1603 80.652 21.7763 80.812C21.4029 80.9613 21.1096 81.1853 20.8963 81.484C20.6936 81.772 20.5923 82.1187 20.5923 82.524C20.5923 82.9187 20.6936 83.2653 20.8963 83.564C21.0989 83.852 21.3869 84.076 21.7603 84.236C22.1443 84.3853 22.5923 84.46 23.1043 84.46ZM30.4356 85.5L37.1556 74.94H38.3716L31.6516 85.5H30.4356ZM30.7396 74.78C31.2623 74.78 31.7103 74.9027 32.0836 75.148C32.4676 75.3827 32.761 75.7187 32.9636 76.156C33.177 76.5933 33.2836 77.1053 33.2836 77.692C33.2836 78.2787 33.177 78.7907 32.9636 79.228C32.761 79.6653 32.4676 80.0067 32.0836 80.252C31.7103 80.4867 31.2623 80.604 30.7396 80.604C30.2276 80.604 29.7796 80.4867 29.3956 80.252C29.0116 80.0067 28.713 79.6653 28.4996 79.228C28.297 78.7907 28.1956 78.2787 28.1956 77.692C28.1956 77.1053 28.297 76.5933 28.4996 76.156C28.713 75.7187 29.0116 75.3827 29.3956 75.148C29.7796 74.9027 30.2276 74.78 30.7396 74.78ZM30.7396 75.788C30.441 75.788 30.185 75.8627 29.9716 76.012C29.7583 76.1613 29.5983 76.38 29.4916 76.668C29.385 76.9453 29.3316 77.2867 29.3316 77.692C29.3316 78.0867 29.385 78.428 29.4916 78.716C29.5983 79.004 29.7583 79.2227 29.9716 79.372C30.185 79.5213 30.441 79.596 30.7396 79.596C31.049 79.596 31.305 79.5213 31.5076 79.372C31.721 79.2227 31.881 79.004 31.9876 78.716C32.0943 78.428 32.1476 78.0867 32.1476 77.692C32.1476 77.2867 32.0943 76.9453 31.9876 76.668C31.881 76.38 31.721 76.1613 31.5076 76.012C31.305 75.8627 31.049 75.788 30.7396 75.788ZM38.0676 79.836C38.5903 79.836 39.0383 79.9587 39.4116 80.204C39.7956 80.4387 40.089 80.7747 40.2916 81.212C40.505 81.6493 40.6116 82.1613 40.6116 82.748C40.6116 83.3347 40.505 83.8467 40.2916 84.284C40.089 84.7213 39.7956 85.0627 39.4116 85.308C39.0383 85.5427 38.5903 85.66 38.0676 85.66C37.5556 85.66 37.1076 85.5427 36.7236 85.308C36.3396 85.0627 36.041 84.7213 35.8276 84.284C35.625 83.8467 35.5236 83.3347 35.5236 82.748C35.5236 82.1613 35.625 81.6493 35.8276 81.212C36.041 80.7747 36.3396 80.4387 36.7236 80.204C37.1076 79.9587 37.5556 79.836 38.0676 79.836ZM38.0676 80.844C37.769 80.844 37.513 80.9187 37.2996 81.068C37.0863 81.2173 36.9263 81.436 36.8196 81.724C36.713 82.0013 36.6596 82.3427 36.6596 82.748C36.6596 83.1427 36.713 83.484 36.8196 83.772C36.9263 84.06 37.0863 84.2787 37.2996 84.428C37.513 84.5773 37.769 84.652 38.0676 84.652C38.377 84.652 38.633 84.5773 38.8356 84.428C39.049 84.2787 39.209 84.06 39.3156 83.772C39.4223 83.484 39.4756 83.1427 39.4756 82.748C39.4756 82.3427 39.4223 82.0013 39.3156 81.724C39.209 81.436 39.049 81.2173 38.8356 81.068C38.633 80.9187 38.377 80.844 38.0676 80.844ZM50.3599 85.66C49.6985 85.66 49.0905 85.4947 48.5359 85.164C47.9812 84.8333 47.5385 84.3587 47.2079 83.74C46.8772 83.1107 46.7119 82.364 46.7119 81.5C46.7119 80.6147 46.8879 79.8627 47.2399 79.244C47.5919 78.6253 48.0559 78.156 48.6319 77.836C49.2079 77.5053 49.8265 77.34 50.4879 77.34C51.1492 77.34 51.7199 77.5107 52.1999 77.852C52.6905 78.1933 53.0159 78.6467 53.1759 79.212L53.0159 79.324V73.82H54.2959V85.5H53.1759L53.0639 83.564L53.2399 83.468C53.1652 83.9373 52.9839 84.3373 52.6959 84.668C52.4185 84.988 52.0719 85.2333 51.6559 85.404C51.2505 85.5747 50.8185 85.66 50.3599 85.66ZM50.4879 84.54C50.9999 84.54 51.4425 84.412 51.8159 84.156C52.1999 83.9 52.4932 83.5373 52.6959 83.068C52.9092 82.588 53.0159 82.028 53.0159 81.388C53.0159 80.78 52.9092 80.2573 52.6959 79.82C52.4932 79.3827 52.2052 79.0467 51.8319 78.812C51.4692 78.5773 51.0425 78.46 50.5519 78.46C49.7412 78.46 49.1119 78.7373 48.6639 79.292C48.2159 79.8467 47.9919 80.5827 47.9919 81.5C47.9919 82.4173 48.2105 83.1533 48.6479 83.708C49.0852 84.2627 49.6985 84.54 50.4879 84.54ZM60.1031 77.34C60.8605 77.34 61.5271 77.5053 62.1031 77.836C62.6898 78.1667 63.1485 78.6467 63.4791 79.276C63.8098 79.8947 63.9751 80.636 63.9751 81.5C63.9751 82.364 63.8098 83.1107 63.4791 83.74C63.1485 84.3587 62.6898 84.8333 62.1031 85.164C61.5271 85.4947 60.8605 85.66 60.1031 85.66C59.3565 85.66 58.6898 85.4947 58.1031 85.164C57.5165 84.8333 57.0578 84.3587 56.7271 83.74C56.3965 83.1107 56.2311 82.364 56.2311 81.5C56.2311 80.636 56.3965 79.8947 56.7271 79.276C57.0578 78.6467 57.5165 78.1667 58.1031 77.836C58.6898 77.5053 59.3565 77.34 60.1031 77.34ZM60.1031 78.444C59.5591 78.444 59.0951 78.5667 58.7111 78.812C58.3271 79.0573 58.0285 79.4093 57.8151 79.868C57.6125 80.316 57.5111 80.86 57.5111 81.5C57.5111 82.1293 57.6125 82.6733 57.8151 83.132C58.0285 83.5907 58.3271 83.9427 58.7111 84.188C59.0951 84.4333 59.5591 84.556 60.1031 84.556C60.6471 84.556 61.1111 84.4333 61.4951 84.188C61.8791 83.9427 62.1725 83.5907 62.3751 83.132C62.5885 82.6733 62.6951 82.1293 62.6951 81.5C62.6951 80.86 62.5885 80.316 62.3751 79.868C62.1725 79.4093 61.8791 79.0573 61.4951 78.812C61.1111 78.5667 60.6471 78.444 60.1031 78.444ZM68.7849 85.66C68.0062 85.66 67.2862 85.4947 66.6249 85.164C65.9742 84.8333 65.4729 84.364 65.1209 83.756L66.2089 82.972C66.4435 83.4627 66.7849 83.8467 67.2329 84.124C67.6915 84.4013 68.2409 84.54 68.8809 84.54C69.4462 84.54 69.8889 84.4333 70.2089 84.22C70.5289 83.996 70.6889 83.708 70.6889 83.356C70.6889 83.132 70.6142 82.9293 70.4649 82.748C70.3262 82.556 70.0542 82.4173 69.6489 82.332L67.7289 81.932C66.9502 81.772 66.3902 81.5053 66.0489 81.132C65.7182 80.7587 65.5529 80.2947 65.5529 79.74C65.5529 79.3027 65.6755 78.9027 65.9209 78.54C66.1769 78.1773 66.5342 77.8893 66.9929 77.676C67.4622 77.452 68.0115 77.34 68.6409 77.34C69.4302 77.34 70.0969 77.4947 70.6409 77.804C71.1849 78.1133 71.5902 78.5507 71.8569 79.116L70.7849 79.82C70.6035 79.3507 70.3102 79.0093 69.9049 78.796C69.4995 78.572 69.0782 78.46 68.6409 78.46C68.2569 78.46 67.9262 78.5133 67.6489 78.62C67.3822 78.7267 67.1742 78.876 67.0249 79.068C66.8862 79.2493 66.8169 79.4573 66.8169 79.692C66.8169 79.9267 66.8969 80.1453 67.0569 80.348C67.2169 80.54 67.5155 80.6787 67.9529 80.764L69.9529 81.18C70.6995 81.3293 71.2222 81.5747 71.5209 81.916C71.8195 82.2573 71.9689 82.6733 71.9689 83.164C71.9689 83.6653 71.8355 84.108 71.5689 84.492C71.3022 84.8653 70.9289 85.1533 70.4489 85.356C69.9689 85.5587 69.4142 85.66 68.7849 85.66ZM81.9555 85.66C81.2942 85.66 80.6862 85.4947 80.1315 85.164C79.5768 84.8333 79.1342 84.3587 78.8035 83.74C78.4728 83.1107 78.3075 82.364 78.3075 81.5C78.3075 80.6147 78.4835 79.8627 78.8355 79.244C79.1875 78.6253 79.6515 78.156 80.2275 77.836C80.8035 77.5053 81.4222 77.34 82.0835 77.34C82.7448 77.34 83.3155 77.5107 83.7955 77.852C84.2862 78.1933 84.6115 78.6467 84.7715 79.212L84.6115 79.324V73.82H85.8915V85.5H84.7715L84.6595 83.564L84.8355 83.468C84.7608 83.9373 84.5795 84.3373 84.2915 84.668C84.0142 84.988 83.6675 85.2333 83.2515 85.404C82.8462 85.5747 82.4142 85.66 81.9555 85.66ZM82.0835 84.54C82.5955 84.54 83.0382 84.412 83.4115 84.156C83.7955 83.9 84.0888 83.5373 84.2915 83.068C84.5048 82.588 84.6115 82.028 84.6115 81.388C84.6115 80.78 84.5048 80.2573 84.2915 79.82C84.0888 79.3827 83.8008 79.0467 83.4275 78.812C83.0648 78.5773 82.6382 78.46 82.1475 78.46C81.3368 78.46 80.7075 78.7373 80.2595 79.292C79.8115 79.8467 79.5875 80.5827 79.5875 81.5C79.5875 82.4173 79.8062 83.1533 80.2435 83.708C80.6808 84.2627 81.2942 84.54 82.0835 84.54ZM89.0268 75.964C88.7388 75.964 88.5041 75.8787 88.3228 75.708C88.1521 75.5267 88.0668 75.292 88.0668 75.004C88.0668 74.716 88.1521 74.4867 88.3228 74.316C88.5041 74.1347 88.7388 74.044 89.0268 74.044C89.3148 74.044 89.5441 74.1347 89.7148 74.316C89.8961 74.4867 89.9868 74.716 89.9868 75.004C89.9868 75.292 89.8961 75.5267 89.7148 75.708C89.5441 75.8787 89.3148 75.964 89.0268 75.964ZM89.6668 77.5V85.5H88.3868V77.5H89.6668ZM92.1567 88.86V77.5H93.2767L93.3887 79.452L93.2127 79.228C93.3514 78.8547 93.5594 78.5293 93.8367 78.252C94.1141 77.964 94.4501 77.74 94.8447 77.58C95.2394 77.42 95.6661 77.34 96.1247 77.34C96.7754 77.34 97.3727 77.5053 97.9167 77.836C98.4714 78.1667 98.9141 78.6413 99.2447 79.26C99.5754 79.8787 99.7407 80.6253 99.7407 81.5C99.7407 82.364 99.5701 83.1107 99.2287 83.74C98.8981 84.3587 98.4554 84.8333 97.9007 85.164C97.3461 85.4947 96.7381 85.66 96.0767 85.66C95.4154 85.66 94.8341 85.5 94.3327 85.18C93.8421 84.8493 93.4901 84.4333 93.2767 83.932L93.4367 83.692V88.86H92.1567ZM95.9487 84.54C96.7381 84.54 97.3514 84.2627 97.7887 83.708C98.2367 83.1533 98.4607 82.4173 98.4607 81.5C98.4607 80.5827 98.2421 79.8467 97.8047 79.292C97.3781 78.7373 96.7754 78.46 95.9967 78.46C95.4847 78.46 95.0367 78.588 94.6527 78.844C94.2687 79.0893 93.9701 79.4413 93.7567 79.9C93.5434 80.348 93.4367 80.8813 93.4367 81.5C93.4367 82.108 93.5381 82.6413 93.7407 83.1C93.9541 83.5587 94.2474 83.916 94.6207 84.172C95.0047 84.4173 95.4474 84.54 95.9487 84.54ZM102.924 73.82V83.468C102.924 83.8733 102.999 84.156 103.148 84.316C103.297 84.4653 103.537 84.54 103.868 84.54C104.081 84.54 104.257 84.524 104.396 84.492C104.535 84.46 104.721 84.4013 104.956 84.316L104.748 85.436C104.577 85.5107 104.391 85.564 104.188 85.596C103.985 85.6387 103.777 85.66 103.564 85.66C102.913 85.66 102.428 85.484 102.108 85.132C101.799 84.78 101.644 84.2413 101.644 83.516V73.82H102.924ZM109.431 77.34C110.188 77.34 110.855 77.5053 111.431 77.836C112.017 78.1667 112.476 78.6467 112.807 79.276C113.137 79.8947 113.303 80.636 113.303 81.5C113.303 82.364 113.137 83.1107 112.807 83.74C112.476 84.3587 112.017 84.8333 111.431 85.164C110.855 85.4947 110.188 85.66 109.431 85.66C108.684 85.66 108.017 85.4947 107.431 85.164C106.844 84.8333 106.385 84.3587 106.055 83.74C105.724 83.1107 105.559 82.364 105.559 81.5C105.559 80.636 105.724 79.8947 106.055 79.276C106.385 78.6467 106.844 78.1667 107.431 77.836C108.017 77.5053 108.684 77.34 109.431 77.34ZM109.431 78.444C108.887 78.444 108.423 78.5667 108.039 78.812C107.655 79.0573 107.356 79.4093 107.143 79.868C106.94 80.316 106.839 80.86 106.839 81.5C106.839 82.1293 106.94 82.6733 107.143 83.132C107.356 83.5907 107.655 83.9427 108.039 84.188C108.423 84.4333 108.887 84.556 109.431 84.556C109.975 84.556 110.439 84.4333 110.823 84.188C111.207 83.9427 111.5 83.5907 111.703 83.132C111.916 82.6733 112.023 82.1293 112.023 81.5C112.023 80.86 111.916 80.316 111.703 79.868C111.5 79.4093 111.207 79.0573 110.823 78.812C110.439 78.5667 109.975 78.444 109.431 78.444ZM115.232 85.5V77.5H116.352L116.432 78.748C116.72 78.2573 117.094 77.9 117.552 77.676C118.022 77.452 118.502 77.34 118.992 77.34C119.558 77.34 120.091 77.468 120.592 77.724C121.094 77.98 121.478 78.3747 121.744 78.908C121.915 78.5453 122.155 78.252 122.464 78.028C122.774 77.7933 123.11 77.6227 123.472 77.516C123.846 77.3987 124.198 77.34 124.528 77.34C125.04 77.34 125.526 77.4467 125.984 77.66C126.454 77.8733 126.838 78.204 127.136 78.652C127.435 79.1 127.584 79.676 127.584 80.38V85.5H126.304V80.508C126.304 79.7827 126.123 79.26 125.76 78.94C125.398 78.62 124.95 78.46 124.416 78.46C124 78.46 123.611 78.5613 123.248 78.764C122.886 78.9667 122.592 79.2653 122.368 79.66C122.155 80.0547 122.048 80.54 122.048 81.116V85.5H120.768V80.508C120.768 79.7827 120.587 79.26 120.224 78.94C119.862 78.62 119.414 78.46 118.88 78.46C118.528 78.46 118.166 78.556 117.792 78.748C117.43 78.9293 117.126 79.2227 116.88 79.628C116.635 80.0333 116.512 80.5667 116.512 81.228V85.5H115.232ZM134.674 80.332C134.674 79.7347 134.514 79.276 134.194 78.956C133.874 78.6253 133.421 78.46 132.834 78.46C132.28 78.46 131.81 78.5827 131.426 78.828C131.042 79.0627 130.76 79.4467 130.578 79.98L129.538 79.34C129.752 78.7427 130.146 78.2627 130.722 77.9C131.298 77.5267 132.013 77.34 132.866 77.34C133.442 77.34 133.965 77.4413 134.434 77.644C134.904 77.836 135.272 78.1347 135.538 78.54C135.816 78.9347 135.954 79.4467 135.954 80.076V83.948C135.954 84.332 136.157 84.524 136.562 84.524C136.765 84.524 136.962 84.4973 137.154 84.444L137.09 85.452C136.877 85.5587 136.6 85.612 136.258 85.612C135.949 85.612 135.672 85.5533 135.426 85.436C135.181 85.3187 134.989 85.1427 134.85 84.908C134.712 84.6627 134.642 84.3587 134.642 83.996V83.836L134.962 83.884C134.834 84.3 134.616 84.6413 134.306 84.908C133.997 85.164 133.65 85.356 133.266 85.484C132.882 85.6013 132.504 85.66 132.13 85.66C131.661 85.66 131.224 85.58 130.818 85.42C130.413 85.26 130.088 85.02 129.842 84.7C129.608 84.3693 129.49 83.964 129.49 83.484C129.49 82.8867 129.688 82.396 130.082 82.012C130.488 81.6173 131.048 81.3507 131.762 81.212L134.93 80.588V81.644L132.354 82.172C131.832 82.2787 131.442 82.428 131.186 82.62C130.93 82.812 130.802 83.0787 130.802 83.42C130.802 83.7507 130.93 84.0227 131.186 84.236C131.453 84.4387 131.826 84.54 132.306 84.54C132.616 84.54 132.909 84.5027 133.186 84.428C133.474 84.3427 133.73 84.22 133.954 84.06C134.178 83.8893 134.354 83.6813 134.482 83.436C134.61 83.18 134.674 82.8813 134.674 82.54V80.332ZM141.705 85.66C141.044 85.66 140.436 85.4947 139.881 85.164C139.326 84.8333 138.884 84.3587 138.553 83.74C138.222 83.1107 138.057 82.364 138.057 81.5C138.057 80.6147 138.233 79.8627 138.585 79.244C138.937 78.6253 139.401 78.156 139.977 77.836C140.553 77.5053 141.172 77.34 141.833 77.34C142.494 77.34 143.065 77.5107 143.545 77.852C144.036 78.1933 144.361 78.6467 144.521 79.212L144.361 79.324V73.82H145.641V85.5H144.521L144.409 83.564L144.585 83.468C144.51 83.9373 144.329 84.3373 144.041 84.668C143.764 84.988 143.417 85.2333 143.001 85.404C142.596 85.5747 142.164 85.66 141.705 85.66ZM141.833 84.54C142.345 84.54 142.788 84.412 143.161 84.156C143.545 83.9 143.838 83.5373 144.041 83.068C144.254 82.588 144.361 82.028 144.361 81.388C144.361 80.78 144.254 80.2573 144.041 79.82C143.838 79.3827 143.55 79.0467 143.177 78.812C142.814 78.5773 142.388 78.46 141.897 78.46C141.086 78.46 140.457 78.7373 140.009 79.292C139.561 79.8467 139.337 80.5827 139.337 81.5C139.337 82.4173 139.556 83.1533 139.993 83.708C140.43 84.2627 141.044 84.54 141.833 84.54ZM151.448 77.34C152.205 77.34 152.872 77.5053 153.448 77.836C154.035 78.1667 154.493 78.6467 154.824 79.276C155.155 79.8947 155.32 80.636 155.32 81.5C155.32 82.364 155.155 83.1107 154.824 83.74C154.493 84.3587 154.035 84.8333 153.448 85.164C152.872 85.4947 152.205 85.66 151.448 85.66C150.701 85.66 150.035 85.4947 149.448 85.164C148.861 84.8333 148.403 84.3587 148.072 83.74C147.741 83.1107 147.576 82.364 147.576 81.5C147.576 80.636 147.741 79.8947 148.072 79.276C148.403 78.6467 148.861 78.1667 149.448 77.836C150.035 77.5053 150.701 77.34 151.448 77.34ZM151.448 78.444C150.904 78.444 150.44 78.5667 150.056 78.812C149.672 79.0573 149.373 79.4093 149.16 79.868C148.957 80.316 148.856 80.86 148.856 81.5C148.856 82.1293 148.957 82.6733 149.16 83.132C149.373 83.5907 149.672 83.9427 150.056 84.188C150.44 84.4333 150.904 84.556 151.448 84.556C151.992 84.556 152.456 84.4333 152.84 84.188C153.224 83.9427 153.517 83.5907 153.72 83.132C153.933 82.6733 154.04 82.1293 154.04 81.5C154.04 80.86 153.933 80.316 153.72 79.868C153.517 79.4093 153.224 79.0573 152.84 78.812C152.456 78.5667 151.992 78.444 151.448 78.444ZM160.13 85.66C159.351 85.66 158.631 85.4947 157.97 85.164C157.319 84.8333 156.818 84.364 156.466 83.756L157.554 82.972C157.789 83.4627 158.13 83.8467 158.578 84.124C159.037 84.4013 159.586 84.54 160.226 84.54C160.791 84.54 161.234 84.4333 161.554 84.22C161.874 83.996 162.034 83.708 162.034 83.356C162.034 83.132 161.959 82.9293 161.81 82.748C161.671 82.556 161.399 82.4173 160.994 82.332L159.074 81.932C158.295 81.772 157.735 81.5053 157.394 81.132C157.063 80.7587 156.898 80.2947 156.898 79.74C156.898 79.3027 157.021 78.9027 157.266 78.54C157.522 78.1773 157.879 77.8893 158.338 77.676C158.807 77.452 159.357 77.34 159.986 77.34C160.775 77.34 161.442 77.4947 161.986 77.804C162.53 78.1133 162.935 78.5507 163.202 79.116L162.13 79.82C161.949 79.3507 161.655 79.0093 161.25 78.796C160.845 78.572 160.423 78.46 159.986 78.46C159.602 78.46 159.271 78.5133 158.994 78.62C158.727 78.7267 158.519 78.876 158.37 79.068C158.231 79.2493 158.162 79.4573 158.162 79.692C158.162 79.9267 158.242 80.1453 158.402 80.348C158.562 80.54 158.861 80.6787 159.298 80.764L161.298 81.18C162.045 81.3293 162.567 81.5747 162.866 81.916C163.165 82.2573 163.314 82.6733 163.314 83.164C163.314 83.6653 163.181 84.108 162.914 84.492C162.647 84.8653 162.274 85.1533 161.794 85.356C161.314 85.5587 160.759 85.66 160.13 85.66ZM14.832 104.66C14.0747 104.66 13.3973 104.495 12.8 104.164C12.2133 103.833 11.7547 103.359 11.424 102.74C11.0933 102.111 10.928 101.364 10.928 100.5C10.928 99.636 11.0933 98.8947 11.424 98.276C11.7547 97.6467 12.208 97.1667 12.784 96.836C13.36 96.5053 14.016 96.34 14.752 96.34C15.4987 96.34 16.1333 96.5 16.656 96.82C17.1893 97.14 17.5947 97.5773 17.872 98.132C18.1493 98.676 18.288 99.2893 18.288 99.972C18.288 100.153 18.2827 100.319 18.272 100.468C18.2613 100.617 18.2453 100.751 18.224 100.868H11.76V99.732H17.664L17.008 99.86C17.008 99.092 16.7947 98.5 16.368 98.084C15.952 97.668 15.4027 97.46 14.72 97.46C14.1973 97.46 13.744 97.5827 13.36 97.828C12.9867 98.0627 12.6933 98.4093 12.48 98.868C12.2773 99.316 12.176 99.86 12.176 100.5C12.176 101.129 12.2827 101.673 12.496 102.132C12.7093 102.591 13.008 102.943 13.392 103.188C13.7867 103.423 14.256 103.54 14.8 103.54C15.3867 103.54 15.8613 103.428 16.224 103.204C16.5973 102.98 16.896 102.676 17.12 102.292L18.128 102.884C17.9253 103.247 17.664 103.561 17.344 103.828C17.0347 104.095 16.6667 104.303 16.24 104.452C15.824 104.591 15.3547 104.66 14.832 104.66ZM23.1224 104.66C22.3437 104.66 21.6237 104.495 20.9624 104.164C20.3117 103.833 19.8104 103.364 19.4584 102.756L20.5464 101.972C20.781 102.463 21.1224 102.847 21.5704 103.124C22.029 103.401 22.5784 103.54 23.2184 103.54C23.7837 103.54 24.2264 103.433 24.5464 103.22C24.8664 102.996 25.0264 102.708 25.0264 102.356C25.0264 102.132 24.9517 101.929 24.8024 101.748C24.6637 101.556 24.3917 101.417 23.9864 101.332L22.0664 100.932C21.2877 100.772 20.7277 100.505 20.3864 100.132C20.0557 99.7587 19.8904 99.2947 19.8904 98.74C19.8904 98.3027 20.013 97.9027 20.2584 97.54C20.5144 97.1773 20.8717 96.8893 21.3304 96.676C21.7997 96.452 22.349 96.34 22.9784 96.34C23.7677 96.34 24.4344 96.4947 24.9784 96.804C25.5224 97.1133 25.9277 97.5507 26.1944 98.116L25.1224 98.82C24.941 98.3507 24.6477 98.0093 24.2424 97.796C23.837 97.572 23.4157 97.46 22.9784 97.46C22.5944 97.46 22.2637 97.5133 21.9864 97.62C21.7197 97.7267 21.5117 97.876 21.3624 98.068C21.2237 98.2493 21.1544 98.4573 21.1544 98.692C21.1544 98.9267 21.2344 99.1453 21.3944 99.348C21.5544 99.54 21.853 99.6787 22.2904 99.764L24.2904 100.18C25.037 100.329 25.5597 100.575 25.8584 100.916C26.157 101.257 26.3064 101.673 26.3064 102.164C26.3064 102.665 26.173 103.108 25.9064 103.492C25.6397 103.865 25.2664 104.153 24.7864 104.356C24.3064 104.559 23.7517 104.66 23.1224 104.66ZM30.0879 94.228V102.292C30.0879 102.687 30.1999 102.98 30.4239 103.172C30.6479 103.364 30.9359 103.46 31.2879 103.46C31.5972 103.46 31.8639 103.407 32.0879 103.3C32.3119 103.193 32.5145 103.049 32.6959 102.868L33.1439 103.94C32.8985 104.164 32.6052 104.34 32.2639 104.468C31.9332 104.596 31.5492 104.66 31.1119 104.66C30.7065 104.66 30.3279 104.591 29.9759 104.452C29.6239 104.303 29.3412 104.073 29.1279 103.764C28.9252 103.444 28.8185 103.028 28.8079 102.516V94.58L30.0879 94.228ZM32.9999 96.5V97.604H27.2079V96.5H32.9999ZM39.095 99.332C39.095 98.7347 38.935 98.276 38.615 97.956C38.295 97.6253 37.8417 97.46 37.255 97.46C36.7003 97.46 36.231 97.5827 35.847 97.828C35.463 98.0627 35.1803 98.4467 34.999 98.98L33.959 98.34C34.1723 97.7427 34.567 97.2627 35.143 96.9C35.719 96.5267 36.4337 96.34 37.287 96.34C37.863 96.34 38.3857 96.4413 38.855 96.644C39.3243 96.836 39.6923 97.1347 39.959 97.54C40.2363 97.9347 40.375 98.4467 40.375 99.076V102.948C40.375 103.332 40.5777 103.524 40.983 103.524C41.1857 103.524 41.383 103.497 41.575 103.444L41.511 104.452C41.2977 104.559 41.0203 104.612 40.679 104.612C40.3697 104.612 40.0923 104.553 39.847 104.436C39.6017 104.319 39.4097 104.143 39.271 103.908C39.1323 103.663 39.063 103.359 39.063 102.996V102.836L39.383 102.884C39.255 103.3 39.0363 103.641 38.727 103.908C38.4177 104.164 38.071 104.356 37.687 104.484C37.303 104.601 36.9243 104.66 36.551 104.66C36.0817 104.66 35.6443 104.58 35.239 104.42C34.8337 104.26 34.5083 104.02 34.263 103.7C34.0283 103.369 33.911 102.964 33.911 102.484C33.911 101.887 34.1083 101.396 34.503 101.012C34.9083 100.617 35.4683 100.351 36.183 100.212L39.351 99.588V100.644L36.775 101.172C36.2523 101.279 35.863 101.428 35.607 101.62C35.351 101.812 35.223 102.079 35.223 102.42C35.223 102.751 35.351 103.023 35.607 103.236C35.8737 103.439 36.247 103.54 36.727 103.54C37.0363 103.54 37.3297 103.503 37.607 103.428C37.895 103.343 38.151 103.22 38.375 103.06C38.599 102.889 38.775 102.681 38.903 102.436C39.031 102.18 39.095 101.881 39.095 101.54V99.332ZM40.231 93.028C40.199 93.4973 40.1083 93.892 39.959 94.212C39.8203 94.532 39.623 94.772 39.367 94.932C39.1217 95.092 38.8123 95.172 38.439 95.172C38.1403 95.172 37.8843 95.1187 37.671 95.012C37.4683 94.8947 37.2923 94.7667 37.143 94.628C36.9937 94.4893 36.8443 94.3667 36.695 94.26C36.5563 94.1427 36.4017 94.084 36.231 94.084C35.9963 94.084 35.8203 94.1853 35.703 94.388C35.5857 94.58 35.5003 94.8467 35.447 95.188H34.439C34.4923 94.484 34.663 93.9507 34.951 93.588C35.2497 93.2253 35.6817 93.044 36.247 93.044C36.535 93.044 36.7803 93.1027 36.983 93.22C37.1963 93.3267 37.3777 93.4493 37.527 93.588C37.687 93.7267 37.8363 93.8547 37.975 93.972C38.1137 94.0787 38.263 94.132 38.423 94.132C38.6683 94.132 38.8497 94.036 38.967 93.844C39.0843 93.6413 39.1697 93.3693 39.223 93.028H40.231ZM46.3175 96.34C47.0748 96.34 47.7415 96.5053 48.3175 96.836C48.9042 97.1667 49.3628 97.6467 49.6935 98.276C50.0242 98.8947 50.1895 99.636 50.1895 100.5C50.1895 101.364 50.0242 102.111 49.6935 102.74C49.3628 103.359 48.9042 103.833 48.3175 104.164C47.7415 104.495 47.0748 104.66 46.3175 104.66C45.5708 104.66 44.9042 104.495 44.3175 104.164C43.7308 103.833 43.2722 103.359 42.9415 102.74C42.6108 102.111 42.4455 101.364 42.4455 100.5C42.4455 99.636 42.6108 98.8947 42.9415 98.276C43.2722 97.6467 43.7308 97.1667 44.3175 96.836C44.9042 96.5053 45.5708 96.34 46.3175 96.34ZM46.3175 97.444C45.7735 97.444 45.3095 97.5667 44.9255 97.812C44.5415 98.0573 44.2428 98.4093 44.0295 98.868C43.8268 99.316 43.7255 99.86 43.7255 100.5C43.7255 101.129 43.8268 101.673 44.0295 102.132C44.2428 102.591 44.5415 102.943 44.9255 103.188C45.3095 103.433 45.7735 103.556 46.3175 103.556C46.8615 103.556 47.3255 103.433 47.7095 103.188C48.0935 102.943 48.3868 102.591 48.5895 102.132C48.8028 101.673 48.9095 101.129 48.9095 100.5C48.9095 99.86 48.8028 99.316 48.5895 98.868C48.3868 98.4093 48.0935 98.0573 47.7095 97.812C47.3255 97.5667 46.8615 97.444 46.3175 97.444ZM60.4364 104.66C59.679 104.66 59.0017 104.495 58.4044 104.164C57.8177 103.833 57.359 103.359 57.0284 102.74C56.6977 102.111 56.5324 101.364 56.5324 100.5C56.5324 99.636 56.6977 98.8947 57.0284 98.276C57.359 97.6467 57.8124 97.1667 58.3884 96.836C58.9644 96.5053 59.6204 96.34 60.3564 96.34C61.103 96.34 61.7377 96.5 62.2604 96.82C62.7937 97.14 63.199 97.5773 63.4764 98.132C63.7537 98.676 63.8924 99.2893 63.8924 99.972C63.8924 100.153 63.887 100.319 63.8764 100.468C63.8657 100.617 63.8497 100.751 63.8284 100.868H57.3644V99.732H63.2684L62.6124 99.86C62.6124 99.092 62.399 98.5 61.9724 98.084C61.5564 97.668 61.007 97.46 60.3244 97.46C59.8017 97.46 59.3484 97.5827 58.9644 97.828C58.591 98.0627 58.2977 98.4093 58.0844 98.868C57.8817 99.316 57.7804 99.86 57.7804 100.5C57.7804 101.129 57.887 101.673 58.1004 102.132C58.3137 102.591 58.6124 102.943 58.9964 103.188C59.391 103.423 59.8604 103.54 60.4044 103.54C60.991 103.54 61.4657 103.428 61.8284 103.204C62.2017 102.98 62.5004 102.676 62.7244 102.292L63.7324 102.884C63.5297 103.247 63.2684 103.561 62.9484 103.828C62.639 104.095 62.271 104.303 61.8444 104.452C61.4284 104.591 60.959 104.66 60.4364 104.66ZM65.8467 104.5V96.5H66.9667L67.0467 97.748C67.3347 97.2573 67.7081 96.9 68.1667 96.676C68.6361 96.452 69.1161 96.34 69.6067 96.34C70.1721 96.34 70.7054 96.468 71.2067 96.724C71.7081 96.98 72.0921 97.3747 72.3587 97.908C72.5294 97.5453 72.7694 97.252 73.0787 97.028C73.3881 96.7933 73.7241 96.6227 74.0868 96.516C74.4601 96.3987 74.8121 96.34 75.1427 96.34C75.6548 96.34 76.1401 96.4467 76.5988 96.66C77.0681 96.8733 77.4521 97.204 77.7507 97.652C78.0494 98.1 78.1988 98.676 78.1988 99.38V104.5H76.9187V99.508C76.9187 98.7827 76.7374 98.26 76.3748 97.94C76.0121 97.62 75.5641 97.46 75.0308 97.46C74.6147 97.46 74.2254 97.5613 73.8628 97.764C73.5001 97.9667 73.2067 98.2653 72.9827 98.66C72.7694 99.0547 72.6628 99.54 72.6628 100.116V104.5H71.3827V99.508C71.3827 98.7827 71.2014 98.26 70.8387 97.94C70.4761 97.62 70.0281 97.46 69.4947 97.46C69.1427 97.46 68.7801 97.556 68.4067 97.748C68.0441 97.9293 67.7401 98.2227 67.4947 98.628C67.2494 99.0333 67.1267 99.5667 67.1267 100.228V104.5H65.8467ZM80.6168 107.86V96.5H81.7368L81.8488 98.452L81.6728 98.228C81.8114 97.8547 82.0194 97.5293 82.2968 97.252C82.5741 96.964 82.9101 96.74 83.3048 96.58C83.6994 96.42 84.1261 96.34 84.5848 96.34C85.2354 96.34 85.8328 96.5053 86.3768 96.836C86.9314 97.1667 87.3741 97.6413 87.7048 98.26C88.0354 98.8787 88.2008 99.6253 88.2008 100.5C88.2008 101.364 88.0301 102.111 87.6888 102.74C87.3581 103.359 86.9154 103.833 86.3608 104.164C85.8061 104.495 85.1981 104.66 84.5368 104.66C83.8754 104.66 83.2941 104.5 82.7928 104.18C82.3021 103.849 81.9501 103.433 81.7368 102.932L81.8968 102.692V107.86H80.6168ZM84.4088 103.54C85.1981 103.54 85.8114 103.263 86.2488 102.708C86.6968 102.153 86.9208 101.417 86.9208 100.5C86.9208 99.5827 86.7021 98.8467 86.2648 98.292C85.8381 97.7373 85.2354 97.46 84.4568 97.46C83.9448 97.46 83.4968 97.588 83.1128 97.844C82.7288 98.0893 82.4301 98.4413 82.2168 98.9C82.0034 99.348 81.8968 99.8813 81.8968 100.5C81.8968 101.108 81.9981 101.641 82.2008 102.1C82.4141 102.559 82.7074 102.916 83.0808 103.172C83.4648 103.417 83.9074 103.54 84.4088 103.54ZM90.168 104.5V96.5H91.208L91.384 97.812C91.608 97.3213 91.9333 96.9533 92.36 96.708C92.7973 96.4627 93.3253 96.34 93.944 96.34C94.0827 96.34 94.232 96.3507 94.392 96.372C94.5627 96.3933 94.7067 96.436 94.824 96.5L94.6 97.668C94.4827 97.6253 94.3547 97.5933 94.216 97.572C94.0773 97.5507 93.88 97.54 93.624 97.54C93.2933 97.54 92.9573 97.636 92.616 97.828C92.2853 98.02 92.008 98.3133 91.784 98.708C91.56 99.092 91.448 99.5827 91.448 100.18V104.5H90.168ZM99.3132 104.66C98.5559 104.66 97.8786 104.495 97.2812 104.164C96.6946 103.833 96.2359 103.359 95.9052 102.74C95.5746 102.111 95.4092 101.364 95.4092 100.5C95.4092 99.636 95.5746 98.8947 95.9052 98.276C96.2359 97.6467 96.6892 97.1667 97.2652 96.836C97.8412 96.5053 98.4972 96.34 99.2332 96.34C99.9799 96.34 100.615 96.5 101.137 96.82C101.671 97.14 102.076 97.5773 102.353 98.132C102.631 98.676 102.769 99.2893 102.769 99.972C102.769 100.153 102.764 100.319 102.753 100.468C102.743 100.617 102.727 100.751 102.705 100.868H96.2412V99.732H102.145L101.489 99.86C101.489 99.092 101.276 98.5 100.849 98.084C100.433 97.668 99.8839 97.46 99.2012 97.46C98.6786 97.46 98.2252 97.5827 97.8412 97.828C97.4679 98.0627 97.1746 98.4093 96.9612 98.868C96.7586 99.316 96.6572 99.86 96.6572 100.5C96.6572 101.129 96.7639 101.673 96.9772 102.132C97.1906 102.591 97.4892 102.943 97.8732 103.188C98.2679 103.423 98.7372 103.54 99.2812 103.54C99.8679 103.54 100.343 103.428 100.705 103.204C101.079 102.98 101.377 102.676 101.601 102.292L102.609 102.884C102.407 103.247 102.145 103.561 101.825 103.828C101.516 104.095 101.148 104.303 100.721 104.452C100.305 104.591 99.8359 104.66 99.3132 104.66ZM111.46 95.028L111.748 96.164C111.737 96.164 111.721 96.164 111.7 96.164C111.678 96.164 111.657 96.164 111.636 96.164C111.113 96.164 110.708 96.2707 110.42 96.484C110.142 96.6867 110.004 97.0173 110.004 97.476L109.22 97.076C109.22 96.66 109.316 96.2973 109.508 95.988C109.7 95.6787 109.961 95.444 110.292 95.284C110.622 95.1133 110.985 95.028 111.38 95.028C111.39 95.028 111.401 95.028 111.412 95.028C111.433 95.028 111.449 95.028 111.46 95.028ZM109.028 103.476C109.785 103.476 110.377 103.652 110.804 104.004C111.23 104.345 111.444 104.804 111.444 105.38C111.444 105.903 111.268 106.356 110.916 106.74C110.574 107.124 110.11 107.417 109.524 107.62C108.948 107.833 108.297 107.94 107.572 107.94C106.313 107.94 105.369 107.727 104.74 107.3C104.121 106.873 103.812 106.361 103.812 105.764C103.812 105.337 103.95 104.953 104.228 104.612C104.516 104.281 104.996 104.095 105.668 104.052L105.556 104.292C105.193 104.196 104.884 104.036 104.628 103.812C104.382 103.577 104.26 103.241 104.26 102.804C104.26 102.367 104.42 101.993 104.74 101.684C105.07 101.364 105.556 101.167 106.196 101.092L107.044 101.524H106.884C106.361 101.577 105.988 101.711 105.764 101.924C105.55 102.127 105.444 102.351 105.444 102.596C105.444 102.895 105.55 103.119 105.764 103.268C105.988 103.407 106.297 103.476 106.692 103.476H109.028ZM107.556 106.868C108.174 106.868 108.681 106.804 109.076 106.676C109.481 106.548 109.78 106.383 109.972 106.18C110.164 105.977 110.26 105.759 110.26 105.524C110.26 105.236 110.142 105.007 109.908 104.836C109.684 104.665 109.273 104.58 108.676 104.58H106.212C105.87 104.58 105.582 104.665 105.348 104.836C105.113 105.017 104.996 105.263 104.996 105.572C104.996 105.967 105.22 106.281 105.668 106.516C106.126 106.751 106.756 106.868 107.556 106.868ZM107.444 96.34C108.084 96.34 108.649 96.4573 109.14 96.692C109.641 96.916 110.03 97.2307 110.308 97.636C110.585 98.0413 110.724 98.5107 110.724 99.044C110.724 99.5667 110.585 100.036 110.308 100.452C110.03 100.857 109.641 101.177 109.14 101.412C108.649 101.636 108.084 101.748 107.444 101.748C106.388 101.748 105.577 101.497 105.012 100.996C104.446 100.484 104.164 99.8333 104.164 99.044C104.164 98.5107 104.302 98.0413 104.58 97.636C104.868 97.2307 105.257 96.916 105.748 96.692C106.238 96.4573 106.804 96.34 107.444 96.34ZM107.444 97.38C106.889 97.38 106.425 97.5347 106.052 97.844C105.678 98.1427 105.492 98.5427 105.492 99.044C105.492 99.5347 105.678 99.9347 106.052 100.244C106.425 100.553 106.889 100.708 107.444 100.708C107.998 100.708 108.462 100.553 108.836 100.244C109.209 99.9347 109.396 99.5347 109.396 99.044C109.396 98.5427 109.209 98.1427 108.836 97.844C108.462 97.5347 107.998 97.38 107.444 97.38ZM117.431 99.332C117.431 98.7347 117.271 98.276 116.951 97.956C116.631 97.6253 116.178 97.46 115.591 97.46C115.037 97.46 114.567 97.5827 114.183 97.828C113.799 98.0627 113.517 98.4467 113.335 98.98L112.295 98.34C112.509 97.7427 112.903 97.2627 113.479 96.9C114.055 96.5267 114.77 96.34 115.623 96.34C116.199 96.34 116.722 96.4413 117.191 96.644C117.661 96.836 118.029 97.1347 118.295 97.54C118.573 97.9347 118.711 98.4467 118.711 99.076V102.948C118.711 103.332 118.914 103.524 119.319 103.524C119.522 103.524 119.719 103.497 119.911 103.444L119.847 104.452C119.634 104.559 119.357 104.612 119.015 104.612C118.706 104.612 118.429 104.553 118.183 104.436C117.938 104.319 117.746 104.143 117.607 103.908C117.469 103.663 117.399 103.359 117.399 102.996V102.836L117.719 102.884C117.591 103.3 117.373 103.641 117.063 103.908C116.754 104.164 116.407 104.356 116.023 104.484C115.639 104.601 115.261 104.66 114.887 104.66C114.418 104.66 113.981 104.58 113.575 104.42C113.17 104.26 112.845 104.02 112.599 103.7C112.365 103.369 112.247 102.964 112.247 102.484C112.247 101.887 112.445 101.396 112.839 101.012C113.245 100.617 113.805 100.351 114.519 100.212L117.687 99.588V100.644L115.111 101.172C114.589 101.279 114.199 101.428 113.943 101.62C113.687 101.812 113.559 102.079 113.559 102.42C113.559 102.751 113.687 103.023 113.943 103.236C114.21 103.439 114.583 103.54 115.063 103.54C115.373 103.54 115.666 103.503 115.943 103.428C116.231 103.343 116.487 103.22 116.711 103.06C116.935 102.889 117.111 102.681 117.239 102.436C117.367 102.18 117.431 101.881 117.431 101.54V99.332ZM124.462 104.66C123.8 104.66 123.192 104.495 122.638 104.164C122.083 103.833 121.64 103.359 121.31 102.74C120.979 102.111 120.814 101.364 120.814 100.5C120.814 99.6147 120.99 98.8627 121.342 98.244C121.694 97.6253 122.158 97.156 122.734 96.836C123.31 96.5053 123.928 96.34 124.59 96.34C125.251 96.34 125.822 96.5107 126.302 96.852C126.792 97.1933 127.118 97.6467 127.278 98.212L127.118 98.324V92.82H128.398V104.5H127.278L127.166 102.564L127.342 102.468C127.267 102.937 127.086 103.337 126.798 103.668C126.52 103.988 126.174 104.233 125.758 104.404C125.352 104.575 124.92 104.66 124.462 104.66ZM124.59 103.54C125.102 103.54 125.544 103.412 125.918 103.156C126.302 102.9 126.595 102.537 126.798 102.068C127.011 101.588 127.118 101.028 127.118 100.388C127.118 99.78 127.011 99.2573 126.798 98.82C126.595 98.3827 126.307 98.0467 125.934 97.812C125.571 97.5773 125.144 97.46 124.654 97.46C123.843 97.46 123.214 97.7373 122.766 98.292C122.318 98.8467 122.094 99.5827 122.094 100.5C122.094 101.417 122.312 102.153 122.75 102.708C123.187 103.263 123.8 103.54 124.59 103.54ZM134.205 96.34C134.962 96.34 135.629 96.5053 136.205 96.836C136.792 97.1667 137.25 97.6467 137.581 98.276C137.912 98.8947 138.077 99.636 138.077 100.5C138.077 101.364 137.912 102.111 137.581 102.74C137.25 103.359 136.792 103.833 136.205 104.164C135.629 104.495 134.962 104.66 134.205 104.66C133.458 104.66 132.792 104.495 132.205 104.164C131.618 103.833 131.16 103.359 130.829 102.74C130.498 102.111 130.333 101.364 130.333 100.5C130.333 99.636 130.498 98.8947 130.829 98.276C131.16 97.6467 131.618 97.1667 132.205 96.836C132.792 96.5053 133.458 96.34 134.205 96.34ZM134.205 97.444C133.661 97.444 133.197 97.5667 132.813 97.812C132.429 98.0573 132.13 98.4093 131.917 98.868C131.714 99.316 131.613 99.86 131.613 100.5C131.613 101.129 131.714 101.673 131.917 102.132C132.13 102.591 132.429 102.943 132.813 103.188C133.197 103.433 133.661 103.556 134.205 103.556C134.749 103.556 135.213 103.433 135.597 103.188C135.981 102.943 136.274 102.591 136.477 102.132C136.69 101.673 136.797 101.129 136.797 100.5C136.797 99.86 136.69 99.316 136.477 98.868C136.274 98.4093 135.981 98.0573 135.597 97.812C135.213 97.5667 134.749 97.444 134.205 97.444ZM142.887 104.66C142.108 104.66 141.388 104.495 140.727 104.164C140.076 103.833 139.575 103.364 139.223 102.756L140.311 101.972C140.545 102.463 140.887 102.847 141.335 103.124C141.793 103.401 142.343 103.54 142.983 103.54C143.548 103.54 143.991 103.433 144.311 103.22C144.631 102.996 144.791 102.708 144.791 102.356C144.791 102.132 144.716 101.929 144.567 101.748C144.428 101.556 144.156 101.417 143.751 101.332L141.831 100.932C141.052 100.772 140.492 100.505 140.151 100.132C139.82 99.7587 139.655 99.2947 139.655 98.74C139.655 98.3027 139.777 97.9027 140.023 97.54C140.279 97.1773 140.636 96.8893 141.095 96.676C141.564 96.452 142.113 96.34 142.743 96.34C143.532 96.34 144.199 96.4947 144.743 96.804C145.287 97.1133 145.692 97.5507 145.959 98.116L144.887 98.82C144.705 98.3507 144.412 98.0093 144.007 97.796C143.601 97.572 143.18 97.46 142.743 97.46C142.359 97.46 142.028 97.5133 141.751 97.62C141.484 97.7267 141.276 97.876 141.127 98.068C140.988 98.2493 140.919 98.4573 140.919 98.692C140.919 98.9267 140.999 99.1453 141.159 99.348C141.319 99.54 141.617 99.6787 142.055 99.764L144.055 100.18C144.801 100.329 145.324 100.575 145.623 100.916C145.921 101.257 146.071 101.673 146.071 102.164C146.071 102.665 145.937 103.108 145.671 103.492C145.404 103.865 145.031 104.153 144.551 104.356C144.071 104.559 143.516 104.66 142.887 104.66Z" fill="#171717"/>
</svg>
