<?xml version="1.0" standalone="no"?>
<!DOCTYPE svg PUBLIC "-//W3C//DTD SVG 20010904//EN"
 "http://www.w3.org/TR/2001/REC-SVG-20010904/DTD/svg10.dtd">
<svg version="1.0" xmlns="http://www.w3.org/2000/svg"
 width="513.000000pt" height="286.000000pt" viewBox="0 0 513.000000 286.000000"
 preserveAspectRatio="xMidYMid meet">

<g transform="translate(0.000000,286.000000) scale(0.100000,-0.100000)"
fill="#000000" stroke="none">
<path d="M2067 2129 c-117 -17 -212 -79 -262 -170 -27 -48 -30 -63 -30 -139 0
-69 5 -93 23 -127 29 -56 80 -106 145 -143 52 -30 53 -30 207 -30 l155 0 -25
20 c-14 11 -65 36 -115 55 -115 47 -165 76 -203 119 -90 103 -46 247 89 291
66 22 181 16 258 -14 30 -11 56 -20 57 -18 1 1 11 26 22 55 23 61 24 60 -68
85 -72 21 -181 27 -253 16z"/>
<path d="M800 2060 l0 -60 180 0 180 0 0 -240 0 -240 75 0 75 0 0 240 0 240
180 0 180 0 0 60 0 60 -435 0 -435 0 0 -60z"/>
<path d="M2680 1820 l0 -300 70 0 70 0 0 300 0 300 -70 0 -70 0 0 -300z"/>
<path d="M3001 2103 c0 -10 33 -144 72 -298 l72 -280 68 -3 c47 -2 67 1 67 9
0 17 -130 571 -136 581 -3 4 -36 8 -75 8 -59 0 -69 -2 -68 -17z"/>
<path d="M3646 2112 c-5 -9 -156 -574 -156 -585 0 -4 26 -7 59 -7 l58 0 28
103 c15 56 38 151 50 210 13 60 26 111 28 114 3 3 9 -12 12 -33 11 -64 64
-327 73 -359 8 -29 10 -30 76 -33 53 -2 67 0 64 10 -3 7 -36 142 -73 301 l-69
287 -72 0 c-40 0 -75 -4 -78 -8z"/>
<path d="M4281 2083 c-5 -21 -39 -151 -75 -289 -36 -138 -66 -256 -66 -262 0
-8 22 -12 64 -12 l64 0 81 288 c44 158 81 293 81 300 0 8 -21 12 -70 12 l-69
0 -10 -37z"/>
<path d="M1090 1405 l0 -105 75 0 75 0 0 105 0 105 -75 0 -75 0 0 -105z"/>
<path d="M1830 1488 c23 -19 76 -45 248 -123 34 -16 70 -37 79 -47 23 -25 193
-27 193 -2 0 29 -104 119 -182 157 l-74 37 -145 0 -144 -1 25 -21z"/>
<path d="M2610 1405 l0 -105 70 0 70 0 0 105 0 105 -70 0 -70 0 0 -105z"/>
<path d="M3060 1498 c0 -7 11 -53 23 -103 l23 -90 67 -3 c50 -2 67 0 67 10 0
7 -10 55 -22 106 l-22 92 -68 0 c-48 0 -68 -4 -68 -12z"/>
<path d="M3435 1498 c-15 -46 -45 -167 -45 -182 0 -14 8 -17 57 -14 l56 3 28
103 27 102 -59 0 c-39 0 -61 -4 -64 -12z"/>
<path d="M3720 1504 c0 -6 16 -72 41 -166 l10 -38 65 0 64 0 -6 28 c-9 39 -24
101 -35 145 l-10 37 -64 0 c-36 0 -65 -3 -65 -6z"/>
<path d="M4062 1418 c-12 -51 -22 -99 -22 -105 0 -9 19 -13 60 -13 l59 0 21
73 c12 39 25 85 31 101 5 16 9 31 9 32 0 2 -31 4 -68 4 l-68 0 -22 -92z"/>
<path d="M1170 1065 l0 -225 70 0 70 0 0 225 0 225 -70 0 -70 0 0 -225z"/>
<path d="M2286 1243 c59 -115 6 -246 -114 -288 -91 -31 -261 -12 -363 41 -25
13 -26 12 -42 -40 -10 -29 -17 -56 -17 -60 0 -14 90 -47 166 -61 237 -46 434
25 511 183 23 48 27 68 27 141 0 125 -5 131 -108 131 l-83 0 23 -47z"/>
<path d="M2680 1065 l0 -225 70 0 70 0 0 225 0 225 -70 0 -70 0 0 -225z"/>
<path d="M3239 1065 l56 -225 77 0 c64 0 78 3 82 18 12 38 116 423 116 427 0
3 -26 5 -58 5 l-58 0 -22 -92 c-12 -51 -27 -117 -33 -146 -6 -29 -13 -51 -16
-48 -4 3 -63 269 -63 283 0 1 -31 3 -69 3 l-68 0 56 -225z"/>
<path d="M3846 1273 c2 -10 24 -101 49 -203 25 -102 47 -195 50 -207 5 -21 11
-23 83 -23 l77 0 59 213 c33 116 62 218 64 225 3 9 -13 12 -61 12 l-65 0 -21
-92 c-11 -51 -26 -118 -32 -148 -15 -68 -19 -59 -50 110 l-24 125 -67 3 c-59
3 -66 1 -62 -15z"/>
</g>
</svg>
