<svg width="96" height="36" viewBox="0 0 96 36" fill="none" xmlns="http://www.w3.org/2000/svg">
<mask id="mask0_942_21607" style="mask-type:luminance" maskUnits="userSpaceOnUse" x="0" y="23" width="96" height="13">
<path d="M95.4894 23.234H0V36H95.4894V23.234Z" fill="white"/>
</mask>
<g mask="url(#mask0_942_21607)">
<path d="M11.2335 7.9149H2.04199V4.59575H24.5101V7.9149H15.3186V34.9787H11.2335V7.9149Z" fill="#EDEDED"/>
<path d="M27.2317 30.3217C38.5142 37.0315 46.9449 25.4528 34.9142 21.0562C18.1168 15.0153 30.3874 -1.11319 43.4547 5.64511L42.3696 8.85447C32.8002 3.59234 24.6964 13.5906 36.9006 17.8468C42.053 19.8357 44.6725 22.32 44.6725 26.7957C45.2138 35.1574 32.8615 37.7898 26.2334 33.6204L27.2266 30.3217H27.2317Z" fill="#EDEDED"/>
<path d="M53.8718 4.59575H50.042V34.9787H53.8718V4.59575Z" fill="#EDEDED"/>
<path d="M65.8155 34.9787L58.1074 4.59575H62.2308C63.7193 11.0987 67.0461 24.5592 68.1287 30.6383H68.2206C69.247 24.6128 73.184 11.0349 74.8002 4.59575H78.9134C80.4147 11.1881 83.8232 24.0077 84.7193 30.383H84.8087C85.9883 24.0536 89.5679 11.1651 91.2453 4.59575H95.2819L86.6725 34.9787H82.544C81.1193 28.7055 77.4351 15.1047 76.7176 9.19149H76.6283C75.6989 14.9719 71.5398 28.8102 69.944 34.9787H65.8181H65.8155Z" fill="#EDEDED"/>
</g>
<mask id="mask1_942_21607" style="mask-type:luminance" maskUnits="userSpaceOnUse" x="0" y="17" width="96" height="7">
<path d="M95.4894 17.617H0V23.2341H95.4894V17.617Z" fill="white"/>
</mask>
<g mask="url(#mask1_942_21607)">
<path d="M9.44637 7.91491H0.254883V4.59576H22.723V7.91491H13.5315V34.9787H9.44637V7.91491Z" fill="#EDEDED"/>
<path d="M25.3909 30.1328C36.6734 36.8426 45.1041 25.2639 33.0734 20.8673C16.276 14.8264 28.5466 -1.30211 41.6139 5.45619L40.5288 8.66555C30.9594 3.40342 22.8556 13.4017 35.0598 17.6579C40.2122 19.6468 42.8317 22.1311 42.8317 26.6068C43.373 34.9685 31.0207 37.6009 24.3926 33.4315L25.3858 30.1328H25.3909Z" fill="#EDEDED"/>
<path d="M52.0847 4.59576H48.2549V34.9787H52.0847V4.59576Z" fill="#EDEDED"/>
<path d="M63.9747 34.9787L56.2666 4.59576H60.4513C61.9245 11.0349 65.2181 24.3651 66.2904 30.383H66.3798C67.396 24.4162 71.2947 10.9736 72.893 4.59576H77.0675C78.5687 11.1881 81.9772 24.0077 82.8734 30.383H82.9628C84.1423 24.0536 87.7219 11.1651 89.3994 4.59576H93.436L84.8266 34.9787H80.6981C79.2734 28.7056 75.5892 15.1047 74.8717 9.19151H74.7823C73.853 14.9719 69.6938 28.8102 68.0981 34.9787H63.9721H63.9747Z" fill="#EDEDED"/>
</g>
<mask id="mask2_942_21607" style="mask-type:luminance" maskUnits="userSpaceOnUse" x="0" y="0" width="96" height="18">
<path d="M95.4894 0H0V17.617H95.4894V0Z" fill="white"/>
</mask>
<g mask="url(#mask2_942_21607)">
<path d="M11.2335 5.61702H2.04199V2.29787H24.5101V5.61702H15.3186V32.6808H11.2335V5.61702Z" fill="#EDEDED"/>
<path d="M27.178 27.8349C38.4605 34.5447 46.8912 22.966 34.8605 18.5694C18.0631 12.5285 30.3337 -3.6 43.401 3.15829L42.3159 6.36765C32.7465 1.10553 24.6427 11.1038 36.8469 15.36C41.9993 17.3489 44.6188 19.8332 44.6188 24.3089C45.1601 32.6706 32.8078 35.303 26.1797 31.1336L27.1729 27.8349H27.178Z" fill="#EDEDED"/>
<path d="M53.8718 2.29787H50.042V32.6808H53.8718V2.29787Z" fill="#EDEDED"/>
<path d="M65.7618 32.6808L58.0537 2.29787H62.2384C63.7116 8.73702 67.0052 22.0672 68.0775 28.0851H68.1669C69.1831 22.1183 73.0818 8.67574 74.6801 2.29787H78.8546C80.3558 8.89021 83.7643 21.7098 84.6605 28.0851H84.7499C85.9295 21.7557 89.509 8.86723 91.1865 2.29787H95.2231L86.6137 32.6808H82.4852C81.0605 26.4077 77.3763 12.8068 76.6588 6.89361H76.5695C75.6401 12.674 71.4809 26.5123 69.8852 32.6808H65.7592H65.7618Z" fill="#EDEDED"/>
</g>
<mask id="mask3_942_21607" style="mask-type:luminance" maskUnits="userSpaceOnUse" x="0" y="22" width="96" height="13">
<path d="M95.4894 22.2128H0V34.9787H95.4894V22.2128Z" fill="white"/>
</mask>
<g mask="url(#mask3_942_21607)">
<path d="M9.70125 7.14894H0.509766V3.82979H22.9778V7.14894H13.7864V34.2128H9.70125V7.14894Z" fill="#171717"/>
<path d="M9.57381 7.02127H0.382324V3.70212H22.8504V7.02127H13.6589V34.0851H9.57381V7.02127Z" stroke="#EDEDED" stroke-width="0.255319"/>
<path d="M25.5286 29.2366C36.8111 35.9464 45.2418 24.3677 33.2111 19.9711C16.4137 13.9302 28.6843 -2.1983 41.7515 4.56L40.6664 7.76936C31.0971 2.50723 22.9933 12.5055 35.1975 16.7617C40.3498 18.7506 42.9694 21.2349 42.9694 25.7106C43.5107 34.0723 31.1584 36.7047 24.5303 32.5353L25.5235 29.2366H25.5286Z" fill="#171717"/>
<path d="M25.5286 29.2366C36.8111 35.9464 45.2418 24.3677 33.2111 19.9711C16.4137 13.9302 28.6843 -2.1983 41.7515 4.56L40.6664 7.76936C31.0971 2.50723 22.9933 12.5055 35.1975 16.7617C40.3498 18.7506 42.9694 21.2349 42.9694 25.7106C43.5107 34.0723 31.1584 36.7047 24.5303 32.5353L25.5235 29.2366H25.5286Z" stroke="#EDEDED" stroke-width="0.255319"/>
<path d="M52.3396 3.82979H48.5098V34.2128H52.3396V3.82979Z" fill="#171717"/>
<path d="M52.2121 3.70212H48.3823V34.0851H52.2121V3.70212Z" stroke="#EDEDED" stroke-width="0.255319"/>
<path d="M64.1124 34.2128L56.4043 3.82979H60.589C62.0622 10.2689 65.3558 23.5991 66.4281 29.617H66.5175C67.5337 23.6502 71.4324 10.2077 73.0307 3.82979H77.2051C78.7064 10.4221 82.1149 23.2417 83.0111 29.617H83.1005C84.28 23.2877 87.8596 10.3991 89.5371 3.82979H93.5737L84.9643 34.2128H80.8358C79.4111 27.9396 75.7268 14.3387 75.0094 8.42553H74.92C73.9907 14.206 69.8315 28.0443 68.2358 34.2128H64.1098H64.1124Z" fill="#171717"/>
<path d="M64.1124 34.0851L56.4043 3.70212H60.589C62.0622 10.1413 65.3558 23.4715 66.4281 29.4894H66.5175C67.5337 23.5225 71.4324 10.08 73.0307 3.70212H77.2051C78.7064 10.2945 82.1149 23.114 83.0111 29.4894H83.1005C84.28 23.16 87.8596 10.2715 89.5371 3.70212H93.5737L84.9643 34.0851H80.8358C79.4111 27.8119 75.7268 14.2111 75.0094 8.29786H74.92C73.9907 14.0783 69.8315 27.9166 68.2358 34.0851H64.1098H64.1124Z" stroke="#EDEDED" stroke-width="0.255319"/>
</g>
<mask id="mask4_942_21607" style="mask-type:luminance" maskUnits="userSpaceOnUse" x="0" y="16" width="96" height="7">
<path d="M95.4894 16.5957H0V22.2128H95.4894V16.5957Z" fill="white"/>
</mask>
<g mask="url(#mask4_942_21607)">
<path d="M7.91463 6.89361H-1.27686V3.57446H21.1912V6.89361H11.9997V33.9574H7.91463V6.89361Z" fill="#171717"/>
<path d="M7.78719 6.76594H-1.4043V3.44679H21.0638V6.76594H11.8723V33.8298H7.78719V6.76594Z" stroke="#EDEDED" stroke-width="0.255319"/>
<path d="M23.6882 29.0451C34.9708 35.7549 43.4014 24.1762 31.3708 19.7796C14.5733 13.7387 26.844 -2.3898 39.9112 4.3685L38.8261 7.57786C29.2568 2.31573 21.1529 12.314 33.3572 16.5702C38.5095 18.5591 41.1291 21.0434 41.1291 25.5191C41.6704 33.8808 29.318 36.5132 22.6899 32.3438L23.6831 29.0451H23.6882Z" fill="#171717"/>
<path d="M23.6882 29.0451C34.9708 35.7549 43.4014 24.1762 31.3708 19.7796C14.5733 13.7387 26.844 -2.3898 39.9112 4.3685L38.8261 7.57786C29.2568 2.31573 21.1529 12.314 33.3572 16.5702C38.5095 18.5591 41.1291 21.0434 41.1291 25.5191C41.6704 33.8808 29.318 36.5132 22.6899 32.3438L23.6831 29.0451H23.6882Z" stroke="#EDEDED" stroke-width="0.255319"/>
<path d="M50.5529 3.57446H46.7231V33.9574H50.5529V3.57446Z" fill="#171717"/>
<path d="M50.4255 3.44679H46.5957V33.8298H50.4255V3.44679Z" stroke="#EDEDED" stroke-width="0.255319"/>
<path d="M62.2696 33.9574L54.5615 3.57446H58.6849C60.1734 10.0774 63.5002 23.5379 64.5828 29.617H64.6747C65.7011 23.5915 69.6381 10.0136 71.2543 3.57446H75.3675C76.8688 10.1668 80.2773 22.9864 81.1734 29.3617H81.2628C82.4424 23.0323 86.0219 10.1438 87.6994 3.57446H91.736L83.1266 33.9574H78.9981C77.5734 27.6842 73.8892 14.0834 73.1717 8.17021H73.0824C72.153 13.9506 67.9939 27.7889 66.3981 33.9574H62.2722H62.2696Z" fill="#171717"/>
<path d="M62.2696 33.8298L54.5615 3.44679H58.6849C60.1734 9.94977 63.5002 23.4102 64.5828 29.4893H64.6747C65.7011 23.4638 69.6381 9.88594 71.2543 3.44679H75.3675C76.8688 10.0391 80.2773 22.8587 81.1734 29.234H81.2628C82.4424 22.9047 86.0219 10.0162 87.6994 3.44679H91.736L83.1266 33.8298H78.9981C77.5734 27.5566 73.8892 13.9557 73.1717 8.04254H73.0824C72.153 13.823 67.9939 27.6613 66.3981 33.8298H62.2722H62.2696Z" stroke="#EDEDED" stroke-width="0.255319"/>
</g>
<mask id="mask5_942_21607" style="mask-type:luminance" maskUnits="userSpaceOnUse" x="0" y="0" width="96" height="17">
<path d="M95.4894 0H0V16.5957H95.4894V0Z" fill="white"/>
</mask>
<g mask="url(#mask5_942_21607)">
<path d="M9.70077 4.59575H0.509277V1.2766H22.9774V4.59575H13.7859V31.6596H9.70077V4.59575Z" fill="#171717"/>
<path d="M9.57333 4.46807H0.381836V1.14893H22.8499V4.46807H13.6584V31.5319H9.57333V4.46807Z" stroke="#EDEDED" stroke-width="0.255319" stroke-miterlimit="10"/>
<path d="M25.4744 26.7472C36.7569 33.457 45.1876 21.8783 33.1569 17.4817C16.3595 11.4408 28.6301 -4.68767 41.6974 2.07063L40.6122 5.27999C31.0429 0.0178656 22.9391 10.0162 35.1433 14.2723C40.2956 16.2613 42.9152 18.7455 42.9152 23.2213C43.4565 31.583 31.1042 34.2153 24.4761 30.0459L25.4693 26.7472H25.4744Z" fill="#171717"/>
<path d="M25.4744 26.7472C36.7569 33.457 45.1876 21.8783 33.1569 17.4817C16.3595 11.4408 28.6301 -4.68767 41.6974 2.07063L40.6122 5.27999C31.0429 0.0178656 22.9391 10.0162 35.1433 14.2723C40.2956 16.2613 42.9152 18.7455 42.9152 23.2213C43.4565 31.583 31.1042 34.2153 24.4761 30.0459L25.4693 26.7472H25.4744Z" stroke="#EDEDED" stroke-width="0.255319" stroke-miterlimit="10"/>
<path d="M52.3391 1.2766H48.5093V31.6596H52.3391V1.2766Z" fill="#171717"/>
<path d="M52.2116 1.14893H48.3818V31.5319H52.2116V1.14893Z" stroke="#EDEDED" stroke-width="0.255319" stroke-miterlimit="10"/>
<path d="M64.0557 31.6596L56.3477 1.2766H60.4711C61.9596 7.77957 65.2864 21.24 66.3689 27.3191H66.4608C67.4872 21.2936 71.4242 7.71574 73.0404 1.2766H77.1536C78.6549 7.86894 82.0634 20.6885 82.9596 27.0638H83.0489C84.2285 20.7345 87.8081 7.84596 89.4855 1.2766H93.5221L84.9128 31.6596H80.7843C79.3596 25.3864 75.6753 11.7855 74.9579 5.87234H74.8685C73.9391 11.6528 69.78 25.4911 68.1842 31.6596H64.0583H64.0557Z" fill="#171717"/>
<path d="M64.0557 31.5319L56.3477 1.14893H60.4711C61.9596 7.6519 65.2864 21.1123 66.3689 27.1915H66.4608C67.4872 21.1659 71.4242 7.58807 73.0404 1.14893H77.1536C78.6549 7.74127 82.0634 20.5608 82.9596 26.9362H83.0489C84.2285 20.6068 87.8081 7.71829 89.4855 1.14893H93.5221L84.9128 31.5319H80.7842C79.3596 25.2587 75.6753 11.6579 74.9579 5.74467H74.8685C73.9391 11.5251 69.78 25.3634 68.1842 31.5319H64.0583H64.0557Z" stroke="#EDEDED" stroke-width="0.255319" stroke-miterlimit="10"/>
</g>
</svg>
