<svg width="209" height="269" viewBox="0 0 209 269" fill="none" xmlns="http://www.w3.org/2000/svg">
<path d="M100.7 46.1702H25.75V18.7002H208.18V46.1702H132.86V268.9H100.69V46.1702H100.7Z" fill="#EDEDED"/>
<path d="M206.008 20.9585L188.506 2.48242L165.398 24.3726L182.901 42.8486L206.008 20.9585Z" fill="#EDEDED"/>
<path d="M205.45 20.9004H107.45V43.9004H205.45V20.9004Z" fill="#EDEDED"/>
<path d="M130.45 43.9004H107.45V265.9H130.45V43.9004Z" fill="#EDEDED"/>
<path d="M82.0471 249.067L78.7466 258.972L101.848 266.67L105.148 256.765L82.0471 249.067Z" fill="#EDEDED"/>
<path d="M130.45 257.9H101.45V265.9H130.45V257.9Z" fill="#EDEDED"/>
<path d="M206.95 20.4004L188.95 1.40039" stroke="#EDEDED" stroke-width="3" stroke-miterlimit="10"/>
<path d="M26.9502 44.4004L0.950195 29.4004" stroke="#EDEDED" stroke-width="3" stroke-miterlimit="10"/>
<path d="M77.9502 259.4L101.95 267.4" stroke="#EDEDED" stroke-width="3" stroke-miterlimit="10"/>
<path d="M36.1192 32.8965L13.0171 18.9219L5.77098 30.9008L28.8731 44.8754L36.1192 32.8965Z" fill="#EDEDED"/>
<path d="M78.36 29.81H1.5V1.5H188.6V29.81H111.36V259.34H78.37V29.81H78.36Z" fill="#171717" stroke="#EDEDED" stroke-width="3" stroke-miterlimit="10"/>
</svg>
