<svg width="127" height="38" viewBox="0 0 127 38" fill="none" xmlns="http://www.w3.org/2000/svg">
<rect width="127" height="38" rx="8" fill="#171717"/>
<path fill-rule="evenodd" clip-rule="evenodd" d="M17.3112 15.6573C16.3225 15.0735 15.209 15.8674 15.209 16.926V21.0738C15.209 22.1324 16.3225 22.9262 17.3112 22.3425L20.8239 20.2686C21.7714 19.7091 21.7714 18.2907 20.8239 17.7312L17.3112 15.6573ZM16.3253 16.926C16.3253 16.7783 16.3968 16.675 16.4811 16.6222C16.5627 16.5712 16.6541 16.5657 16.7436 16.6185L20.2564 18.6925C20.355 18.7508 20.4183 18.8621 20.4183 18.9999C20.4183 19.1377 20.355 19.2491 20.2564 19.3073L16.7436 21.3813C16.6541 21.4341 16.5627 21.4286 16.4811 21.3776C16.3968 21.3249 16.3253 21.2215 16.3253 21.0738V16.926Z" fill="#EDEDED"/>
<path fill-rule="evenodd" clip-rule="evenodd" d="M18 11C13.5817 11 10 14.5817 10 19C10 23.4183 13.5817 27 18 27C22.4183 27 26 23.4183 26 19C26 14.5817 22.4183 11 18 11ZM11.1163 19C11.1163 15.1982 14.1982 12.1163 18 12.1163C21.8017 12.1163 24.8837 15.1982 24.8837 19C24.8837 22.8017 21.8017 25.8837 18 25.8837C14.1982 25.8837 11.1163 22.8017 11.1163 19Z" fill="#EDEDED"/>
<path d="M36.37 24H34.75V13.95H39.97C42.25 13.95 43.66 15.03 43.66 16.905C43.66 18.57 42.565 19.59 40.675 19.695V19.8C41.455 20.01 41.815 20.46 42.175 21.09L43.855 24H41.995L40.39 21.225C39.94 20.43 39.475 20.1 38.215 20.1H36.37V24ZM36.37 15.405V18.855H39.955C41.305 18.855 41.98 18.39 41.98 17.13C41.98 15.9 41.305 15.405 39.955 15.405H36.37ZM48.5781 24.15C46.1331 24.15 44.5281 22.77 44.5281 20.28C44.5281 17.955 46.1181 16.395 48.5481 16.395C50.8581 16.395 52.4331 17.67 52.4331 19.935C52.4331 20.205 52.4181 20.415 52.3731 20.64H46.0431C46.1031 22.08 46.8081 22.845 48.5331 22.845C50.0931 22.845 50.7381 22.335 50.7381 21.45V21.33H52.3581V21.465C52.3581 23.055 50.7981 24.15 48.5781 24.15ZM48.5181 17.67C46.8681 17.67 46.1481 18.405 46.0581 19.74H50.9031V19.71C50.9031 18.33 50.1081 17.67 48.5181 17.67ZM55.2665 26.55H53.6465V16.545H55.1315V18.615H55.2665C55.5665 17.235 56.6165 16.395 58.3715 16.395C60.6815 16.395 61.9865 17.97 61.9865 20.28C61.9865 22.59 60.7115 24.15 58.3865 24.15C56.7065 24.15 55.6265 23.265 55.3265 21.9H55.2665V26.55ZM55.2665 20.4C55.2665 21.93 56.2415 22.68 57.8315 22.68C59.4365 22.68 60.3665 22.065 60.3665 20.28C60.3665 18.48 59.4215 17.88 57.8615 17.88C56.1965 17.88 55.2665 18.66 55.2665 20.265V20.4ZM64.7294 24H63.1094V16.545H64.5944V18.555H64.6994C64.9244 17.355 65.7344 16.395 67.2644 16.395C68.9594 16.395 69.6944 17.61 69.6944 19.02V19.995H68.0894V19.335C68.0894 18.27 67.6394 17.775 66.5294 17.775C65.2544 17.775 64.7294 18.48 64.7294 19.815V24ZM74.5219 24.15C72.0469 24.15 70.3819 22.575 70.3819 20.28C70.3819 17.955 72.0469 16.395 74.5219 16.395C77.0119 16.395 78.6769 17.955 78.6769 20.28C78.6769 22.575 77.0119 24.15 74.5219 24.15ZM74.5219 22.71C76.3369 22.71 77.0869 21.855 77.0869 20.28C77.0869 18.69 76.3369 17.82 74.5219 17.82C72.7219 17.82 71.9719 18.69 71.9719 20.28C71.9719 21.855 72.7219 22.71 74.5219 22.71ZM83.1375 24.15C80.7825 24.15 79.4775 22.575 79.4775 20.28C79.4775 17.955 80.7675 16.395 83.0325 16.395C84.8025 16.395 85.8075 17.31 86.1075 18.57H86.1975V13.95H87.8175V24H86.3325V21.855H86.2275C85.9125 23.34 84.8175 24.15 83.1375 24.15ZM81.1125 20.28C81.1125 22.065 82.0275 22.665 83.6325 22.665C85.2225 22.665 86.1975 21.915 86.1975 20.355V20.235C86.1975 18.645 85.2675 17.865 83.6025 17.865C82.0425 17.865 81.1125 18.48 81.1125 20.28ZM92.4204 24.15C90.3204 24.15 89.3004 22.755 89.3004 21.03V16.545H90.9054V20.595C90.9054 21.99 91.5504 22.695 93.1254 22.695C94.7754 22.695 95.5404 21.855 95.5404 20.235V16.545H97.1454V24H95.6604V21.69H95.5704C95.3304 22.95 94.3404 24.15 92.4204 24.15ZM105.937 24H98.2122V22.605L102.007 19.215L103.582 18.03V17.91L102.007 17.97H98.4372V16.545H105.712V17.94L101.647 21.51L100.267 22.53V22.65L101.647 22.575H105.937V24ZM108.645 15.675H107.025V13.95H108.645V15.675ZM108.645 24H107.025V16.545H108.645V24ZM111.766 24H110.146V16.545H111.631V18.555H111.736C111.961 17.355 112.771 16.395 114.301 16.395C115.996 16.395 116.731 17.61 116.731 19.02V19.995H115.126V19.335C115.126 18.27 114.676 17.775 113.566 17.775C112.291 17.775 111.766 18.48 111.766 19.815V24Z" fill="#EDEDED"/>
</svg>
