<svg width="625" height="501" viewBox="0 0 625 501" fill="none" xmlns="http://www.w3.org/2000/svg">
<path d="M327 0.336426H48C21.4903 0.336426 0 21.8268 0 48.3364V77.3364C0 103.846 21.4903 125.336 48 125.336H327C353.51 125.336 375 103.846 375 77.3364V48.3364C375 21.8268 353.51 0.336426 327 0.336426Z" fill="#171717"/>
<path d="M327 0.336426H48C21.4903 0.336426 0 21.8268 0 48.3364V77.3364C0 103.846 21.4903 125.336 48 125.336H327C353.51 125.336 375 103.846 375 77.3364V48.3364C375 21.8268 353.51 0.336426 327 0.336426Z" fill="#171717"/>
<path d="M48 250.336C21.53 250.336 0 228.806 0 202.336V173.336C0 146.866 21.53 125.336 48 125.336H320C350.38 125.336 375 100.716 375 70.3364V48.3364C375 21.8664 396.53 0.336426 423 0.336426H452C478.47 0.336426 500 21.8664 500 48.3364V77.3364C500 103.806 478.47 125.336 452 125.336H430C399.62 125.336 375 149.956 375 180.336V202.336C375 228.806 353.47 250.336 327 250.336H48Z" fill="#171717"/>
<path d="M48 250.336C21.53 250.336 0 228.806 0 202.336V173.336C0 146.866 21.53 125.336 48 125.336H320C350.38 125.336 375 100.716 375 70.3364V48.3364C375 21.8664 396.53 0.336426 423 0.336426H452C478.47 0.336426 500 21.8664 500 48.3364V77.3364C500 103.806 478.47 125.336 452 125.336H430C399.62 125.336 375 149.956 375 180.336V202.336C375 228.806 353.47 250.336 327 250.336H48Z" fill="#171717"/>
<path d="M577 0.336426H548C521.49 0.336426 500 21.8268 500 48.3364V202.336C500 228.846 521.49 250.336 548 250.336H577C603.51 250.336 625 228.846 625 202.336V48.3364C625 21.8268 603.51 0.336426 577 0.336426Z" fill="#171717"/>
<path d="M577 0.336426H548C521.49 0.336426 500 21.8268 500 48.3364V202.336C500 228.846 521.49 250.336 548 250.336H577C603.51 250.336 625 228.846 625 202.336V48.3364C625 21.8268 603.51 0.336426 577 0.336426Z" fill="#171717"/>
<path d="M48 375.336C21.53 375.336 0 353.806 0 327.336V298.336C0 271.866 21.53 250.336 48 250.336H320C350.38 250.336 375 225.716 375 195.336V173.336C375 146.866 396.53 125.336 423 125.336H452C478.47 125.336 500 146.866 500 173.336V202.336C500 228.806 478.47 250.336 452 250.336H430C399.62 250.336 375 274.956 375 305.336V327.336C375 353.806 353.47 375.336 327 375.336H48Z" fill="#171717"/>
<path d="M48 375.336C21.53 375.336 0 353.806 0 327.336V298.336C0 271.866 21.53 250.336 48 250.336H320C350.38 250.336 375 225.716 375 195.336V173.336C375 146.866 396.53 125.336 423 125.336H452C478.47 125.336 500 146.866 500 173.336V202.336C500 228.806 478.47 250.336 452 250.336H430C399.62 250.336 375 274.956 375 305.336V327.336C375 353.806 353.47 375.336 327 375.336H48Z" fill="#171717"/>
<path d="M48 500.336C21.53 500.336 0 478.806 0 452.336V423.336C0 396.866 21.53 375.336 48 375.336H320C350.38 375.336 375 350.716 375 320.336V298.336C375 271.866 396.53 250.336 423 250.336H452C478.47 250.336 500 271.866 500 298.336V327.336C500 353.806 478.47 375.336 452 375.336H430C399.62 375.336 375 399.956 375 430.336V452.336C375 478.806 353.47 500.336 327 500.336H48Z" fill="#171717"/>
<path d="M48 500.336C21.53 500.336 0 478.806 0 452.336V423.336C0 396.866 21.53 375.336 48 375.336H320C350.38 375.336 375 350.716 375 320.336V298.336C375 271.866 396.53 250.336 423 250.336H452C478.47 250.336 500 271.866 500 298.336V327.336C500 353.806 478.47 375.336 452 375.336H430C399.62 375.336 375 399.956 375 430.336V452.336C375 478.806 353.47 500.336 327 500.336H48Z" fill="#171717"/>
<path d="M423 500.336C396.53 500.336 375 478.806 375 452.336V423.336C375 396.866 396.53 375.336 423 375.336H445C475.38 375.336 500 350.716 500 320.336V298.336C500 271.866 521.53 250.336 548 250.336H577C603.47 250.336 625 271.866 625 298.336V452.336C625 478.806 603.47 500.336 577 500.336H423Z" fill="#171717"/>
<path d="M423 500.336C396.53 500.336 375 478.806 375 452.336V423.336C375 396.866 396.53 375.336 423 375.336H445C475.38 375.336 500 350.716 500 320.336V298.336C500 271.866 521.53 250.336 548 250.336H577C603.47 250.336 625 271.866 625 298.336V452.336C625 478.806 603.47 500.336 577 500.336H423Z" fill="#171717"/>
</svg>
