<svg width="633" height="509" viewBox="0 0 633 509" fill="none" xmlns="http://www.w3.org/2000/svg">
<path d="M379 52.3364C379 25.8268 357.51 4.33643 331 4.33643H52C25.4903 4.33643 4 25.8268 4 52.3364V81.3364C4 107.846 25.4903 129.336 52 129.336M379 52.3364V81.3364C379 107.846 357.51 129.336 331 129.336H52M379 52.3364V74.3364C379 104.716 354.38 129.336 324 129.336H52M379 52.3364C379 25.8664 400.53 4.33643 427 4.33643H456C482.47 4.33643 504 25.8664 504 52.3364M52 129.336C25.53 129.336 4 150.866 4 177.336V206.336C4 232.806 25.53 254.336 52 254.336M52 254.336H331C357.47 254.336 379 232.806 379 206.336V184.336C379 153.956 403.62 129.336 434 129.336H456M52 254.336C25.53 254.336 4 275.866 4 302.336V331.336C4 357.806 25.53 379.336 52 379.336M52 254.336H324C354.38 254.336 379 229.716 379 199.336V177.336C379 150.866 400.53 129.336 427 129.336H456M504 52.3364V81.3364C504 107.806 482.47 129.336 456 129.336M504 52.3364V206.336M504 52.3364C504 25.8268 525.49 4.33643 552 4.33643H581C607.51 4.33643 629 25.8268 629 52.3364V206.336C629 232.846 607.51 254.336 581 254.336M456 129.336C482.47 129.336 504 150.866 504 177.336V206.336M581 254.336H552M581 254.336C607.47 254.336 629 275.866 629 302.336V456.336C629 482.806 607.47 504.336 581 504.336H427C400.53 504.336 379 482.806 379 456.336M552 254.336C525.49 254.336 504 232.846 504 206.336M552 254.336C525.53 254.336 504 275.866 504 302.336M504 206.336C504 232.806 482.47 254.336 456 254.336M52 379.336H331C357.47 379.336 379 357.806 379 331.336V309.336C379 278.956 403.62 254.336 434 254.336H456M52 379.336C25.53 379.336 4 400.866 4 427.336V456.336C4 482.806 25.53 504.336 52 504.336H331C357.47 504.336 379 482.806 379 456.336M52 379.336H324C354.38 379.336 379 354.716 379 324.336V302.336C379 275.866 400.53 254.336 427 254.336H456M456 254.336C482.47 254.336 504 275.866 504 302.336M504 302.336V331.336C504 357.806 482.47 379.336 456 379.336H434C403.62 379.336 379 403.956 379 434.336V456.336M504 302.336V324.336C504 354.716 479.38 379.336 449 379.336H427C400.53 379.336 379 400.866 379 427.336V456.336" stroke="#171717" stroke-width="8" stroke-miterlimit="10"/>
</svg>
