<svg width="625" height="500" viewBox="0 0 625 500" fill="none" xmlns="http://www.w3.org/2000/svg">
<path d="M0 44.7154C0 20.0198 19.9549 0 44.5705 0H327.188C351.804 0 371.758 20.0198 371.758 44.7154V67.0732C371.758 95.7021 348.633 118.902 320.097 118.902H44.5705C19.9549 118.902 0 98.8827 0 74.187V44.7154Z" fill="#EDEDED"/>
<path d="M453.809 0C478.384 0 498.379 20.0601 498.379 44.7154V74.187C498.379 98.8423 478.384 118.902 453.809 118.902H424.433C395.382 118.902 371.758 142.602 371.758 171.748V194.106C371.758 222.735 348.633 245.935 320.097 245.935H44.5705C19.9951 245.935 0 225.875 0 201.22V171.748C0 147.093 19.9951 127.033 44.5705 127.033H327.188C356.279 127.033 379.862 103.373 379.862 74.187V44.7154C379.862 20.0601 399.857 0 424.433 0H453.809Z" fill="#EDEDED"/>
<path d="M506.483 201.22V44.7154C506.483 20.0198 526.438 0 551.053 0H580.429C605.045 0 625 20.0198 625 44.7154V201.22C625 225.915 605.045 245.935 580.429 245.935H551.053C526.438 245.935 506.483 225.915 506.483 201.22Z" fill="#EDEDED"/>
<path d="M551.053 254.065H580.429C605.005 254.065 625 274.125 625 298.78V455.285C625 479.94 605.005 500 580.429 500H424.433C399.857 500 379.862 479.94 379.862 455.285V432.927C379.862 404.298 402.987 381.098 431.523 381.098H453.809C482.86 381.098 506.483 357.397 506.483 328.252V298.78C506.483 274.125 526.478 254.065 551.053 254.065Z" fill="#EDEDED"/>
<path d="M498.379 201.22C498.379 225.875 478.384 245.935 453.809 245.935H424.433C395.382 245.935 371.758 269.635 371.758 298.78V321.138C371.758 349.767 348.633 372.967 320.097 372.967H44.5705C19.9951 372.967 0 352.907 0 328.252V298.78C0 274.125 19.9951 254.065 44.5705 254.065H327.188C356.239 254.065 379.862 230.365 379.862 201.22V178.862C379.862 150.233 402.987 127.033 431.523 127.033H453.809C478.384 127.033 498.379 147.093 498.379 171.748V201.22Z" fill="#EDEDED"/>
<path d="M0 425.813C0 401.158 19.9951 381.098 44.5705 381.098H327.188C356.239 381.098 379.862 357.397 379.862 328.252V305.894C379.862 277.265 402.987 254.065 431.523 254.065H453.809C478.384 254.065 498.379 274.125 498.379 298.78V321.138C498.379 349.767 475.254 372.967 446.718 372.967H424.433C395.382 372.967 371.758 396.668 371.758 425.813V455.285C371.758 479.94 351.763 500 327.188 500H44.5705C19.9951 500 0 479.94 0 455.285V425.813Z" fill="#EDEDED"/>
</svg>
